<svg width="236" height="150" viewBox="0 0 236 150" fill="none" xmlns="http://www.w3.org/2000/svg">
    <mask id="08rbqp6gaa" style="mask-type:alpha" maskUnits="userSpaceOnUse" x="5" y="136" width="230" height="12">
        <path fill-rule="evenodd" clip-rule="evenodd" d="M5.93 147.035h228.329V136.21H5.929v10.825z" fill="#fff"/>
    </mask>
    <g mask="url(#08rbqp6gaa)">
        <path opacity=".3" fill-rule="evenodd" clip-rule="evenodd" d="M45.214 142.484s-39.356.032-39.284-.789c.239-2.747 31.188-1.138 33.73-1.964 1.247-.405-.133-1.286 2.066-1.857 8.746-2.27 39.172-.21 50.036-.226 29.591-.045 37.084-1.066 40.519-1.197 9.642-.367 36.92-.224 44.598-.152 15.79.148 58.264-.456 57.366 1.864-.401 1.041-41.187 3.238-48.13 3.519-5.941.24-10.023 1.686-15.351 2.535-7.462 1.187-15.647 1.905-23.702 2.357-33.744 1.891-68.336-2.546-101.848-4.09" fill="#333739"/>
    </g>
    <path clip-rule="evenodd" d="m204.985 111.961-47.419 5.596c-1.404.165-2.706-.727-3.024-2.072l-6.379-26.948c-.418-1.763 1.017-3.427 2.864-3.326l50.755 2.803c1.358.075 2.456 1.102 2.593 2.424l2.049 19.768c.089.869-.551 1.651-1.439 1.755z" stroke="#fff"/>
    <path d="m150.02 95.156 54.552 1.186M152.539 106.429l53.004-2.956" stroke="#fff"/>
    <path fill-rule="evenodd" clip-rule="evenodd" d="M147.105 105.43c-.258-1.772-.782-3.488-1.179-5.237-.619-2.707-1.271-5.408-1.915-8.112-.242-1.013-.502-2.023-.754-3.034-.203-.858-.343-1.735-.627-2.57-.305-.899-.801-1.719-1.788-2.177-.889-.751-1.98-.978-3.163-.964l.015.007-.174-.13c-.789-.004-1.583-.035-2.372 0-.658.026-1.193-.117-1.399-.714-.215-.625-.031-1.157.664-1.486.102-.048.182-.132.273-.199.818.21 1.641-.016 2.462-.005.154.119.331.108.514.07l2.404.358.74.262 1.793.873c1.612 1.213 2.424 2.85 2.939 4.642.855 4.103 1.905 8.171 2.878 12.252 1.06 4.444 2.079 8.897 3.132 13.343.572 2.419 1.175 4.83 1.764 7.245-.118 1.277-.781 2.415-1.206 3.611a209.381 209.381 0 0 1-2.623 6.946c-.251.633-.074.712.578.664 4.641-.345 9.284-.666 13.926-.994 13.837-.979 27.673-1.955 41.511-2.928.406-.029 1.009-.304 1.193.186.234.62.243 1.311.131 1.979-.011.07-.239.135-.372.161-.204.028-.41.045-.618.051l-59.253 4.192c-1.143.081-1.128.084-.762-.877 1.566-4.119 3.111-8.246 4.7-12.36.255-.664-.057-1.225-.19-1.8-.99-4.328-2.041-8.644-3.073-12.962-.023-.106-.097-.198-.149-.293z" fill="#fff"/>
    <path opacity=".5" fill-rule="evenodd" clip-rule="evenodd" d="M147.105 105.43c-.258-1.772-.782-3.488-1.179-5.237-.619-2.707-1.271-5.408-1.915-8.112-.242-1.013-.502-2.023-.754-3.034-.203-.858-.343-1.735-.627-2.57-.305-.899-.801-1.719-1.788-2.177-.889-.751-1.98-.978-3.163-.964l.015.007-.174-.13c-.789-.004-1.583-.035-2.372 0-.658.026-1.193-.117-1.399-.714-.215-.625-.031-1.157.664-1.486.102-.048.182-.132.273-.199.818.21 1.641-.016 2.462-.005.154.119.331.108.514.07l2.404.358.74.262 1.793.873c1.612 1.213 2.424 2.85 2.939 4.642.855 4.103 1.905 8.171 2.878 12.252 1.06 4.444 2.079 8.897 3.132 13.343.572 2.419 1.175 4.83 1.764 7.245-.118 1.277-.781 2.415-1.206 3.611a209.381 209.381 0 0 1-2.623 6.946c-.251.633-.074.712.578.664 4.641-.345 9.284-.666 13.926-.994 13.837-.979 27.673-1.955 41.511-2.928.406-.029 1.009-.304 1.193.186.234.62.243 1.311.131 1.979-.011.07-.239.135-.372.161-.204.028-.41.045-.618.051l-59.253 4.192c-1.143.081-1.128.084-.762-.877 1.566-4.119 3.111-8.246 4.7-12.36.255-.664-.057-1.225-.19-1.8-.99-4.328-2.041-8.644-3.073-12.962-.023-.106-.097-.198-.149-.293z" fill="#333739"/>
    <path fill-rule="evenodd" clip-rule="evenodd" d="M158.352 138.838c-.888 2.74-3.871 3.316-5.76 2.028-.583-.397-.898-.979-1.268-1.532-.665-2.154.039-4.043 1.872-4.791 1.323-.54 2.675-.514 3.829.417 1.233.996 1.634 2.334 1.327 3.878M202.52 135.713c-.888 2.74-3.871 3.316-5.76 2.028-.583-.397-.898-.979-1.269-1.532-.664-2.154.04-4.043 1.873-4.791 1.323-.54 2.675-.514 3.829.418 1.233.995 1.634 2.334 1.327 3.877" fill="#fff"/>
    <path opacity=".5" fill-rule="evenodd" clip-rule="evenodd" d="M158.352 138.838c-.888 2.74-3.871 3.316-5.76 2.028-.583-.397-.898-.979-1.268-1.532-.665-2.154.039-4.043 1.872-4.791 1.323-.54 2.675-.514 3.829.417 1.233.996 1.634 2.334 1.327 3.878M202.52 135.713c-.888 2.74-3.871 3.316-5.76 2.028-.583-.397-.898-.979-1.269-1.532-.664-2.154.04-4.043 1.873-4.791 1.323-.54 2.675-.514 3.829.418 1.233.995 1.634 2.334 1.327 3.877M151.044 84.915c-2.036-.112-3.636 1.725-3.17 3.69l6.379 26.947c.354 1.497 1.8 2.481 3.347 2.299l47.42-5.596c1.043-.123 1.805-1.043 1.699-2.08l-2.446-19.793v-.003c-.154-1.47-1.374-2.604-2.871-2.686l-50.358-2.778zm-.033.592c-1.659-.092-2.93 1.4-2.56 2.96l1.569 6.627.005-.235 54.35 1.182-.692-5.598c-.122-1.172-1.096-2.091-2.314-2.158l-50.358-2.778zm53.437 11.128-54.343-1.181 2.526 10.67 52.627-2.935-.81-6.554zm-49.618 18.781-2.061-8.705 52.562-2.932.798 6.457v.002c.071.702-.446 1.342-1.179 1.428l-47.419 5.596c-1.259.148-2.418-.653-2.701-1.846z" fill="#333739"/>
    <path fill-rule="evenodd" clip-rule="evenodd" d="M125.707 71.048 118.154 59l-3.529 3.902 6.839 9.285 8.702 8.002 3.652-2.05-3.652 2.05.569 1.934s1.025.483 1.118.501c.094.019 1.203-.172 1.292-.158.089.016.508.37.649.4.141.03 1.278-.202 1.387-.172.108.03.993.653 1.133.668.141.014 1.371-1.414 1.371-1.414l-1.555-2.39-1.963-1.615" fill="#FFDDC5"/>
    <path fill-rule="evenodd" clip-rule="evenodd" d="M124.804 71.048 117.251 59l-3.528 3.902 6.839 9.285 8.701 8.002 3.653-2.05-3.653 2.05.57 1.934s1.024.483 1.118.501c.094.019 1.202-.172 1.292-.158.089.016.508.37.648.4.141.03 1.278-.202 1.388-.172.108.03.992.653 1.133.668.141.014 1.371-1.414 1.371-1.414l-1.555-2.39-1.964-1.615" fill="#FFDDC5"/>
    <path fill-rule="evenodd" clip-rule="evenodd" d="m70.251 98.418-.4 4.654s-3.174 2.483-3.948 3.463-1.97 4.672-1.97 4.672l-1.148-.092.267-3.312s3.592-6.666 1.338-7.996c-.841-.496-.466-2.565-.466-2.565l6.384.509" fill="#333739"/>
    <path d="m124.25 141.324-2.268.317c-.008.001-.016.002-.018-.007l-.659-6.248c-.002-.009.005-.019.013-.02l5.022-.723.008-.001c.08.099 2.916 3.489 7.718 3.895.689.058 1.228.524 1.294 1.151.001.009-.006.019-.014.02l-9.422 1.375" fill="#333739"/>
    <path d="m121.158 135.357 5.346-.769 1.484 1.359s-1.257 1.375-2.985 1.623c-1.727.249-3.662-.268-3.662-.268l-.198-1.924.015-.021z" fill="#FFDDC5"/>
    <path fill-rule="evenodd" clip-rule="evenodd" d="M113.585 53.397c.023.021-3.058.516-4.857-.679-1.693-1.123-2.564-4.372-2.536-4.369.839.105 1.879-.467 3.402-5.122l.333.187 5.597 3.167s-.76 1.839-1.352 3.612c-.497 1.49-.876 2.933-.587 3.204z" fill="#FFDDC5"/>
    <path opacity=".1" fill-rule="evenodd" clip-rule="evenodd" d="M115.335 47.09s-.742 1.794-1.318 3.524c-3.24-1.174-3.981-4.727-4.142-6.614l5.46 3.09z" fill="#333739"/>
    <path fill-rule="evenodd" clip-rule="evenodd" d="M116.022 48.967s-7.819-2.302-6.31-7.146c1.509-4.845 1.516-8.405 6.572-7.14 5.055 1.264 5.445 3.413 5.335 5.153-.11 1.74-3.525 9.607-5.597 9.133z" fill="#FFDDC5"/>
    <path fill-rule="evenodd" clip-rule="evenodd" d="m113.904 79.371-11.955 1.27 18.787 55.021 5.786-.867" fill="#333739"/>
    <path fill-rule="evenodd" clip-rule="evenodd" d="m113.849 80.259-13.886-5.45-11.335 23.923-18.906-1.342-.761 7.129s22.347 2.885 24.823 1.923c2.475-.962 20.065-26.183 20.065-26.183z" fill="#333739"/>
    <path fill-rule="evenodd" clip-rule="evenodd" d="M114.967 80.091s-4.879-.477-5.045-.61c-.205-.168 1.625-18.117 1.625-18.106l1.059 2.934" fill="#fff"/>
    <mask id="4dc2tay1qb" style="mask-type:alpha" maskUnits="userSpaceOnUse" x="109" y="31" width="16" height="12">
        <path fill-rule="evenodd" clip-rule="evenodd" d="m109.176 31.43 15.277-.256.191 11.42-15.277.256-.191-11.42z" fill="#fff"/>
    </mask>
    <g mask="url(#4dc2tay1qb)">
        <path fill-rule="evenodd" clip-rule="evenodd" d="M124.075 34.396c1.223 3.327-.083 4.588-2.39 3.832-2.308-.755-5.562-2.19-5.562-2.19s-3.909 7.46-3.493 5.426c.415-2.032 1.528-1.934 1.121-3.613-.406-1.677-1.662-1.176-2.029-.203-.366.975-2.355 5.202-2.355 5.202s.392-5.25 1.767-7.97c1.374-2.716 3.541-4.583 6.252-2.934 2.713 1.653 2.674 2.716 4.562 3.098 1.886.382 2.127-.648 2.127-.648" fill="#333739"/>
    </g>
    <path fill-rule="evenodd" clip-rule="evenodd" d="m113.98 63.428-1.911-2.76s-1.483 17.57-1.586 18.606c-.105 1.037-.541 1.932-1.425 3.385-.885 1.45-2.092 1.491-3.388 2.032-1.295.54-11.152-1.91-11.152-1.91s-1.09-7.897 3.314-19.8c4.404-11.9 8.648-16.04 8.648-16.04 4.512 3.609 8.278 4.507 8.278 4.507l4.637 8.372" fill="#F66"/>
</svg>
