<svg width="590" height="200" viewBox="0 0 590 200" fill="none" xmlns="http://www.w3.org/2000/svg">
<path d="M6.81406 191.02C6.81406 191.765 6.56992 192.336 6.08164 192.733C5.59336 193.131 4.89837 193.329 3.99668 193.329H3.25449V196H2.0875V188.861H4.14317C5.03509 188.861 5.70241 189.044 6.14512 189.408C6.59108 189.773 6.81406 190.31 6.81406 191.02ZM3.25449 192.348H3.87461C4.47357 192.348 4.91302 192.243 5.19297 192.035C5.47292 191.827 5.61289 191.501 5.61289 191.059C5.61289 190.648 5.48757 190.342 5.23692 190.141C4.98626 189.939 4.59564 189.838 4.06504 189.838H3.25449V192.348ZM13.3078 193.29C13.3078 194.172 13.0816 194.861 12.6291 195.355C12.1766 195.85 11.5467 196.098 10.7395 196.098C10.2349 196.098 9.78893 195.984 9.40156 195.756C9.01419 195.528 8.71634 195.201 8.50801 194.774C8.29968 194.348 8.19551 193.853 8.19551 193.29C8.19551 192.414 8.42012 191.731 8.86934 191.239C9.31856 190.748 9.95169 190.502 10.7688 190.502C11.55 190.502 12.1685 190.754 12.6242 191.259C13.0799 191.76 13.3078 192.437 13.3078 193.29ZM9.37715 193.29C9.37715 194.537 9.83776 195.16 10.759 195.16C11.6704 195.16 12.1262 194.537 12.1262 193.29C12.1262 192.056 11.6672 191.439 10.7492 191.439C10.2674 191.439 9.91751 191.599 9.69942 191.918C9.48457 192.237 9.37715 192.694 9.37715 193.29ZM17.0428 195.17C17.3227 195.17 17.6027 195.126 17.8826 195.038V195.902C17.7557 195.958 17.5913 196.003 17.3895 196.039C17.1909 196.078 16.9842 196.098 16.7693 196.098C15.6821 196.098 15.1385 195.525 15.1385 194.379V191.469H14.4012V190.961L15.1922 190.541L15.5828 189.398H16.2908V190.6H17.8289V191.469H16.2908V194.359C16.2908 194.636 16.3592 194.841 16.4959 194.975C16.6359 195.105 16.8182 195.17 17.0428 195.17ZM21.725 196.098C20.8852 196.098 20.2276 195.854 19.7523 195.365C19.2803 194.874 19.0443 194.198 19.0443 193.339C19.0443 192.457 19.2641 191.763 19.7035 191.259C20.143 190.754 20.7468 190.502 21.515 190.502C22.2279 190.502 22.7911 190.718 23.2045 191.151C23.6179 191.584 23.8246 192.18 23.8246 192.938V193.559H20.226C20.2423 194.083 20.3839 194.486 20.6508 194.77C20.9177 195.049 21.2937 195.189 21.7787 195.189C22.0977 195.189 22.3939 195.16 22.6674 195.102C22.9441 195.04 23.2403 194.939 23.5561 194.799V195.731C23.2761 195.865 22.9929 195.959 22.7064 196.015C22.42 196.07 22.0928 196.098 21.725 196.098ZM21.515 191.371C21.1505 191.371 20.8575 191.487 20.6361 191.718C20.418 191.949 20.2878 192.286 20.2455 192.729H22.6967C22.6902 192.283 22.5827 191.946 22.3744 191.718C22.1661 191.487 21.8796 191.371 21.515 191.371ZM30.2793 196H29.127V192.68C29.127 192.263 29.0423 191.952 28.873 191.747C28.707 191.542 28.4417 191.439 28.0772 191.439C27.5921 191.439 27.2373 191.583 27.0127 191.869C26.7881 192.156 26.6758 192.636 26.6758 193.31V196H25.5283V190.6H26.4268L26.5879 191.308H26.6465C26.8092 191.05 27.0404 190.852 27.3398 190.712C27.6393 190.572 27.9714 190.502 28.3359 190.502C29.6315 190.502 30.2793 191.161 30.2793 192.479V196ZM34.2877 195.17C34.5676 195.17 34.8476 195.126 35.1275 195.038V195.902C35.0006 195.958 34.8362 196.003 34.6344 196.039C34.4358 196.078 34.2291 196.098 34.0143 196.098C32.927 196.098 32.3834 195.525 32.3834 194.379V191.469H31.6461V190.961L32.4371 190.541L32.8277 189.398H33.5357V190.6H35.0738V191.469H33.5357V194.359C33.5357 194.636 33.6041 194.841 33.7408 194.975C33.8808 195.105 34.0631 195.17 34.2877 195.17ZM37.759 196H36.6115V190.6H37.759V196ZM36.5432 189.169C36.5432 188.964 36.5985 188.806 36.7092 188.695C36.8231 188.585 36.9842 188.529 37.1926 188.529C37.3944 188.529 37.5507 188.585 37.6613 188.695C37.7753 188.806 37.8322 188.964 37.8322 189.169C37.8322 189.364 37.7753 189.519 37.6613 189.633C37.5507 189.743 37.3944 189.799 37.1926 189.799C36.9842 189.799 36.8231 189.743 36.7092 189.633C36.5985 189.519 36.5432 189.364 36.5432 189.169ZM43.1834 196L42.9539 195.248H42.9148C42.6544 195.577 42.3924 195.801 42.1287 195.922C41.865 196.039 41.5265 196.098 41.1131 196.098C40.5825 196.098 40.1674 195.954 39.868 195.668C39.5717 195.382 39.4236 194.976 39.4236 194.452C39.4236 193.896 39.6303 193.476 40.0438 193.192C40.4572 192.909 41.087 192.755 41.9334 192.729L42.866 192.699V192.411C42.866 192.066 42.7846 191.809 42.6219 191.64C42.4624 191.467 42.2133 191.381 41.8748 191.381C41.5981 191.381 41.3328 191.422 41.0789 191.503C40.825 191.584 40.5809 191.68 40.3465 191.791L39.9754 190.971C40.2684 190.818 40.589 190.702 40.9373 190.624C41.2856 190.543 41.6144 190.502 41.9236 190.502C42.6105 190.502 43.1281 190.652 43.4764 190.951C43.8279 191.251 44.0037 191.721 44.0037 192.362V196H43.1834ZM41.4744 195.219C41.8911 195.219 42.2247 195.103 42.4754 194.872C42.7293 194.638 42.8563 194.311 42.8563 193.891V193.422L42.1629 193.451C41.6225 193.471 41.2286 193.562 40.9813 193.725C40.7371 193.884 40.615 194.13 40.615 194.462C40.615 194.703 40.6867 194.89 40.8299 195.023C40.9731 195.154 41.188 195.219 41.4744 195.219ZM47.1527 196H46.0053V188.402H47.1527V196ZM52.318 196V188.861H53.485V194.999H56.5074V196H52.318ZM62.8059 193.29C62.8059 194.172 62.5796 194.861 62.1272 195.355C61.6747 195.85 61.0448 196.098 60.2375 196.098C59.7329 196.098 59.287 195.984 58.8996 195.756C58.5122 195.528 58.2144 195.201 58.0061 194.774C57.7977 194.348 57.6936 193.853 57.6936 193.29C57.6936 192.414 57.9182 191.731 58.3674 191.239C58.8166 190.748 59.4497 190.502 60.2668 190.502C61.048 190.502 61.6665 190.754 62.1223 191.259C62.578 191.76 62.8059 192.437 62.8059 193.29ZM58.8752 193.29C58.8752 194.537 59.3358 195.16 60.257 195.16C61.1685 195.16 61.6242 194.537 61.6242 193.29C61.6242 192.056 61.1652 191.439 60.2473 191.439C59.7655 191.439 59.4156 191.599 59.1975 191.918C58.9826 192.237 58.8752 192.694 58.8752 193.29ZM68.157 194.462C68.157 194.989 67.965 195.395 67.5809 195.678C67.1967 195.958 66.6466 196.098 65.9305 196.098C65.2111 196.098 64.6333 195.989 64.1971 195.771V194.779C64.8318 195.072 65.4227 195.219 65.9695 195.219C66.6759 195.219 67.0291 195.006 67.0291 194.579C67.0291 194.442 66.99 194.328 66.9119 194.237C66.8338 194.146 66.7052 194.052 66.5262 193.954C66.3471 193.856 66.0981 193.746 65.7791 193.622C65.1574 193.381 64.7358 193.14 64.5145 192.899C64.2964 192.659 64.1873 192.346 64.1873 191.962C64.1873 191.5 64.3729 191.142 64.7439 190.888C65.1183 190.631 65.6261 190.502 66.2674 190.502C66.9021 190.502 67.5027 190.631 68.0691 190.888L67.698 191.752C67.1154 191.511 66.6255 191.391 66.2283 191.391C65.6229 191.391 65.3201 191.563 65.3201 191.908C65.3201 192.077 65.3982 192.221 65.5545 192.338C65.714 192.455 66.0591 192.616 66.5896 192.821C67.0356 192.994 67.3595 193.152 67.5613 193.295C67.7632 193.438 67.9129 193.604 68.0105 193.793C68.1082 193.979 68.157 194.201 68.157 194.462ZM73.4301 194.462C73.4301 194.989 73.238 195.395 72.8539 195.678C72.4698 195.958 71.9197 196.098 71.2035 196.098C70.4841 196.098 69.9063 195.989 69.4701 195.771V194.779C70.1049 195.072 70.6957 195.219 71.2426 195.219C71.949 195.219 72.3021 195.006 72.3021 194.579C72.3021 194.442 72.2631 194.328 72.185 194.237C72.1068 194.146 71.9783 194.052 71.7992 193.954C71.6202 193.856 71.3712 193.746 71.0521 193.622C70.4304 193.381 70.0089 193.14 69.7875 192.899C69.5694 192.659 69.4604 192.346 69.4604 191.962C69.4604 191.5 69.6459 191.142 70.017 190.888C70.3913 190.631 70.8992 190.502 71.5404 190.502C72.1752 190.502 72.7758 190.631 73.3422 190.888L72.9711 191.752C72.3884 191.511 71.8985 191.391 71.5014 191.391C70.8959 191.391 70.5932 191.563 70.5932 191.908C70.5932 192.077 70.6713 192.221 70.8275 192.338C70.987 192.455 71.3321 192.616 71.8627 192.821C72.3087 192.994 72.6326 193.152 72.8344 193.295C73.0362 193.438 73.1859 193.604 73.2836 193.793C73.3812 193.979 73.4301 194.201 73.4301 194.462Z" fill="#7B7D7E"/>
<path d="M5.8502 7.01953C5.8502 7.76497 5.60606 8.33626 5.11777 8.7334C4.62949 9.13053 3.93451 9.3291 3.03281 9.3291H2.29063V12H1.12363V4.86133H3.1793C4.07123 4.86133 4.73854 5.04362 5.18125 5.4082C5.62722 5.77279 5.8502 6.3099 5.8502 7.01953ZM2.29063 8.34766H2.91074C3.5097 8.34766 3.94916 8.24349 4.2291 8.03516C4.50905 7.82682 4.64902 7.5013 4.64902 7.05859C4.64902 6.64844 4.5237 6.34245 4.27305 6.14062C4.0224 5.9388 3.63177 5.83789 3.10117 5.83789H2.29063V8.34766ZM12.3439 9.29004C12.3439 10.1722 12.1177 10.8607 11.6652 11.3555C11.2128 11.8503 10.5829 12.0977 9.77559 12.0977C9.27103 12.0977 8.82507 11.9837 8.4377 11.7559C8.05033 11.528 7.75248 11.2008 7.54414 10.7744C7.33581 10.348 7.23164 9.85319 7.23164 9.29004C7.23164 8.41439 7.45625 7.73079 7.90547 7.23926C8.35469 6.74772 8.98783 6.50195 9.80488 6.50195C10.5861 6.50195 11.2046 6.75423 11.6604 7.25879C12.1161 7.76009 12.3439 8.43717 12.3439 9.29004ZM8.41328 9.29004C8.41328 10.5368 8.87389 11.1602 9.79512 11.1602C10.7066 11.1602 11.1623 10.5368 11.1623 9.29004C11.1623 8.05632 10.7033 7.43945 9.78535 7.43945C9.30358 7.43945 8.95365 7.59896 8.73555 7.91797C8.5207 8.23698 8.41328 8.69434 8.41328 9.29004ZM16.0789 11.1699C16.3589 11.1699 16.6388 11.126 16.9188 11.0381V11.9023C16.7918 11.9577 16.6274 12.0033 16.4256 12.0391C16.227 12.0781 16.0203 12.0977 15.8055 12.0977C14.7182 12.0977 14.1746 11.5247 14.1746 10.3789V7.46875H13.4373V6.96094L14.2283 6.54102L14.6189 5.39844H15.327V6.59961H16.865V7.46875H15.327V10.3594C15.327 10.6361 15.3953 10.8411 15.532 10.9746C15.672 11.1048 15.8543 11.1699 16.0789 11.1699ZM20.7611 12.0977C19.9213 12.0977 19.2637 11.8535 18.7885 11.3652C18.3165 10.8737 18.0805 10.1982 18.0805 9.33887C18.0805 8.45671 18.3002 7.76335 18.7397 7.25879C19.1791 6.75423 19.7829 6.50195 20.5512 6.50195C21.2641 6.50195 21.8272 6.71842 22.2406 7.15137C22.654 7.58431 22.8607 8.18001 22.8607 8.93848V9.55859H19.2621C19.2784 10.0827 19.42 10.4863 19.6869 10.7695C19.9538 11.0495 20.3298 11.1895 20.8148 11.1895C21.1339 11.1895 21.4301 11.1602 21.7035 11.1016C21.9802 11.0397 22.2764 10.9388 22.5922 10.7988V11.7314C22.3122 11.8649 22.029 11.9593 21.7426 12.0146C21.4561 12.07 21.129 12.0977 20.7611 12.0977ZM20.5512 7.37109C20.1866 7.37109 19.8936 7.48665 19.6723 7.71777C19.4542 7.94889 19.324 8.28581 19.2816 8.72852H21.7328C21.7263 8.28255 21.6189 7.94564 21.4105 7.71777C21.2022 7.48665 20.9158 7.37109 20.5512 7.37109ZM29.3154 12H28.1631V8.67969C28.1631 8.26302 28.0785 7.95215 27.9092 7.74707C27.7432 7.54199 27.4779 7.43945 27.1133 7.43945C26.6283 7.43945 26.2734 7.58268 26.0488 7.86914C25.8242 8.1556 25.7119 8.63574 25.7119 9.30957V12H24.5645V6.59961H25.4629L25.624 7.30762H25.6826C25.8454 7.05046 26.0765 6.85189 26.376 6.71191C26.6755 6.57194 27.0075 6.50195 27.3721 6.50195C28.6676 6.50195 29.3154 7.16113 29.3154 8.47949V12ZM33.3238 11.1699C33.6038 11.1699 33.8837 11.126 34.1637 11.0381V11.9023C34.0367 11.9577 33.8723 12.0033 33.6705 12.0391C33.4719 12.0781 33.2652 12.0977 33.0504 12.0977C31.9632 12.0977 31.4195 11.5247 31.4195 10.3789V7.46875H30.6822V6.96094L31.4732 6.54102L31.8639 5.39844H32.5719V6.59961H34.11V7.46875H32.5719V10.3594C32.5719 10.6361 32.6402 10.8411 32.777 10.9746C32.9169 11.1048 33.0992 11.1699 33.3238 11.1699ZM36.7951 12H35.6477V6.59961H36.7951V12ZM35.5793 5.16895C35.5793 4.96387 35.6346 4.80599 35.7453 4.69531C35.8592 4.58464 36.0204 4.5293 36.2287 4.5293C36.4305 4.5293 36.5868 4.58464 36.6975 4.69531C36.8114 4.80599 36.8684 4.96387 36.8684 5.16895C36.8684 5.36426 36.8114 5.51888 36.6975 5.63281C36.5868 5.74349 36.4305 5.79883 36.2287 5.79883C36.0204 5.79883 35.8592 5.74349 35.7453 5.63281C35.6346 5.51888 35.5793 5.36426 35.5793 5.16895ZM42.2195 12L41.99 11.248H41.951C41.6906 11.5768 41.4285 11.8014 41.1648 11.9219C40.9012 12.0391 40.5626 12.0977 40.1492 12.0977C39.6186 12.0977 39.2036 11.9544 38.9041 11.668C38.6079 11.3815 38.4598 10.9762 38.4598 10.4521C38.4598 9.89551 38.6665 9.47559 39.0799 9.19238C39.4933 8.90918 40.1232 8.75456 40.9695 8.72852L41.9021 8.69922V8.41113C41.9021 8.06608 41.8208 7.80892 41.658 7.63965C41.4985 7.46712 41.2495 7.38086 40.9109 7.38086C40.6342 7.38086 40.3689 7.42155 40.115 7.50293C39.8611 7.58431 39.617 7.68034 39.3826 7.79102L39.0115 6.9707C39.3045 6.81771 39.6251 6.70215 39.9734 6.62402C40.3217 6.54264 40.6505 6.50195 40.9598 6.50195C41.6466 6.50195 42.1642 6.65169 42.5125 6.95117C42.8641 7.25065 43.0398 7.72103 43.0398 8.3623V12H42.2195ZM40.5105 11.2188C40.9272 11.2188 41.2609 11.1032 41.5115 10.8721C41.7654 10.6377 41.8924 10.3105 41.8924 9.89062V9.42188L41.199 9.45117C40.6587 9.4707 40.2648 9.56185 40.0174 9.72461C39.7732 9.88411 39.6512 10.1299 39.6512 10.4619C39.6512 10.7028 39.7228 10.89 39.866 11.0234C40.0092 11.1536 40.2241 11.2188 40.5105 11.2188ZM46.1889 12H45.0414V4.40234H46.1889V12ZM54.274 8.12793H56.901V11.7119C56.4713 11.8519 56.0579 11.9512 55.6607 12.0098C55.2669 12.0684 54.8404 12.0977 54.3814 12.0977C53.3007 12.0977 52.4674 11.7786 51.8814 11.1406C51.2955 10.4993 51.0025 9.59603 51.0025 8.43066C51.0025 7.28158 51.3329 6.38314 51.9938 5.73535C52.6546 5.08431 53.5644 4.75879 54.7232 4.75879C55.4687 4.75879 56.1751 4.90202 56.8424 5.18848L56.4322 6.16016C55.8528 5.89323 55.2734 5.75977 54.6939 5.75977C53.9322 5.75977 53.33 5.99902 52.8873 6.47754C52.4446 6.95605 52.2232 7.61035 52.2232 8.44043C52.2232 9.31283 52.4218 9.97689 52.8189 10.4326C53.2193 10.8851 53.7939 11.1113 54.5426 11.1113C54.9202 11.1113 55.3238 11.0641 55.7535 10.9697V9.12891H54.274V8.12793ZM62.2766 12L62.0471 11.248H62.008C61.7476 11.5768 61.4855 11.8014 61.2219 11.9219C60.9582 12.0391 60.6197 12.0977 60.2063 12.0977C59.6757 12.0977 59.2606 11.9544 58.9611 11.668C58.6649 11.3815 58.5168 10.9762 58.5168 10.4521C58.5168 9.89551 58.7235 9.47559 59.1369 9.19238C59.5503 8.90918 60.1802 8.75456 61.0266 8.72852L61.9592 8.69922V8.41113C61.9592 8.06608 61.8778 7.80892 61.715 7.63965C61.5555 7.46712 61.3065 7.38086 60.968 7.38086C60.6913 7.38086 60.426 7.42155 60.1721 7.50293C59.9182 7.58431 59.674 7.68034 59.4397 7.79102L59.0686 6.9707C59.3615 6.81771 59.6822 6.70215 60.0305 6.62402C60.3788 6.54264 60.7076 6.50195 61.0168 6.50195C61.7036 6.50195 62.2212 6.65169 62.5695 6.95117C62.9211 7.25065 63.0969 7.72103 63.0969 8.3623V12H62.2766ZM60.5676 11.2188C60.9842 11.2188 61.3179 11.1032 61.5686 10.8721C61.8225 10.6377 61.9494 10.3105 61.9494 9.89062V9.42188L61.2561 9.45117C60.7157 9.4707 60.3218 9.56185 60.0744 9.72461C59.8303 9.88411 59.7082 10.1299 59.7082 10.4619C59.7082 10.7028 59.7798 10.89 59.923 11.0234C60.0663 11.1536 60.2811 11.2188 60.5676 11.2188ZM66.2459 12H65.0984V6.59961H66.2459V12ZM65.0301 5.16895C65.0301 4.96387 65.0854 4.80599 65.1961 4.69531C65.31 4.58464 65.4712 4.5293 65.6795 4.5293C65.8813 4.5293 66.0376 4.58464 66.1482 4.69531C66.2622 4.80599 66.3191 4.96387 66.3191 5.16895C66.3191 5.36426 66.2622 5.51888 66.1482 5.63281C66.0376 5.74349 65.8813 5.79883 65.6795 5.79883C65.4712 5.79883 65.31 5.74349 65.1961 5.63281C65.0854 5.51888 65.0301 5.36426 65.0301 5.16895ZM73.0424 12H71.89V8.67969C71.89 8.26302 71.8054 7.95215 71.6361 7.74707C71.4701 7.54199 71.2048 7.43945 70.8402 7.43945C70.3552 7.43945 70.0004 7.58268 69.7758 7.86914C69.5512 8.1556 69.4389 8.63574 69.4389 9.30957V12H68.2914V6.59961H69.1898L69.351 7.30762H69.4096C69.5723 7.05046 69.8034 6.85189 70.1029 6.71191C70.4024 6.57194 70.7344 6.50195 71.099 6.50195C72.3946 6.50195 73.0424 7.16113 73.0424 8.47949V12Z" fill="#7B7D7E"/>
<path d="M20.2783 116.431C20.2783 117.671 20.0781 118.592 19.6777 119.194C19.2806 119.797 18.6719 120.098 17.8516 120.098C17.0573 120.098 16.4551 119.787 16.0449 119.165C15.6348 118.543 15.4297 117.632 15.4297 116.431C15.4297 115.171 15.6283 114.243 16.0254 113.647C16.4258 113.049 17.0345 112.749 17.8516 112.749C18.6491 112.749 19.2529 113.062 19.6631 113.687C20.0732 114.312 20.2783 115.226 20.2783 116.431ZM16.5918 116.431C16.5918 117.404 16.6911 118.099 16.8896 118.516C17.0915 118.932 17.4121 119.141 17.8516 119.141C18.291 119.141 18.6117 118.929 18.8135 118.506C19.0186 118.083 19.1211 117.391 19.1211 116.431C19.1211 115.474 19.0186 114.782 18.8135 114.355C18.6117 113.926 18.291 113.711 17.8516 113.711C17.4121 113.711 17.0915 113.921 16.8896 114.341C16.6911 114.761 16.5918 115.457 16.5918 116.431ZM22.4752 115C22.4752 115.485 22.5224 115.846 22.6168 116.084C22.7112 116.322 22.8658 116.44 23.0807 116.44C23.5104 116.44 23.7252 115.96 23.7252 115C23.7252 114.04 23.5104 113.56 23.0807 113.56C22.8658 113.56 22.7112 113.678 22.6168 113.916C22.5224 114.154 22.4752 114.515 22.4752 115ZM24.6725 114.99C24.6725 115.739 24.5374 116.302 24.2672 116.68C24.0003 117.054 23.6048 117.241 23.0807 117.241C22.5859 117.241 22.2018 117.048 21.9283 116.66C21.6581 116.27 21.523 115.713 21.523 114.99C21.523 113.503 22.0423 112.759 23.0807 112.759C23.5917 112.759 23.984 112.952 24.2574 113.34C24.5341 113.724 24.6725 114.274 24.6725 114.99ZM27.1236 117.852C27.1236 118.337 27.1708 118.7 27.2652 118.94C27.3629 119.181 27.5191 119.302 27.734 119.302C28.1604 119.302 28.3736 118.818 28.3736 117.852C28.3736 116.898 28.1604 116.421 27.734 116.421C27.5191 116.421 27.3629 116.538 27.2652 116.772C27.1708 117.007 27.1236 117.367 27.1236 117.852ZM29.3209 117.852C29.3209 118.6 29.1858 119.162 28.9156 119.536C28.6454 119.91 28.2516 120.098 27.734 120.098C27.2392 120.098 26.8551 119.906 26.5816 119.521C26.3082 119.134 26.1715 118.577 26.1715 117.852C26.1715 116.364 26.6923 115.62 27.734 115.62C28.2353 115.62 28.6243 115.812 28.901 116.196C29.1809 116.58 29.3209 117.132 29.3209 117.852ZM27.8707 112.861L23.9107 120H22.9635L26.9234 112.861H27.8707Z" fill="#575A5C"/>
<path d="M79.8086 90H78.6611V85.3906C78.6611 84.8405 78.6742 84.4043 78.7002 84.082C78.6253 84.1602 78.5326 84.2464 78.4219 84.3408C78.3145 84.4352 77.9499 84.7347 77.3281 85.2393L76.752 84.5117L78.8516 82.8613H79.8086V90ZM83.3629 90L86.1852 83.8818H82.4742V82.8711H87.4107V83.6719L84.6031 90H83.3629ZM88.8752 89.3896C88.8752 89.152 88.937 88.9697 89.0607 88.8428C89.1844 88.7158 89.3635 88.6523 89.5979 88.6523C89.8355 88.6523 90.0161 88.7191 90.1398 88.8525C90.2635 88.9827 90.3254 89.1618 90.3254 89.3896C90.3254 89.6208 90.2619 89.8047 90.135 89.9414C90.0113 90.0749 89.8322 90.1416 89.5979 90.1416C89.3635 90.1416 89.1844 90.0749 89.0607 89.9414C88.937 89.8079 88.8752 89.624 88.8752 89.3896ZM92.6297 90L95.452 83.8818H91.741V82.8711H96.6775V83.6719L93.8699 90H92.6297ZM98.8549 85C98.8549 85.485 98.9021 85.8464 98.9965 86.084C99.0909 86.3216 99.2455 86.4404 99.4604 86.4404C99.89 86.4404 100.105 85.9603 100.105 85C100.105 84.0397 99.89 83.5596 99.4604 83.5596C99.2455 83.5596 99.0909 83.6784 98.9965 83.916C98.9021 84.1536 98.8549 84.515 98.8549 85ZM101.052 84.9902C101.052 85.7389 100.917 86.3021 100.647 86.6797C100.38 87.054 99.9844 87.2412 99.4604 87.2412C98.9656 87.2412 98.5814 87.0475 98.308 86.6602C98.0378 86.2695 97.9027 85.7129 97.9027 84.9902C97.9027 83.5026 98.4219 82.7588 99.4604 82.7588C99.9714 82.7588 100.364 82.9525 100.637 83.3398C100.914 83.724 101.052 84.2741 101.052 84.9902ZM103.503 87.8516C103.503 88.3366 103.551 88.6995 103.645 88.9404C103.743 89.1813 103.899 89.3018 104.114 89.3018C104.54 89.3018 104.753 88.8184 104.753 87.8516C104.753 86.8978 104.54 86.4209 104.114 86.4209C103.899 86.4209 103.743 86.5381 103.645 86.7725C103.551 87.0068 103.503 87.3665 103.503 87.8516ZM105.701 87.8516C105.701 88.6003 105.565 89.1618 105.295 89.5361C105.025 89.9105 104.631 90.0977 104.114 90.0977C103.619 90.0977 103.235 89.9056 102.961 89.5215C102.688 89.1341 102.551 88.5775 102.551 87.8516C102.551 86.3639 103.072 85.6201 104.114 85.6201C104.615 85.6201 105.004 85.8122 105.281 86.1963C105.561 86.5804 105.701 87.1322 105.701 87.8516ZM104.25 82.8613L100.29 90H99.3432L103.303 82.8613H104.25Z" fill="#575A5C"/>
<path d="M187.809 78H186.661V73.3906C186.661 72.8405 186.674 72.4043 186.7 72.082C186.625 72.1602 186.533 72.2464 186.422 72.3408C186.314 72.4352 185.95 72.7347 185.328 73.2393L184.752 72.5117L186.852 70.8613H187.809V78ZM195.381 73.9082C195.381 75.3145 195.098 76.3643 194.532 77.0576C193.965 77.751 193.113 78.0977 191.973 78.0977C191.54 78.0977 191.229 78.0716 191.041 78.0195V77.0576C191.33 77.139 191.622 77.1797 191.915 77.1797C192.689 77.1797 193.267 76.9714 193.648 76.5547C194.029 76.138 194.237 75.4837 194.273 74.5918H194.214C194.022 74.8848 193.79 75.0964 193.516 75.2266C193.246 75.3568 192.929 75.4219 192.564 75.4219C191.933 75.4219 191.436 75.2249 191.075 74.8311C190.713 74.4372 190.533 73.8968 190.533 73.21C190.533 72.4645 190.741 71.8721 191.158 71.4326C191.578 70.9899 192.149 70.7686 192.872 70.7686C193.379 70.7686 193.822 70.8923 194.2 71.1396C194.577 71.387 194.869 71.7467 195.074 72.2188C195.279 72.6875 195.381 73.2507 195.381 73.9082ZM192.891 71.7207C192.494 71.7207 192.19 71.8509 191.978 72.1113C191.767 72.3685 191.661 72.7314 191.661 73.2002C191.661 73.6071 191.758 73.9277 191.954 74.1621C192.152 74.3932 192.452 74.5088 192.852 74.5088C193.24 74.5088 193.565 74.3932 193.829 74.1621C194.092 73.931 194.224 73.6608 194.224 73.3516C194.224 73.0618 194.167 72.7917 194.053 72.541C193.943 72.2871 193.786 72.0869 193.585 71.9404C193.383 71.7939 193.152 71.7207 192.891 71.7207ZM196.875 77.3896C196.875 77.152 196.937 76.9697 197.061 76.8428C197.184 76.7158 197.363 76.6523 197.598 76.6523C197.835 76.6523 198.016 76.7191 198.14 76.8525C198.264 76.9827 198.325 77.1618 198.325 77.3896C198.325 77.6208 198.262 77.8047 198.135 77.9414C198.011 78.0749 197.832 78.1416 197.598 78.1416C197.363 78.1416 197.184 78.0749 197.061 77.9414C196.937 77.8079 196.875 77.624 196.875 77.3896ZM204.648 73.9082C204.648 75.3145 204.365 76.3643 203.799 77.0576C203.232 77.751 202.379 78.0977 201.24 78.0977C200.807 78.0977 200.496 78.0716 200.307 78.0195V77.0576C200.597 77.139 200.888 77.1797 201.181 77.1797C201.956 77.1797 202.534 76.9714 202.915 76.5547C203.296 76.138 203.504 75.4837 203.54 74.5918H203.481C203.289 74.8848 203.056 75.0964 202.783 75.2266C202.513 75.3568 202.195 75.4219 201.831 75.4219C201.199 75.4219 200.703 75.2249 200.342 74.8311C199.98 74.4372 199.8 73.8968 199.8 73.21C199.8 72.4645 200.008 71.8721 200.425 71.4326C200.845 70.9899 201.416 70.7686 202.138 70.7686C202.646 70.7686 203.089 70.8923 203.467 71.1396C203.844 71.387 204.136 71.7467 204.341 72.2188C204.546 72.6875 204.648 73.2507 204.648 73.9082ZM202.158 71.7207C201.761 71.7207 201.457 71.8509 201.245 72.1113C201.033 72.3685 200.928 72.7314 200.928 73.2002C200.928 73.6071 201.025 73.9277 201.221 74.1621C201.419 74.3932 201.719 74.5088 202.119 74.5088C202.506 74.5088 202.832 74.3932 203.096 74.1621C203.359 73.931 203.491 73.6608 203.491 73.3516C203.491 73.0618 203.434 72.7917 203.32 72.541C203.209 72.2871 203.053 72.0869 202.851 71.9404C202.65 71.7939 202.418 71.7207 202.158 71.7207ZM206.855 73C206.855 73.485 206.902 73.8464 206.996 74.084C207.091 74.3216 207.246 74.4404 207.46 74.4404C207.89 74.4404 208.105 73.9603 208.105 73C208.105 72.0397 207.89 71.5596 207.46 71.5596C207.246 71.5596 207.091 71.6784 206.996 71.916C206.902 72.1536 206.855 72.515 206.855 73ZM209.052 72.9902C209.052 73.7389 208.917 74.3021 208.647 74.6797C208.38 75.054 207.984 75.2412 207.46 75.2412C206.966 75.2412 206.581 75.0475 206.308 74.6602C206.038 74.2695 205.903 73.7129 205.903 72.9902C205.903 71.5026 206.422 70.7588 207.46 70.7588C207.971 70.7588 208.364 70.9525 208.637 71.3398C208.914 71.724 209.052 72.2741 209.052 72.9902ZM211.503 75.8516C211.503 76.3366 211.551 76.6995 211.645 76.9404C211.743 77.1813 211.899 77.3018 212.114 77.3018C212.54 77.3018 212.753 76.8184 212.753 75.8516C212.753 74.8978 212.54 74.4209 212.114 74.4209C211.899 74.4209 211.743 74.5381 211.645 74.7725C211.551 75.0068 211.503 75.3665 211.503 75.8516ZM213.701 75.8516C213.701 76.6003 213.565 77.1618 213.295 77.5361C213.025 77.9105 212.631 78.0977 212.114 78.0977C211.619 78.0977 211.235 77.9056 210.961 77.5215C210.688 77.1341 210.551 76.5775 210.551 75.8516C210.551 74.3639 211.072 73.6201 212.114 73.6201C212.615 73.6201 213.004 73.8122 213.281 74.1963C213.561 74.5804 213.701 75.1322 213.701 75.8516ZM212.25 70.8613L208.29 78H207.343L211.303 70.8613H212.25Z" fill="#575A5C"/>
<path d="M297.278 60.2305H292.439V59.3613L294.28 57.5107C294.824 56.9541 295.184 56.5602 295.359 56.3291C295.538 56.0947 295.669 55.875 295.75 55.6699C295.831 55.4648 295.872 55.2451 295.872 55.0107C295.872 54.6885 295.774 54.4346 295.579 54.249C295.387 54.0635 295.12 53.9707 294.778 53.9707C294.505 53.9707 294.24 54.0212 293.982 54.1221C293.729 54.223 293.434 54.4053 293.099 54.6689L292.479 53.9121C292.876 53.5768 293.261 53.3392 293.636 53.1992C294.01 53.0592 294.409 52.9893 294.832 52.9893C295.496 52.9893 296.028 53.1634 296.429 53.5117C296.829 53.8568 297.029 54.3223 297.029 54.9082C297.029 55.2305 296.971 55.5365 296.854 55.8262C296.74 56.1159 296.562 56.4154 296.321 56.7246C296.084 57.0306 295.687 57.4456 295.13 57.9697L293.89 59.1709V59.2197H297.278V60.2305ZM303.381 56.1387C303.381 57.5449 303.098 58.5947 302.532 59.2881C301.965 59.9814 301.113 60.3281 299.973 60.3281C299.54 60.3281 299.229 60.3021 299.041 60.25V59.2881C299.33 59.3695 299.622 59.4102 299.915 59.4102C300.689 59.4102 301.267 59.2018 301.648 58.7852C302.029 58.3685 302.237 57.7142 302.273 56.8223H302.214C302.022 57.1152 301.79 57.3268 301.516 57.457C301.246 57.5872 300.929 57.6523 300.564 57.6523C299.933 57.6523 299.436 57.4554 299.075 57.0615C298.713 56.6676 298.533 56.1273 298.533 55.4404C298.533 54.695 298.741 54.1025 299.158 53.6631C299.578 53.2204 300.149 52.999 300.872 52.999C301.379 52.999 301.822 53.1227 302.2 53.3701C302.577 53.6175 302.869 53.9772 303.074 54.4492C303.279 54.918 303.381 55.4811 303.381 56.1387ZM300.891 53.9512C300.494 53.9512 300.19 54.0814 299.978 54.3418C299.767 54.599 299.661 54.9619 299.661 55.4307C299.661 55.8376 299.758 56.1582 299.954 56.3926C300.152 56.6237 300.452 56.7393 300.852 56.7393C301.24 56.7393 301.565 56.6237 301.829 56.3926C302.092 56.1615 302.224 55.8913 302.224 55.582C302.224 55.2923 302.167 55.0221 302.053 54.7715C301.943 54.5176 301.786 54.3174 301.585 54.1709C301.383 54.0244 301.152 53.9512 300.891 53.9512ZM304.875 59.6201C304.875 59.3825 304.937 59.2002 305.061 59.0732C305.184 58.9463 305.363 58.8828 305.598 58.8828C305.835 58.8828 306.016 58.9495 306.14 59.083C306.264 59.2132 306.325 59.3923 306.325 59.6201C306.325 59.8512 306.262 60.0352 306.135 60.1719C306.011 60.3053 305.832 60.3721 305.598 60.3721C305.363 60.3721 305.184 60.3053 305.061 60.1719C304.937 60.0384 304.875 59.8545 304.875 59.6201ZM311.188 60.2305H310.041V55.6211C310.041 55.071 310.054 54.6348 310.08 54.3125C310.005 54.3906 309.912 54.4769 309.802 54.5713C309.694 54.6657 309.33 54.9652 308.708 55.4697L308.132 54.7422L310.231 53.0918H311.188V60.2305ZM314.855 55.2305C314.855 55.7155 314.902 56.0768 314.996 56.3145C315.091 56.5521 315.246 56.6709 315.46 56.6709C315.89 56.6709 316.105 56.1908 316.105 55.2305C316.105 54.2702 315.89 53.79 315.46 53.79C315.246 53.79 315.091 53.9089 314.996 54.1465C314.902 54.3841 314.855 54.7454 314.855 55.2305ZM317.052 55.2207C317.052 55.9694 316.917 56.5326 316.647 56.9102C316.38 57.2845 315.984 57.4717 315.46 57.4717C314.966 57.4717 314.581 57.278 314.308 56.8906C314.038 56.5 313.903 55.9434 313.903 55.2207C313.903 53.7331 314.422 52.9893 315.46 52.9893C315.971 52.9893 316.364 53.1829 316.637 53.5703C316.914 53.9544 317.052 54.5046 317.052 55.2207ZM319.503 58.082C319.503 58.5671 319.551 58.93 319.645 59.1709C319.743 59.4118 319.899 59.5322 320.114 59.5322C320.54 59.5322 320.753 59.0488 320.753 58.082C320.753 57.1283 320.54 56.6514 320.114 56.6514C319.899 56.6514 319.743 56.7686 319.645 57.0029C319.551 57.2373 319.503 57.597 319.503 58.082ZM321.701 58.082C321.701 58.8307 321.565 59.3923 321.295 59.7666C321.025 60.141 320.631 60.3281 320.114 60.3281C319.619 60.3281 319.235 60.1361 318.961 59.752C318.688 59.3646 318.551 58.8079 318.551 58.082C318.551 56.5944 319.072 55.8506 320.114 55.8506C320.615 55.8506 321.004 56.0426 321.281 56.4268C321.561 56.8109 321.701 57.3626 321.701 58.082ZM320.25 53.0918L316.29 60.2305H315.343L319.303 53.0918H320.25Z" fill="#575A5C"/>
<path d="M513.01 20.502C513.01 20.9544 512.878 21.332 512.614 21.6348C512.351 21.9342 511.979 22.1361 511.501 22.2402V22.2793C512.074 22.3509 512.504 22.5299 512.79 22.8164C513.076 23.0996 513.22 23.4772 513.22 23.9492C513.22 24.6361 512.977 25.1667 512.492 25.541C512.007 25.9121 511.317 26.0977 510.422 26.0977C509.631 26.0977 508.964 25.9691 508.42 25.7119V24.6914C508.723 24.8411 509.043 24.9567 509.382 25.0381C509.72 25.1195 510.046 25.1602 510.358 25.1602C510.912 25.1602 511.325 25.0576 511.599 24.8525C511.872 24.6475 512.009 24.3301 512.009 23.9004C512.009 23.5195 511.857 23.2396 511.555 23.0605C511.252 22.8815 510.777 22.792 510.129 22.792H509.509V21.8594H510.139C511.278 21.8594 511.848 21.4655 511.848 20.6777C511.848 20.3717 511.748 20.1357 511.55 19.9697C511.351 19.8037 511.058 19.7207 510.671 19.7207C510.401 19.7207 510.14 19.7598 509.89 19.8379C509.639 19.9128 509.343 20.0609 509.001 20.2822L508.439 19.4814C509.094 18.9997 509.854 18.7588 510.72 18.7588C511.439 18.7588 512.001 18.9134 512.404 19.2227C512.808 19.5319 513.01 19.9583 513.01 20.502ZM516.974 21.542C517.694 21.542 518.263 21.7324 518.683 22.1133C519.103 22.4941 519.313 23.0133 519.313 23.6709C519.313 24.4326 519.074 25.0283 518.595 25.458C518.12 25.8844 517.443 26.0977 516.564 26.0977C515.767 26.0977 515.14 25.9691 514.684 25.7119V24.6719C514.948 24.8216 515.251 24.9372 515.592 25.0186C515.934 25.0999 516.252 25.1406 516.545 25.1406C517.062 25.1406 517.456 25.0251 517.726 24.7939C517.996 24.5628 518.131 24.2243 518.131 23.7783C518.131 22.9255 517.588 22.499 516.501 22.499C516.348 22.499 516.159 22.5153 515.934 22.5479C515.71 22.5771 515.513 22.6113 515.343 22.6504L514.831 22.3477L515.104 18.8613H518.815V19.8818H516.115L515.954 21.6494C516.068 21.6299 516.206 21.6071 516.369 21.5811C516.535 21.555 516.737 21.542 516.974 21.542ZM520.875 25.3896C520.875 25.152 520.937 24.9697 521.061 24.8428C521.184 24.7158 521.363 24.6523 521.598 24.6523C521.835 24.6523 522.016 24.7191 522.14 24.8525C522.264 24.9827 522.325 25.1618 522.325 25.3896C522.325 25.6208 522.262 25.8047 522.135 25.9414C522.011 26.0749 521.832 26.1416 521.598 26.1416C521.363 26.1416 521.184 26.0749 521.061 25.9414C520.937 25.8079 520.875 25.624 520.875 25.3896ZM527.188 26H526.041V21.3906C526.041 20.8405 526.054 20.4043 526.08 20.082C526.005 20.1602 525.912 20.2464 525.802 20.3408C525.694 20.4352 525.33 20.7347 524.708 21.2393L524.132 20.5117L526.231 18.8613H527.188V26ZM530.855 21C530.855 21.485 530.902 21.8464 530.996 22.084C531.091 22.3216 531.246 22.4404 531.46 22.4404C531.89 22.4404 532.105 21.9603 532.105 21C532.105 20.0397 531.89 19.5596 531.46 19.5596C531.246 19.5596 531.091 19.6784 530.996 19.916C530.902 20.1536 530.855 20.515 530.855 21ZM533.052 20.9902C533.052 21.7389 532.917 22.3021 532.647 22.6797C532.38 23.054 531.984 23.2412 531.46 23.2412C530.966 23.2412 530.581 23.0475 530.308 22.6602C530.038 22.2695 529.903 21.7129 529.903 20.9902C529.903 19.5026 530.422 18.7588 531.46 18.7588C531.971 18.7588 532.364 18.9525 532.637 19.3398C532.914 19.724 533.052 20.2741 533.052 20.9902ZM535.503 23.8516C535.503 24.3366 535.551 24.6995 535.645 24.9404C535.743 25.1813 535.899 25.3018 536.114 25.3018C536.54 25.3018 536.753 24.8184 536.753 23.8516C536.753 22.8978 536.54 22.4209 536.114 22.4209C535.899 22.4209 535.743 22.5381 535.645 22.7725C535.551 23.0068 535.503 23.3665 535.503 23.8516ZM537.701 23.8516C537.701 24.6003 537.565 25.1618 537.295 25.5361C537.025 25.9105 536.631 26.0977 536.114 26.0977C535.619 26.0977 535.235 25.9056 534.961 25.5215C534.688 25.1341 534.551 24.5775 534.551 23.8516C534.551 22.3639 535.072 21.6201 536.114 21.6201C536.615 21.6201 537.004 21.8122 537.281 22.1963C537.561 22.5804 537.701 23.1322 537.701 23.8516ZM536.25 18.8613L532.29 26H531.343L535.303 18.8613H536.25Z" fill="#575A5C"/>
<path d="M77.3516 140.808V139.831H79.8613V140.808H77.3516ZM81.8727 143L84.6949 136.882H80.984V135.871H85.9205V136.672L83.1129 143H81.8727ZM87.385 142.39C87.385 142.152 87.4468 141.97 87.5705 141.843C87.6942 141.716 87.8732 141.652 88.1076 141.652C88.3452 141.652 88.5259 141.719 88.6496 141.853C88.7733 141.983 88.8352 142.162 88.8352 142.39C88.8352 142.621 88.7717 142.805 88.6447 142.941C88.521 143.075 88.342 143.142 88.1076 143.142C87.8732 143.142 87.6942 143.075 87.5705 142.941C87.4468 142.808 87.385 142.624 87.385 142.39ZM95.1678 139.431C95.1678 140.671 94.9676 141.592 94.5672 142.194C94.1701 142.797 93.5613 143.098 92.741 143.098C91.9467 143.098 91.3445 142.787 90.9344 142.165C90.5242 141.543 90.3191 140.632 90.3191 139.431C90.3191 138.171 90.5177 137.243 90.9148 136.647C91.3152 136.049 91.924 135.749 92.741 135.749C93.5385 135.749 94.1424 136.062 94.5525 136.687C94.9627 137.312 95.1678 138.226 95.1678 139.431ZM91.4812 139.431C91.4812 140.404 91.5805 141.099 91.7791 141.516C91.9809 141.932 92.3016 142.141 92.741 142.141C93.1805 142.141 93.5011 141.929 93.7029 141.506C93.908 141.083 94.0105 140.391 94.0105 139.431C94.0105 138.474 93.908 137.782 93.7029 137.355C93.5011 136.926 93.1805 136.711 92.741 136.711C92.3016 136.711 91.9809 136.921 91.7791 137.341C91.5805 137.761 91.4812 138.457 91.4812 139.431ZM97.3646 138C97.3646 138.485 97.4118 138.846 97.5063 139.084C97.6007 139.322 97.7553 139.44 97.9701 139.44C98.3998 139.44 98.6146 138.96 98.6146 138C98.6146 137.04 98.3998 136.56 97.9701 136.56C97.7553 136.56 97.6007 136.678 97.5063 136.916C97.4118 137.154 97.3646 137.515 97.3646 138ZM99.5619 137.99C99.5619 138.739 99.4268 139.302 99.1566 139.68C98.8897 140.054 98.4942 140.241 97.9701 140.241C97.4753 140.241 97.0912 140.048 96.8178 139.66C96.5476 139.27 96.4125 138.713 96.4125 137.99C96.4125 136.503 96.9317 135.759 97.9701 135.759C98.4812 135.759 98.8734 135.952 99.1469 136.34C99.4236 136.724 99.5619 137.274 99.5619 137.99ZM102.013 140.852C102.013 141.337 102.06 141.7 102.155 141.94C102.252 142.181 102.409 142.302 102.623 142.302C103.05 142.302 103.263 141.818 103.263 140.852C103.263 139.898 103.05 139.421 102.623 139.421C102.409 139.421 102.252 139.538 102.155 139.772C102.06 140.007 102.013 140.367 102.013 140.852ZM104.21 140.852C104.21 141.6 104.075 142.162 103.805 142.536C103.535 142.91 103.141 143.098 102.623 143.098C102.129 143.098 101.745 142.906 101.471 142.521C101.198 142.134 101.061 141.577 101.061 140.852C101.061 139.364 101.582 138.62 102.623 138.62C103.125 138.62 103.514 138.812 103.79 139.196C104.07 139.58 104.21 140.132 104.21 140.852ZM102.76 135.861L98.8002 143H97.8529L101.813 135.861H102.76Z" fill="#575A5C"/>
<path d="M185.352 146.808V145.831H187.861V146.808H185.352ZM193.891 144.908C193.891 146.314 193.608 147.364 193.042 148.058C192.475 148.751 191.622 149.098 190.483 149.098C190.05 149.098 189.739 149.072 189.55 149.02V148.058C189.84 148.139 190.131 148.18 190.424 148.18C191.199 148.18 191.777 147.971 192.158 147.555C192.539 147.138 192.747 146.484 192.783 145.592H192.724C192.532 145.885 192.299 146.096 192.026 146.227C191.756 146.357 191.438 146.422 191.074 146.422C190.442 146.422 189.946 146.225 189.585 145.831C189.223 145.437 189.043 144.897 189.043 144.21C189.043 143.465 189.251 142.872 189.668 142.433C190.088 141.99 190.659 141.769 191.381 141.769C191.889 141.769 192.332 141.892 192.71 142.14C193.087 142.387 193.379 142.747 193.584 143.219C193.789 143.688 193.891 144.251 193.891 144.908ZM191.401 142.721C191.004 142.721 190.699 142.851 190.488 143.111C190.276 143.368 190.171 143.731 190.171 144.2C190.171 144.607 190.268 144.928 190.463 145.162C190.662 145.393 190.962 145.509 191.362 145.509C191.749 145.509 192.075 145.393 192.338 145.162C192.602 144.931 192.734 144.661 192.734 144.352C192.734 144.062 192.677 143.792 192.563 143.541C192.452 143.287 192.296 143.087 192.094 142.94C191.893 142.794 191.661 142.721 191.401 142.721ZM195.385 148.39C195.385 148.152 195.447 147.97 195.571 147.843C195.694 147.716 195.873 147.652 196.108 147.652C196.345 147.652 196.526 147.719 196.65 147.853C196.773 147.983 196.835 148.162 196.835 148.39C196.835 148.621 196.772 148.805 196.645 148.941C196.521 149.075 196.342 149.142 196.108 149.142C195.873 149.142 195.694 149.075 195.571 148.941C195.447 148.808 195.385 148.624 195.385 148.39ZM203.168 145.431C203.168 146.671 202.968 147.592 202.567 148.194C202.17 148.797 201.561 149.098 200.741 149.098C199.947 149.098 199.345 148.787 198.934 148.165C198.524 147.543 198.319 146.632 198.319 145.431C198.319 144.171 198.518 143.243 198.915 142.647C199.315 142.049 199.924 141.749 200.741 141.749C201.539 141.749 202.142 142.062 202.553 142.687C202.963 143.312 203.168 144.226 203.168 145.431ZM199.481 145.431C199.481 146.404 199.581 147.099 199.779 147.516C199.981 147.932 200.302 148.141 200.741 148.141C201.18 148.141 201.501 147.929 201.703 147.506C201.908 147.083 202.011 146.391 202.011 145.431C202.011 144.474 201.908 143.782 201.703 143.355C201.501 142.926 201.18 142.711 200.741 142.711C200.302 142.711 199.981 142.921 199.779 143.341C199.581 143.761 199.481 144.457 199.481 145.431ZM205.365 144C205.365 144.485 205.412 144.846 205.506 145.084C205.601 145.322 205.755 145.44 205.97 145.44C206.4 145.44 206.615 144.96 206.615 144C206.615 143.04 206.4 142.56 205.97 142.56C205.755 142.56 205.601 142.678 205.506 142.916C205.412 143.154 205.365 143.515 205.365 144ZM207.562 143.99C207.562 144.739 207.427 145.302 207.157 145.68C206.89 146.054 206.494 146.241 205.97 146.241C205.475 146.241 205.091 146.048 204.818 145.66C204.548 145.27 204.413 144.713 204.413 143.99C204.413 142.503 204.932 141.759 205.97 141.759C206.481 141.759 206.873 141.952 207.147 142.34C207.424 142.724 207.562 143.274 207.562 143.99ZM210.013 146.852C210.013 147.337 210.06 147.7 210.155 147.94C210.252 148.181 210.409 148.302 210.623 148.302C211.05 148.302 211.263 147.818 211.263 146.852C211.263 145.898 211.05 145.421 210.623 145.421C210.409 145.421 210.252 145.538 210.155 145.772C210.06 146.007 210.013 146.367 210.013 146.852ZM212.21 146.852C212.21 147.6 212.075 148.162 211.805 148.536C211.535 148.91 211.141 149.098 210.623 149.098C210.129 149.098 209.745 148.906 209.471 148.521C209.198 148.134 209.061 147.577 209.061 146.852C209.061 145.364 209.582 144.62 210.623 144.62C211.125 144.62 211.514 144.812 211.79 145.196C212.07 145.58 212.21 146.132 212.21 146.852ZM210.76 141.861L206.8 149H205.853L209.813 141.861H210.76Z" fill="#575A5C"/>
<path d="M290.352 158.808V157.831H292.861V158.808H290.352ZM297.431 161H296.284V156.391C296.284 155.84 296.297 155.404 296.323 155.082C296.248 155.16 296.155 155.246 296.045 155.341C295.937 155.435 295.573 155.735 294.951 156.239L294.375 155.512L296.474 153.861H297.431V161ZM300.986 161L303.808 154.882H300.097V153.871H305.033V154.672L302.226 161H300.986ZM306.498 160.39C306.498 160.152 306.56 159.97 306.683 159.843C306.807 159.716 306.986 159.652 307.221 159.652C307.458 159.652 307.639 159.719 307.762 159.853C307.886 159.983 307.948 160.162 307.948 160.39C307.948 160.621 307.885 160.805 307.758 160.941C307.634 161.075 307.455 161.142 307.221 161.142C306.986 161.142 306.807 161.075 306.683 160.941C306.56 160.808 306.498 160.624 306.498 160.39ZM311.864 156.542C312.583 156.542 313.153 156.732 313.573 157.113C313.993 157.494 314.203 158.013 314.203 158.671C314.203 159.433 313.963 160.028 313.485 160.458C313.01 160.884 312.332 161.098 311.454 161.098C310.656 161.098 310.029 160.969 309.574 160.712V159.672C309.837 159.822 310.14 159.937 310.482 160.019C310.824 160.1 311.141 160.141 311.434 160.141C311.952 160.141 312.345 160.025 312.616 159.794C312.886 159.563 313.021 159.224 313.021 158.778C313.021 157.925 312.477 157.499 311.39 157.499C311.237 157.499 311.048 157.515 310.824 157.548C310.599 157.577 310.402 157.611 310.233 157.65L309.72 157.348L309.994 153.861H313.704V154.882H311.004L310.843 156.649C310.957 156.63 311.095 156.607 311.258 156.581C311.424 156.555 311.626 156.542 311.864 156.542ZM316.478 156C316.478 156.485 316.525 156.846 316.619 157.084C316.714 157.322 316.868 157.44 317.083 157.44C317.513 157.44 317.728 156.96 317.728 156C317.728 155.04 317.513 154.56 317.083 154.56C316.868 154.56 316.714 154.678 316.619 154.916C316.525 155.154 316.478 155.515 316.478 156ZM318.675 155.99C318.675 156.739 318.54 157.302 318.27 157.68C318.003 158.054 317.607 158.241 317.083 158.241C316.588 158.241 316.204 158.048 315.931 157.66C315.66 157.27 315.525 156.713 315.525 155.99C315.525 154.503 316.045 153.759 317.083 153.759C317.594 153.759 317.986 153.952 318.26 154.34C318.536 154.724 318.675 155.274 318.675 155.99ZM321.126 158.852C321.126 159.337 321.173 159.7 321.268 159.94C321.365 160.181 321.521 160.302 321.736 160.302C322.163 160.302 322.376 159.818 322.376 158.852C322.376 157.898 322.163 157.421 321.736 157.421C321.521 157.421 321.365 157.538 321.268 157.772C321.173 158.007 321.126 158.367 321.126 158.852ZM323.323 158.852C323.323 159.6 323.188 160.162 322.918 160.536C322.648 160.91 322.254 161.098 321.736 161.098C321.242 161.098 320.857 160.906 320.584 160.521C320.311 160.134 320.174 159.577 320.174 158.852C320.174 157.364 320.695 156.62 321.736 156.62C322.238 156.62 322.627 156.812 322.903 157.196C323.183 157.58 323.323 158.132 323.323 158.852ZM321.873 153.861L317.913 161H316.966L320.926 153.861H321.873Z" fill="#575A5C"/>
<path d="M503.352 178.808V177.831H505.861V178.808H503.352ZM511.901 181H507.062V180.131L508.903 178.28C509.447 177.724 509.806 177.33 509.982 177.099C510.161 176.864 510.291 176.645 510.373 176.439C510.454 176.234 510.495 176.015 510.495 175.78C510.495 175.458 510.397 175.204 510.202 175.019C510.01 174.833 509.743 174.74 509.401 174.74C509.128 174.74 508.862 174.791 508.605 174.892C508.351 174.993 508.057 175.175 507.721 175.438L507.101 174.682C507.498 174.346 507.884 174.109 508.258 173.969C508.633 173.829 509.032 173.759 509.455 173.759C510.119 173.759 510.651 173.933 511.051 174.281C511.452 174.626 511.652 175.092 511.652 175.678C511.652 176 511.593 176.306 511.476 176.596C511.362 176.885 511.185 177.185 510.944 177.494C510.706 177.8 510.309 178.215 509.753 178.739L508.512 179.94V179.989H511.901V181ZM518.014 181H513.175V180.131L515.016 178.28C515.559 177.724 515.919 177.33 516.095 177.099C516.274 176.864 516.404 176.645 516.486 176.439C516.567 176.234 516.608 176.015 516.608 175.78C516.608 175.458 516.51 175.204 516.315 175.019C516.123 174.833 515.856 174.74 515.514 174.74C515.24 174.74 514.975 174.791 514.718 174.892C514.464 174.993 514.169 175.175 513.834 175.438L513.214 174.682C513.611 174.346 513.997 174.109 514.371 173.969C514.746 173.829 515.144 173.759 515.568 173.759C516.232 173.759 516.764 173.933 517.164 174.281C517.565 174.626 517.765 175.092 517.765 175.678C517.765 176 517.706 176.306 517.589 176.596C517.475 176.885 517.298 177.185 517.057 177.494C516.819 177.8 516.422 178.215 515.865 178.739L514.625 179.94V179.989H518.014V181ZM519.498 180.39C519.498 180.152 519.56 179.97 519.683 179.843C519.807 179.716 519.986 179.652 520.221 179.652C520.458 179.652 520.639 179.719 520.762 179.853C520.886 179.983 520.948 180.162 520.948 180.39C520.948 180.621 520.885 180.805 520.758 180.941C520.634 181.075 520.455 181.142 520.221 181.142C519.986 181.142 519.807 181.075 519.683 180.941C519.56 180.808 519.498 180.624 519.498 180.39ZM523.252 181L526.075 174.882H522.364V173.871H527.3V174.672L524.493 181H523.252ZM533.394 177.431C533.394 178.671 533.193 179.592 532.793 180.194C532.396 180.797 531.787 181.098 530.967 181.098C530.173 181.098 529.57 180.787 529.16 180.165C528.75 179.543 528.545 178.632 528.545 177.431C528.545 176.171 528.743 175.243 529.141 174.647C529.541 174.049 530.15 173.749 530.967 173.749C531.764 173.749 532.368 174.062 532.778 174.687C533.188 175.312 533.394 176.226 533.394 177.431ZM529.707 177.431C529.707 178.404 529.806 179.099 530.005 179.516C530.207 179.932 530.527 180.141 530.967 180.141C531.406 180.141 531.727 179.929 531.929 179.506C532.134 179.083 532.236 178.391 532.236 177.431C532.236 176.474 532.134 175.782 531.929 175.355C531.727 174.926 531.406 174.711 530.967 174.711C530.527 174.711 530.207 174.921 530.005 175.341C529.806 175.761 529.707 176.457 529.707 177.431ZM535.59 176C535.59 176.485 535.638 176.846 535.732 177.084C535.826 177.322 535.981 177.44 536.196 177.44C536.626 177.44 536.84 176.96 536.84 176C536.84 175.04 536.626 174.56 536.196 174.56C535.981 174.56 535.826 174.678 535.732 174.916C535.638 175.154 535.59 175.515 535.59 176ZM537.788 175.99C537.788 176.739 537.653 177.302 537.382 177.68C537.115 178.054 536.72 178.241 536.196 178.241C535.701 178.241 535.317 178.048 535.044 177.66C534.773 177.27 534.638 176.713 534.638 175.99C534.638 174.503 535.157 173.759 536.196 173.759C536.707 173.759 537.099 173.952 537.373 174.34C537.649 174.724 537.788 175.274 537.788 175.99ZM540.239 178.852C540.239 179.337 540.286 179.7 540.38 179.94C540.478 180.181 540.634 180.302 540.849 180.302C541.276 180.302 541.489 179.818 541.489 178.852C541.489 177.898 541.276 177.421 540.849 177.421C540.634 177.421 540.478 177.538 540.38 177.772C540.286 178.007 540.239 178.367 540.239 178.852ZM542.436 178.852C542.436 179.6 542.301 180.162 542.031 180.536C541.761 180.91 541.367 181.098 540.849 181.098C540.354 181.098 539.97 180.906 539.697 180.521C539.423 180.134 539.287 179.577 539.287 178.852C539.287 177.364 539.808 176.62 540.849 176.62C541.351 176.62 541.74 176.812 542.016 177.196C542.296 177.58 542.436 178.132 542.436 178.852ZM540.986 173.861L537.026 181H536.079L540.039 173.861H540.986Z" fill="#575A5C"/>
<rect x="37" y="116" width="553" height="2" rx="1" fill="#DDDEDE"/>
<rect width="2" height="166" transform="matrix(-1 0 0 1 39 18)" fill="#DDDEDE"/>
<rect x="58" y="110" width="68" height="13" fill="#F6F6F6"/>
<path d="M69.6689 115.02C69.6689 115.765 69.4248 116.336 68.9365 116.733C68.4482 117.131 67.7533 117.329 66.8516 117.329H66.1094V120H64.9424V112.861H66.998C67.89 112.861 68.5573 113.044 69 113.408C69.446 113.773 69.6689 114.31 69.6689 115.02ZM66.1094 116.348H66.7295C67.3285 116.348 67.7679 116.243 68.0479 116.035C68.3278 115.827 68.4678 115.501 68.4678 115.059C68.4678 114.648 68.3424 114.342 68.0918 114.141C67.8411 113.939 67.4505 113.838 66.9199 113.838H66.1094V116.348ZM76.1627 117.29C76.1627 118.172 75.9365 118.861 75.484 119.355C75.0315 119.85 74.4016 120.098 73.5943 120.098C73.0898 120.098 72.6438 119.984 72.2564 119.756C71.8691 119.528 71.5712 119.201 71.3629 118.774C71.1546 118.348 71.0504 117.853 71.0504 117.29C71.0504 116.414 71.275 115.731 71.7242 115.239C72.1734 114.748 72.8066 114.502 73.6236 114.502C74.4049 114.502 75.0234 114.754 75.4791 115.259C75.9348 115.76 76.1627 116.437 76.1627 117.29ZM72.232 117.29C72.232 118.537 72.6926 119.16 73.6139 119.16C74.5253 119.16 74.9811 118.537 74.9811 117.29C74.9811 116.056 74.5221 115.439 73.6041 115.439C73.1223 115.439 72.7724 115.599 72.5543 115.918C72.3395 116.237 72.232 116.694 72.232 117.29ZM80.6252 114.502C80.8563 114.502 81.0467 114.518 81.1965 114.551L81.0842 115.62C80.9214 115.581 80.7521 115.562 80.5764 115.562C80.1174 115.562 79.7447 115.711 79.4582 116.011C79.175 116.31 79.0334 116.699 79.0334 117.178V120H77.8859V114.6H78.7844L78.9357 115.552H78.9943C79.1734 115.229 79.4061 114.974 79.6926 114.785C79.9823 114.596 80.2932 114.502 80.6252 114.502ZM84.6141 119.17C84.894 119.17 85.174 119.126 85.4539 119.038V119.902C85.327 119.958 85.1626 120.003 84.9607 120.039C84.7622 120.078 84.5555 120.098 84.3406 120.098C83.2534 120.098 82.7098 119.525 82.7098 118.379V115.469H81.9725V114.961L82.7635 114.541L83.1541 113.398H83.8621V114.6H85.4002V115.469H83.8621V118.359C83.8621 118.636 83.9305 118.841 84.0672 118.975C84.2072 119.105 84.3895 119.17 84.6141 119.17ZM89.6479 115.469H88.3295V120H87.1771V115.469H86.2885V114.932L87.1771 114.58V114.229C87.1771 113.59 87.3269 113.118 87.6264 112.812C87.9258 112.503 88.3832 112.349 88.9984 112.349C89.4021 112.349 89.7992 112.415 90.1898 112.549L89.8871 113.418C89.6039 113.327 89.3337 113.281 89.0766 113.281C88.8161 113.281 88.6257 113.363 88.5053 113.525C88.3881 113.685 88.3295 113.926 88.3295 114.248V114.6H89.6479V115.469ZM95.7607 117.29C95.7607 118.172 95.5345 118.861 95.082 119.355C94.6296 119.85 93.9997 120.098 93.1924 120.098C92.6878 120.098 92.2419 119.984 91.8545 119.756C91.4671 119.528 91.1693 119.201 90.9609 118.774C90.7526 118.348 90.6484 117.853 90.6484 117.29C90.6484 116.414 90.873 115.731 91.3223 115.239C91.7715 114.748 92.4046 114.502 93.2217 114.502C94.0029 114.502 94.6214 114.754 95.0771 115.259C95.5329 115.76 95.7607 116.437 95.7607 117.29ZM91.8301 117.29C91.8301 118.537 92.2907 119.16 93.2119 119.16C94.1234 119.16 94.5791 118.537 94.5791 117.29C94.5791 116.056 94.1201 115.439 93.2021 115.439C92.7204 115.439 92.3704 115.599 92.1523 115.918C91.9375 116.237 91.8301 116.694 91.8301 117.29ZM98.6314 120H97.484V112.402H98.6314V120ZM101.824 120H100.677V114.6H101.824V120ZM100.609 113.169C100.609 112.964 100.664 112.806 100.775 112.695C100.889 112.585 101.05 112.529 101.258 112.529C101.46 112.529 101.616 112.585 101.727 112.695C101.841 112.806 101.898 112.964 101.898 113.169C101.898 113.364 101.841 113.519 101.727 113.633C101.616 113.743 101.46 113.799 101.258 113.799C101.05 113.799 100.889 113.743 100.775 113.633C100.664 113.519 100.609 113.364 100.609 113.169ZM108.66 117.29C108.66 118.172 108.434 118.861 107.981 119.355C107.529 119.85 106.899 120.098 106.092 120.098C105.587 120.098 105.141 119.984 104.754 119.756C104.366 119.528 104.068 119.201 103.86 118.774C103.652 118.348 103.548 117.853 103.548 117.29C103.548 116.414 103.772 115.731 104.221 115.239C104.671 114.748 105.304 114.502 106.121 114.502C106.902 114.502 107.521 114.754 107.976 115.259C108.432 115.76 108.66 116.437 108.66 117.29ZM104.729 117.29C104.729 118.537 105.19 119.16 106.111 119.16C107.023 119.16 107.478 118.537 107.478 117.29C107.478 116.056 107.019 115.439 106.101 115.439C105.62 115.439 105.27 115.599 105.052 115.918C104.837 116.237 104.729 116.694 104.729 117.29ZM117.932 120L117.219 118.018H114.489L113.791 120H112.561L115.231 112.832H116.501L119.172 120H117.932ZM116.911 117.012L116.242 115.068C116.193 114.938 116.125 114.733 116.037 114.453C115.952 114.173 115.894 113.968 115.861 113.838C115.773 114.238 115.645 114.676 115.476 115.151L114.831 117.012H116.911Z" fill="#7B7D7E"/>
<rect x="166" y="110" width="68" height="13" fill="#F6F6F6"/>
<path d="M177.669 115.02C177.669 115.765 177.425 116.336 176.937 116.733C176.448 117.131 175.753 117.329 174.852 117.329H174.109V120H172.942V112.861H174.998C175.89 112.861 176.557 113.044 177 113.408C177.446 113.773 177.669 114.31 177.669 115.02ZM174.109 116.348H174.729C175.328 116.348 175.768 116.243 176.048 116.035C176.328 115.827 176.468 115.501 176.468 115.059C176.468 114.648 176.342 114.342 176.092 114.141C175.841 113.939 175.451 113.838 174.92 113.838H174.109V116.348ZM184.163 117.29C184.163 118.172 183.936 118.861 183.484 119.355C183.032 119.85 182.402 120.098 181.594 120.098C181.09 120.098 180.644 119.984 180.256 119.756C179.869 119.528 179.571 119.201 179.363 118.774C179.155 118.348 179.05 117.853 179.05 117.29C179.05 116.414 179.275 115.731 179.724 115.239C180.173 114.748 180.807 114.502 181.624 114.502C182.405 114.502 183.023 114.754 183.479 115.259C183.935 115.76 184.163 116.437 184.163 117.29ZM180.232 117.29C180.232 118.537 180.693 119.16 181.614 119.16C182.525 119.16 182.981 118.537 182.981 117.29C182.981 116.056 182.522 115.439 181.604 115.439C181.122 115.439 180.772 115.599 180.554 115.918C180.339 116.237 180.232 116.694 180.232 117.29ZM188.625 114.502C188.856 114.502 189.047 114.518 189.196 114.551L189.084 115.62C188.921 115.581 188.752 115.562 188.576 115.562C188.117 115.562 187.745 115.711 187.458 116.011C187.175 116.31 187.033 116.699 187.033 117.178V120H185.886V114.6H186.784L186.936 115.552H186.994C187.173 115.229 187.406 114.974 187.693 114.785C187.982 114.596 188.293 114.502 188.625 114.502ZM192.614 119.17C192.894 119.17 193.174 119.126 193.454 119.038V119.902C193.327 119.958 193.163 120.003 192.961 120.039C192.762 120.078 192.555 120.098 192.341 120.098C191.253 120.098 190.71 119.525 190.71 118.379V115.469H189.972V114.961L190.763 114.541L191.154 113.398H191.862V114.6H193.4V115.469H191.862V118.359C191.862 118.636 191.93 118.841 192.067 118.975C192.207 119.105 192.389 119.17 192.614 119.17ZM197.648 115.469H196.329V120H195.177V115.469H194.288V114.932L195.177 114.58V114.229C195.177 113.59 195.327 113.118 195.626 112.812C195.926 112.503 196.383 112.349 196.998 112.349C197.402 112.349 197.799 112.415 198.19 112.549L197.887 113.418C197.604 113.327 197.334 113.281 197.077 113.281C196.816 113.281 196.626 113.363 196.505 113.525C196.388 113.685 196.329 113.926 196.329 114.248V114.6H197.648V115.469ZM203.761 117.29C203.761 118.172 203.535 118.861 203.082 119.355C202.63 119.85 202 120.098 201.192 120.098C200.688 120.098 200.242 119.984 199.854 119.756C199.467 119.528 199.169 119.201 198.961 118.774C198.753 118.348 198.648 117.853 198.648 117.29C198.648 116.414 198.873 115.731 199.322 115.239C199.771 114.748 200.405 114.502 201.222 114.502C202.003 114.502 202.621 114.754 203.077 115.259C203.533 115.76 203.761 116.437 203.761 117.29ZM199.83 117.29C199.83 118.537 200.291 119.16 201.212 119.16C202.123 119.16 202.579 118.537 202.579 117.29C202.579 116.056 202.12 115.439 201.202 115.439C200.72 115.439 200.37 115.599 200.152 115.918C199.938 116.237 199.83 116.694 199.83 117.29ZM206.631 120H205.484V112.402H206.631V120ZM209.824 120H208.677V114.6H209.824V120ZM208.609 113.169C208.609 112.964 208.664 112.806 208.775 112.695C208.889 112.585 209.05 112.529 209.258 112.529C209.46 112.529 209.616 112.585 209.727 112.695C209.841 112.806 209.898 112.964 209.898 113.169C209.898 113.364 209.841 113.519 209.727 113.633C209.616 113.743 209.46 113.799 209.258 113.799C209.05 113.799 208.889 113.743 208.775 113.633C208.664 113.519 208.609 113.364 208.609 113.169ZM216.66 117.29C216.66 118.172 216.434 118.861 215.981 119.355C215.529 119.85 214.899 120.098 214.092 120.098C213.587 120.098 213.141 119.984 212.754 119.756C212.366 119.528 212.068 119.201 211.86 118.774C211.652 118.348 211.548 117.853 211.548 117.29C211.548 116.414 211.772 115.731 212.221 115.239C212.671 114.748 213.304 114.502 214.121 114.502C214.902 114.502 215.521 114.754 215.976 115.259C216.432 115.76 216.66 116.437 216.66 117.29ZM212.729 117.29C212.729 118.537 213.19 119.16 214.111 119.16C215.023 119.16 215.478 118.537 215.478 117.29C215.478 116.056 215.019 115.439 214.101 115.439C213.62 115.439 213.27 115.599 213.052 115.918C212.837 116.237 212.729 116.694 212.729 117.29ZM221.503 112.861H223.622C224.605 112.861 225.315 113.005 225.751 113.291C226.19 113.577 226.41 114.03 226.41 114.648C226.41 115.065 226.303 115.412 226.088 115.688C225.873 115.965 225.564 116.139 225.16 116.211V116.26C225.661 116.354 226.029 116.541 226.264 116.821C226.501 117.098 226.62 117.474 226.62 117.949C226.62 118.59 226.396 119.093 225.946 119.458C225.5 119.819 224.879 120 224.081 120H221.503V112.861ZM222.67 115.811H223.793C224.281 115.811 224.638 115.734 224.862 115.581C225.087 115.425 225.199 115.161 225.199 114.79C225.199 114.455 225.077 114.212 224.833 114.062C224.592 113.913 224.208 113.838 223.681 113.838H222.67V115.811ZM222.67 116.758V119.019H223.91C224.398 119.019 224.766 118.926 225.014 118.74C225.264 118.551 225.39 118.255 225.39 117.852C225.39 117.48 225.263 117.205 225.009 117.026C224.755 116.847 224.369 116.758 223.852 116.758H222.67Z" fill="#7B7D7E"/>
<rect x="274" y="110" width="68" height="13" fill="#F6F6F6"/>
<path d="M285.669 115.02C285.669 115.765 285.425 116.336 284.937 116.733C284.448 117.131 283.753 117.329 282.852 117.329H282.109V120H280.942V112.861H282.998C283.89 112.861 284.557 113.044 285 113.408C285.446 113.773 285.669 114.31 285.669 115.02ZM282.109 116.348H282.729C283.328 116.348 283.768 116.243 284.048 116.035C284.328 115.827 284.468 115.501 284.468 115.059C284.468 114.648 284.342 114.342 284.092 114.141C283.841 113.939 283.451 113.838 282.92 113.838H282.109V116.348ZM292.163 117.29C292.163 118.172 291.936 118.861 291.484 119.355C291.032 119.85 290.402 120.098 289.594 120.098C289.09 120.098 288.644 119.984 288.256 119.756C287.869 119.528 287.571 119.201 287.363 118.774C287.155 118.348 287.05 117.853 287.05 117.29C287.05 116.414 287.275 115.731 287.724 115.239C288.173 114.748 288.807 114.502 289.624 114.502C290.405 114.502 291.023 114.754 291.479 115.259C291.935 115.76 292.163 116.437 292.163 117.29ZM288.232 117.29C288.232 118.537 288.693 119.16 289.614 119.16C290.525 119.16 290.981 118.537 290.981 117.29C290.981 116.056 290.522 115.439 289.604 115.439C289.122 115.439 288.772 115.599 288.554 115.918C288.339 116.237 288.232 116.694 288.232 117.29ZM296.625 114.502C296.856 114.502 297.047 114.518 297.196 114.551L297.084 115.62C296.921 115.581 296.752 115.562 296.576 115.562C296.117 115.562 295.745 115.711 295.458 116.011C295.175 116.31 295.033 116.699 295.033 117.178V120H293.886V114.6H294.784L294.936 115.552H294.994C295.173 115.229 295.406 114.974 295.693 114.785C295.982 114.596 296.293 114.502 296.625 114.502ZM300.614 119.17C300.894 119.17 301.174 119.126 301.454 119.038V119.902C301.327 119.958 301.163 120.003 300.961 120.039C300.762 120.078 300.555 120.098 300.341 120.098C299.253 120.098 298.71 119.525 298.71 118.379V115.469H297.972V114.961L298.763 114.541L299.154 113.398H299.862V114.6H301.4V115.469H299.862V118.359C299.862 118.636 299.93 118.841 300.067 118.975C300.207 119.105 300.389 119.17 300.614 119.17ZM305.648 115.469H304.329V120H303.177V115.469H302.288V114.932L303.177 114.58V114.229C303.177 113.59 303.327 113.118 303.626 112.812C303.926 112.503 304.383 112.349 304.998 112.349C305.402 112.349 305.799 112.415 306.19 112.549L305.887 113.418C305.604 113.327 305.334 113.281 305.077 113.281C304.816 113.281 304.626 113.363 304.505 113.525C304.388 113.685 304.329 113.926 304.329 114.248V114.6H305.648V115.469ZM311.761 117.29C311.761 118.172 311.535 118.861 311.082 119.355C310.63 119.85 310 120.098 309.192 120.098C308.688 120.098 308.242 119.984 307.854 119.756C307.467 119.528 307.169 119.201 306.961 118.774C306.753 118.348 306.648 117.853 306.648 117.29C306.648 116.414 306.873 115.731 307.322 115.239C307.771 114.748 308.405 114.502 309.222 114.502C310.003 114.502 310.621 114.754 311.077 115.259C311.533 115.76 311.761 116.437 311.761 117.29ZM307.83 117.29C307.83 118.537 308.291 119.16 309.212 119.16C310.123 119.16 310.579 118.537 310.579 117.29C310.579 116.056 310.12 115.439 309.202 115.439C308.72 115.439 308.37 115.599 308.152 115.918C307.938 116.237 307.83 116.694 307.83 117.29ZM314.631 120H313.484V112.402H314.631V120ZM317.824 120H316.677V114.6H317.824V120ZM316.609 113.169C316.609 112.964 316.664 112.806 316.775 112.695C316.889 112.585 317.05 112.529 317.258 112.529C317.46 112.529 317.616 112.585 317.727 112.695C317.841 112.806 317.898 112.964 317.898 113.169C317.898 113.364 317.841 113.519 317.727 113.633C317.616 113.743 317.46 113.799 317.258 113.799C317.05 113.799 316.889 113.743 316.775 113.633C316.664 113.519 316.609 113.364 316.609 113.169ZM324.66 117.29C324.66 118.172 324.434 118.861 323.981 119.355C323.529 119.85 322.899 120.098 322.092 120.098C321.587 120.098 321.141 119.984 320.754 119.756C320.366 119.528 320.068 119.201 319.86 118.774C319.652 118.348 319.548 117.853 319.548 117.29C319.548 116.414 319.772 115.731 320.221 115.239C320.671 114.748 321.304 114.502 322.121 114.502C322.902 114.502 323.521 114.754 323.976 115.259C324.432 115.76 324.66 116.437 324.66 117.29ZM320.729 117.29C320.729 118.537 321.19 119.16 322.111 119.16C323.023 119.16 323.478 118.537 323.478 117.29C323.478 116.056 323.019 115.439 322.101 115.439C321.62 115.439 321.27 115.599 321.052 115.918C320.837 116.237 320.729 116.694 320.729 117.29ZM332.54 113.76C331.869 113.76 331.342 113.997 330.958 114.473C330.574 114.948 330.382 115.604 330.382 116.44C330.382 117.316 330.566 117.979 330.934 118.428C331.305 118.877 331.84 119.102 332.54 119.102C332.843 119.102 333.136 119.072 333.419 119.014C333.702 118.952 333.997 118.874 334.303 118.779V119.78C333.743 119.992 333.108 120.098 332.398 120.098C331.354 120.098 330.551 119.782 329.991 119.15C329.431 118.516 329.151 117.609 329.151 116.431C329.151 115.688 329.286 115.039 329.557 114.482C329.83 113.926 330.224 113.499 330.738 113.203C331.253 112.907 331.856 112.759 332.55 112.759C333.279 112.759 333.953 112.912 334.571 113.218L334.151 114.189C333.91 114.076 333.655 113.976 333.385 113.892C333.118 113.804 332.836 113.76 332.54 113.76Z" fill="#7B7D7E"/>
<rect x="74" y="94" width="32" height="10" fill="white"/>
<rect x="184" y="82.1562" width="32" height="22" fill="white"/>
<rect x="292" y="64" width="32" height="40" fill="white"/>
<rect x="508" y="30" width="32" height="74" fill="white"/>
<rect x="400" y="48" width="31.9993" height="56" fill="white"/>
<path d="M405.01 38.0137C405.01 38.4661 404.878 38.8438 404.614 39.1465C404.351 39.446 403.979 39.6478 403.501 39.752V39.791C404.074 39.8626 404.504 40.0417 404.79 40.3281C405.076 40.6113 405.22 40.9889 405.22 41.4609C405.22 42.1478 404.977 42.6784 404.492 43.0527C404.007 43.4238 403.317 43.6094 402.422 43.6094C401.631 43.6094 400.964 43.4808 400.42 43.2236V42.2031C400.723 42.3529 401.043 42.4684 401.382 42.5498C401.72 42.6312 402.046 42.6719 402.358 42.6719C402.912 42.6719 403.325 42.5693 403.599 42.3643C403.872 42.1592 404.009 41.8418 404.009 41.4121C404.009 41.0312 403.857 40.7513 403.555 40.5723C403.252 40.3932 402.777 40.3037 402.129 40.3037H401.509V39.3711H402.139C403.278 39.3711 403.848 38.9772 403.848 38.1895C403.848 37.8835 403.748 37.6475 403.55 37.4814C403.351 37.3154 403.058 37.2324 402.671 37.2324C402.401 37.2324 402.14 37.2715 401.89 37.3496C401.639 37.4245 401.343 37.5726 401.001 37.7939L400.439 36.9932C401.094 36.5114 401.854 36.2705 402.72 36.2705C403.439 36.2705 404.001 36.4251 404.404 36.7344C404.808 37.0436 405.01 37.4701 405.01 38.0137ZM411.391 43.5117H406.552V42.6426L408.393 40.792C408.937 40.2354 409.296 39.8415 409.472 39.6104C409.651 39.376 409.782 39.1562 409.863 38.9512C409.944 38.7461 409.985 38.5264 409.985 38.292C409.985 37.9697 409.887 37.7158 409.692 37.5303C409.5 37.3447 409.233 37.252 408.891 37.252C408.618 37.252 408.352 37.3024 408.095 37.4033C407.841 37.5042 407.547 37.6865 407.212 37.9502L406.591 37.1934C406.989 36.8581 407.374 36.6204 407.749 36.4805C408.123 36.3405 408.522 36.2705 408.945 36.2705C409.609 36.2705 410.141 36.4447 410.542 36.793C410.942 37.138 411.142 37.6035 411.142 38.1895C411.142 38.5117 411.084 38.8177 410.966 39.1074C410.852 39.3971 410.675 39.6966 410.434 40.0059C410.197 40.3118 409.799 40.7269 409.243 41.251L408.003 42.4521V42.501H411.391V43.5117ZM412.875 42.9014C412.875 42.6637 412.937 42.4814 413.061 42.3545C413.184 42.2275 413.363 42.1641 413.598 42.1641C413.835 42.1641 414.016 42.2308 414.14 42.3643C414.264 42.4945 414.325 42.6735 414.325 42.9014C414.325 43.1325 414.262 43.3164 414.135 43.4531C414.011 43.5866 413.832 43.6533 413.598 43.6533C413.363 43.6533 413.184 43.5866 413.061 43.4531C412.937 43.3197 412.875 43.1357 412.875 42.9014ZM420.658 39.9424C420.658 41.1826 420.458 42.1038 420.057 42.7061C419.66 43.3083 419.052 43.6094 418.231 43.6094C417.437 43.6094 416.835 43.2985 416.425 42.6768C416.014 42.055 415.809 41.1436 415.809 39.9424C415.809 38.6826 416.008 37.7549 416.405 37.1592C416.805 36.5602 417.414 36.2607 418.231 36.2607C419.029 36.2607 419.633 36.5732 420.043 37.1982C420.453 37.8232 420.658 38.738 420.658 39.9424ZM416.971 39.9424C416.971 40.9157 417.071 41.6107 417.269 42.0273C417.471 42.444 417.792 42.6523 418.231 42.6523C418.671 42.6523 418.991 42.4408 419.193 42.0176C419.398 41.5944 419.501 40.9027 419.501 39.9424C419.501 38.9854 419.398 38.2936 419.193 37.8672C418.991 37.4375 418.671 37.2227 418.231 37.2227C417.792 37.2227 417.471 37.4326 417.269 37.8525C417.071 38.2725 416.971 38.9691 416.971 39.9424ZM422.855 38.5117C422.855 38.9967 422.902 39.3581 422.996 39.5957C423.091 39.8333 423.246 39.9521 423.46 39.9521C423.89 39.9521 424.105 39.472 424.105 38.5117C424.105 37.5514 423.89 37.0713 423.46 37.0713C423.246 37.0713 423.091 37.1901 422.996 37.4277C422.902 37.6654 422.855 38.0267 422.855 38.5117ZM425.052 38.502C425.052 39.2507 424.917 39.8138 424.647 40.1914C424.38 40.5658 423.984 40.7529 423.46 40.7529C422.966 40.7529 422.581 40.5592 422.308 40.1719C422.038 39.7812 421.903 39.2246 421.903 38.502C421.903 37.0143 422.422 36.2705 423.46 36.2705C423.971 36.2705 424.364 36.4642 424.637 36.8516C424.914 37.2357 425.052 37.7858 425.052 38.502ZM427.503 41.3633C427.503 41.8483 427.551 42.2113 427.645 42.4521C427.743 42.693 427.899 42.8135 428.114 42.8135C428.54 42.8135 428.753 42.3301 428.753 41.3633C428.753 40.4095 428.54 39.9326 428.114 39.9326C427.899 39.9326 427.743 40.0498 427.645 40.2842C427.551 40.5186 427.503 40.8783 427.503 41.3633ZM429.701 41.3633C429.701 42.112 429.565 42.6735 429.295 43.0479C429.025 43.4222 428.631 43.6094 428.114 43.6094C427.619 43.6094 427.235 43.4173 426.961 43.0332C426.688 42.6458 426.551 42.0892 426.551 41.3633C426.551 39.8757 427.072 39.1318 428.114 39.1318C428.615 39.1318 429.004 39.3239 429.281 39.708C429.561 40.0921 429.701 40.6439 429.701 41.3633ZM428.25 36.373L424.29 43.5117H423.343L427.303 36.373H428.25Z" fill="#575A5C"/>
<path d="M398.352 168.808V167.831H400.861V168.808H398.352ZM406.901 171H402.062V170.131L403.903 168.28C404.447 167.724 404.806 167.33 404.982 167.099C405.161 166.864 405.291 166.645 405.373 166.439C405.454 166.234 405.495 166.015 405.495 165.78C405.495 165.458 405.397 165.204 405.202 165.019C405.01 164.833 404.743 164.74 404.401 164.74C404.128 164.74 403.862 164.791 403.605 164.892C403.351 164.993 403.057 165.175 402.721 165.438L402.101 164.682C402.498 164.346 402.884 164.109 403.258 163.969C403.633 163.829 404.032 163.759 404.455 163.759C405.119 163.759 405.651 163.933 406.051 164.281C406.452 164.626 406.652 165.092 406.652 165.678C406.652 166 406.593 166.306 406.476 166.596C406.362 166.885 406.185 167.185 405.944 167.494C405.706 167.8 405.309 168.215 404.753 168.739L403.512 169.94V169.989H406.901V171ZM413.014 167.431C413.014 168.671 412.814 169.592 412.413 170.194C412.016 170.797 411.407 171.098 410.587 171.098C409.793 171.098 409.191 170.787 408.78 170.165C408.37 169.543 408.165 168.632 408.165 167.431C408.165 166.171 408.364 165.243 408.761 164.647C409.161 164.049 409.77 163.749 410.587 163.749C411.385 163.749 411.988 164.062 412.399 164.687C412.809 165.312 413.014 166.226 413.014 167.431ZM409.327 167.431C409.327 168.404 409.427 169.099 409.625 169.516C409.827 169.932 410.148 170.141 410.587 170.141C411.027 170.141 411.347 169.929 411.549 169.506C411.754 169.083 411.857 168.391 411.857 167.431C411.857 166.474 411.754 165.782 411.549 165.355C411.347 164.926 411.027 164.711 410.587 164.711C410.148 164.711 409.827 164.921 409.625 165.341C409.427 165.761 409.327 166.457 409.327 167.431ZM414.498 170.39C414.498 170.152 414.56 169.97 414.683 169.843C414.807 169.716 414.986 169.652 415.221 169.652C415.458 169.652 415.639 169.719 415.762 169.853C415.886 169.983 415.948 170.162 415.948 170.39C415.948 170.621 415.885 170.805 415.758 170.941C415.634 171.075 415.455 171.142 415.221 171.142C414.986 171.142 414.807 171.075 414.683 170.941C414.56 170.808 414.498 170.624 414.498 170.39ZM420.811 171H419.663V166.391C419.663 165.84 419.676 165.404 419.703 165.082C419.628 165.16 419.535 165.246 419.424 165.341C419.317 165.435 418.952 165.735 418.33 166.239L417.754 165.512L419.854 163.861H420.811V171ZM424.478 166C424.478 166.485 424.525 166.846 424.619 167.084C424.714 167.322 424.868 167.44 425.083 167.44C425.513 167.44 425.728 166.96 425.728 166C425.728 165.04 425.513 164.56 425.083 164.56C424.868 164.56 424.714 164.678 424.619 164.916C424.525 165.154 424.478 165.515 424.478 166ZM426.675 165.99C426.675 166.739 426.54 167.302 426.27 167.68C426.003 168.054 425.607 168.241 425.083 168.241C424.588 168.241 424.204 168.048 423.931 167.66C423.66 167.27 423.525 166.713 423.525 165.99C423.525 164.503 424.045 163.759 425.083 163.759C425.594 163.759 425.986 163.952 426.26 164.34C426.536 164.724 426.675 165.274 426.675 165.99ZM429.126 168.852C429.126 169.337 429.173 169.7 429.268 169.94C429.365 170.181 429.521 170.302 429.736 170.302C430.163 170.302 430.376 169.818 430.376 168.852C430.376 167.898 430.163 167.421 429.736 167.421C429.521 167.421 429.365 167.538 429.268 167.772C429.173 168.007 429.126 168.367 429.126 168.852ZM431.323 168.852C431.323 169.6 431.188 170.162 430.918 170.536C430.648 170.91 430.254 171.098 429.736 171.098C429.242 171.098 428.857 170.906 428.584 170.521C428.311 170.134 428.174 169.577 428.174 168.852C428.174 167.364 428.695 166.62 429.736 166.62C430.238 166.62 430.627 166.812 430.903 167.196C431.183 167.58 431.323 168.132 431.323 168.852ZM429.873 163.861L425.913 171H424.966L428.926 163.861H429.873Z" fill="#575A5C"/>
<rect x="382" y="110" width="68" height="13" fill="#F6F6F6"/>
<path d="M393.669 115.02C393.669 115.765 393.425 116.336 392.937 116.733C392.448 117.131 391.753 117.329 390.852 117.329H390.109V120H388.942V112.861H390.998C391.89 112.861 392.557 113.044 393 113.408C393.446 113.773 393.669 114.31 393.669 115.02ZM390.109 116.348H390.729C391.328 116.348 391.768 116.243 392.048 116.035C392.328 115.827 392.468 115.501 392.468 115.059C392.468 114.648 392.342 114.342 392.092 114.141C391.841 113.939 391.451 113.838 390.92 113.838H390.109V116.348ZM400.163 117.29C400.163 118.172 399.936 118.861 399.484 119.355C399.032 119.85 398.402 120.098 397.594 120.098C397.09 120.098 396.644 119.984 396.256 119.756C395.869 119.528 395.571 119.201 395.363 118.774C395.155 118.348 395.05 117.853 395.05 117.29C395.05 116.414 395.275 115.731 395.724 115.239C396.173 114.748 396.807 114.502 397.624 114.502C398.405 114.502 399.023 114.754 399.479 115.259C399.935 115.76 400.163 116.437 400.163 117.29ZM396.232 117.29C396.232 118.537 396.693 119.16 397.614 119.16C398.525 119.16 398.981 118.537 398.981 117.29C398.981 116.056 398.522 115.439 397.604 115.439C397.122 115.439 396.772 115.599 396.554 115.918C396.339 116.237 396.232 116.694 396.232 117.29ZM404.625 114.502C404.856 114.502 405.047 114.518 405.196 114.551L405.084 115.62C404.921 115.581 404.752 115.562 404.576 115.562C404.117 115.562 403.745 115.711 403.458 116.011C403.175 116.31 403.033 116.699 403.033 117.178V120H401.886V114.6H402.784L402.936 115.552H402.994C403.173 115.229 403.406 114.974 403.693 114.785C403.982 114.596 404.293 114.502 404.625 114.502ZM408.614 119.17C408.894 119.17 409.174 119.126 409.454 119.038V119.902C409.327 119.958 409.163 120.003 408.961 120.039C408.762 120.078 408.555 120.098 408.341 120.098C407.253 120.098 406.71 119.525 406.71 118.379V115.469H405.972V114.961L406.763 114.541L407.154 113.398H407.862V114.6H409.4V115.469H407.862V118.359C407.862 118.636 407.93 118.841 408.067 118.975C408.207 119.105 408.389 119.17 408.614 119.17ZM413.648 115.469H412.329V120H411.177V115.469H410.288V114.932L411.177 114.58V114.229C411.177 113.59 411.327 113.118 411.626 112.812C411.926 112.503 412.383 112.349 412.998 112.349C413.402 112.349 413.799 112.415 414.19 112.549L413.887 113.418C413.604 113.327 413.334 113.281 413.077 113.281C412.816 113.281 412.626 113.363 412.505 113.525C412.388 113.685 412.329 113.926 412.329 114.248V114.6H413.648V115.469ZM419.761 117.29C419.761 118.172 419.535 118.861 419.082 119.355C418.63 119.85 418 120.098 417.192 120.098C416.688 120.098 416.242 119.984 415.854 119.756C415.467 119.528 415.169 119.201 414.961 118.774C414.753 118.348 414.648 117.853 414.648 117.29C414.648 116.414 414.873 115.731 415.322 115.239C415.771 114.748 416.405 114.502 417.222 114.502C418.003 114.502 418.621 114.754 419.077 115.259C419.533 115.76 419.761 116.437 419.761 117.29ZM415.83 117.29C415.83 118.537 416.291 119.16 417.212 119.16C418.123 119.16 418.579 118.537 418.579 117.29C418.579 116.056 418.12 115.439 417.202 115.439C416.72 115.439 416.37 115.599 416.152 115.918C415.938 116.237 415.83 116.694 415.83 117.29ZM422.631 120H421.484V112.402H422.631V120ZM425.824 120H424.677V114.6H425.824V120ZM424.609 113.169C424.609 112.964 424.664 112.806 424.775 112.695C424.889 112.585 425.05 112.529 425.258 112.529C425.46 112.529 425.616 112.585 425.727 112.695C425.841 112.806 425.898 112.964 425.898 113.169C425.898 113.364 425.841 113.519 425.727 113.633C425.616 113.743 425.46 113.799 425.258 113.799C425.05 113.799 424.889 113.743 424.775 113.633C424.664 113.519 424.609 113.364 424.609 113.169ZM432.66 117.29C432.66 118.172 432.434 118.861 431.981 119.355C431.529 119.85 430.899 120.098 430.092 120.098C429.587 120.098 429.141 119.984 428.754 119.756C428.366 119.528 428.068 119.201 427.86 118.774C427.652 118.348 427.548 117.853 427.548 117.29C427.548 116.414 427.772 115.731 428.221 115.239C428.671 114.748 429.304 114.502 430.121 114.502C430.902 114.502 431.521 114.754 431.976 115.259C432.432 115.76 432.66 116.437 432.66 117.29ZM428.729 117.29C428.729 118.537 429.19 119.16 430.111 119.16C431.023 119.16 431.478 118.537 431.478 117.29C431.478 116.056 431.019 115.439 430.101 115.439C429.62 115.439 429.27 115.599 429.052 115.918C428.837 116.237 428.729 116.694 428.729 117.29ZM443.309 116.362C443.309 117.541 442.981 118.442 442.327 119.067C441.673 119.689 440.73 120 439.5 120H437.503V112.861H439.71C440.846 112.861 441.73 113.167 442.361 113.779C442.993 114.391 443.309 115.252 443.309 116.362ZM442.078 116.401C442.078 114.692 441.279 113.838 439.681 113.838H438.67V119.019H439.5C441.219 119.019 442.078 118.146 442.078 116.401Z" fill="#7B7D7E"/>
<rect x="490" y="110" width="68" height="13" fill="#F6F6F6"/>
<path d="M502.669 115.02C502.669 115.765 502.425 116.336 501.937 116.733C501.448 117.131 500.753 117.329 499.852 117.329H499.109V120H497.942V112.861H499.998C500.89 112.861 501.557 113.044 502 113.408C502.446 113.773 502.669 114.31 502.669 115.02ZM499.109 116.348H499.729C500.328 116.348 500.768 116.243 501.048 116.035C501.328 115.827 501.468 115.501 501.468 115.059C501.468 114.648 501.342 114.342 501.092 114.141C500.841 113.939 500.451 113.838 499.92 113.838H499.109V116.348ZM509.163 117.29C509.163 118.172 508.936 118.861 508.484 119.355C508.032 119.85 507.402 120.098 506.594 120.098C506.09 120.098 505.644 119.984 505.256 119.756C504.869 119.528 504.571 119.201 504.363 118.774C504.155 118.348 504.05 117.853 504.05 117.29C504.05 116.414 504.275 115.731 504.724 115.239C505.173 114.748 505.807 114.502 506.624 114.502C507.405 114.502 508.023 114.754 508.479 115.259C508.935 115.76 509.163 116.437 509.163 117.29ZM505.232 117.29C505.232 118.537 505.693 119.16 506.614 119.16C507.525 119.16 507.981 118.537 507.981 117.29C507.981 116.056 507.522 115.439 506.604 115.439C506.122 115.439 505.772 115.599 505.554 115.918C505.339 116.237 505.232 116.694 505.232 117.29ZM513.625 114.502C513.856 114.502 514.047 114.518 514.196 114.551L514.084 115.62C513.921 115.581 513.752 115.562 513.576 115.562C513.117 115.562 512.745 115.711 512.458 116.011C512.175 116.31 512.033 116.699 512.033 117.178V120H510.886V114.6H511.784L511.936 115.552H511.994C512.173 115.229 512.406 114.974 512.693 114.785C512.982 114.596 513.293 114.502 513.625 114.502ZM517.614 119.17C517.894 119.17 518.174 119.126 518.454 119.038V119.902C518.327 119.958 518.163 120.003 517.961 120.039C517.762 120.078 517.555 120.098 517.341 120.098C516.253 120.098 515.71 119.525 515.71 118.379V115.469H514.972V114.961L515.763 114.541L516.154 113.398H516.862V114.6H518.4V115.469H516.862V118.359C516.862 118.636 516.93 118.841 517.067 118.975C517.207 119.105 517.389 119.17 517.614 119.17ZM522.648 115.469H521.329V120H520.177V115.469H519.288V114.932L520.177 114.58V114.229C520.177 113.59 520.327 113.118 520.626 112.812C520.926 112.503 521.383 112.349 521.998 112.349C522.402 112.349 522.799 112.415 523.19 112.549L522.887 113.418C522.604 113.327 522.334 113.281 522.077 113.281C521.816 113.281 521.626 113.363 521.505 113.525C521.388 113.685 521.329 113.926 521.329 114.248V114.6H522.648V115.469ZM528.761 117.29C528.761 118.172 528.535 118.861 528.082 119.355C527.63 119.85 527 120.098 526.192 120.098C525.688 120.098 525.242 119.984 524.854 119.756C524.467 119.528 524.169 119.201 523.961 118.774C523.753 118.348 523.648 117.853 523.648 117.29C523.648 116.414 523.873 115.731 524.322 115.239C524.771 114.748 525.405 114.502 526.222 114.502C527.003 114.502 527.621 114.754 528.077 115.259C528.533 115.76 528.761 116.437 528.761 117.29ZM524.83 117.29C524.83 118.537 525.291 119.16 526.212 119.16C527.123 119.16 527.579 118.537 527.579 117.29C527.579 116.056 527.12 115.439 526.202 115.439C525.72 115.439 525.37 115.599 525.152 115.918C524.938 116.237 524.83 116.694 524.83 117.29ZM531.631 120H530.484V112.402H531.631V120ZM534.824 120H533.677V114.6H534.824V120ZM533.609 113.169C533.609 112.964 533.664 112.806 533.775 112.695C533.889 112.585 534.05 112.529 534.258 112.529C534.46 112.529 534.616 112.585 534.727 112.695C534.841 112.806 534.898 112.964 534.898 113.169C534.898 113.364 534.841 113.519 534.727 113.633C534.616 113.743 534.46 113.799 534.258 113.799C534.05 113.799 533.889 113.743 533.775 113.633C533.664 113.519 533.609 113.364 533.609 113.169ZM541.66 117.29C541.66 118.172 541.434 118.861 540.981 119.355C540.529 119.85 539.899 120.098 539.092 120.098C538.587 120.098 538.141 119.984 537.754 119.756C537.366 119.528 537.068 119.201 536.86 118.774C536.652 118.348 536.548 117.853 536.548 117.29C536.548 116.414 536.772 115.731 537.221 115.239C537.671 114.748 538.304 114.502 539.121 114.502C539.902 114.502 540.521 114.754 540.976 115.259C541.432 115.76 541.66 116.437 541.66 117.29ZM537.729 117.29C537.729 118.537 538.19 119.16 539.111 119.16C540.023 119.16 540.478 118.537 540.478 117.29C540.478 116.056 540.019 115.439 539.101 115.439C538.62 115.439 538.27 115.599 538.052 115.918C537.837 116.237 537.729 116.694 537.729 117.29ZM550.541 120H546.503V112.861H550.541V113.848H547.67V115.791H550.36V116.768H547.67V119.009H550.541V120Z" fill="#7B7D7E"/>
<rect x="76" y="94" width="32" height="10" fill="#72CAA5"/>
<rect x="184" y="82.1562" width="32" height="22" fill="#72CAA5"/>
<rect x="292" y="64" width="32" height="40" fill="#72CAA5"/>
<rect x="508" y="30" width="32" height="74" fill="#72CAA5"/>
<rect x="400" y="48" width="31.9993" height="56" fill="#72CAA5"/>
<rect x="76" y="129" width="32" height="1.4" fill="white"/>
<rect x="184" y="129" width="32" height="8" fill="white"/>
<rect x="292" y="129" width="32" height="20" fill="white"/>
<rect x="508" y="129" width="32" height="40" fill="white"/>
<rect x="400" y="129" width="31.9993" height="30" fill="white"/>
<rect x="76" y="129" width="32" height="1.4" fill="#FF896E"/>
<rect x="184" y="129" width="32" height="8" fill="#FF896E"/>
<rect x="292" y="129" width="32" height="20" fill="#FF896E"/>
<rect x="508" y="129" width="32" height="40" fill="#FF896E"/>
<rect x="400" y="129" width="31.9993" height="30" fill="#FF896E"/>
</svg>
