<svg width="106" height="120" viewBox="0 0 106 120" fill="none" xmlns="http://www.w3.org/2000/svg">
    <g opacity=".3">
        <mask id="zw3wpuc4da" style="mask-type:alpha" maskUnits="userSpaceOnUse" x="0" y="109" width="72" height="10">
            <path fill-rule="evenodd" clip-rule="evenodd" d="M.438 109.505h71.17v8.813H.439v-8.813z" fill="#fff"/>
        </mask>
        <g mask="url(#zw3wpuc4da)">
            <path fill-rule="evenodd" clip-rule="evenodd" d="M12.683 113.21s-12.267-.026-12.245.642c.074 2.237 9.721.927 10.514 1.599.388.33-.041 1.048.643 1.512 2.727 1.848 12.21.171 15.597.184 9.224.037 11.56.868 12.63.975 3.005.299 11.508.182 13.9.124 4.923-.121 18.162.371 17.883-1.518-.125-.847-12.839-2.636-15.002-2.865-1.853-.195-3.125-1.372-4.786-2.063-2.325-.968-4.877-1.552-7.387-1.92-10.52-1.54-21.302 2.073-31.747 3.33" fill="#333739"/>
        </g>
    </g>
    <path fill-rule="evenodd" clip-rule="evenodd" d="M24.53 38.877s1.41 4.657 4.655 4.461c2.781-.168 6.208-6.547 6.208-6.547L24.53 38.877z" fill="#F66"/>
    <path d="m21.005 110.748-1.714 1.682 1.714 1.121 3.714-1.401.285-3.926-2.57-.56-1.429 3.084z" fill="#FFDDC5"/>
    <path fill-rule="evenodd" clip-rule="evenodd" d="m22.146 107.944 2.857.841s7.975-9.172 9.763-19.336c.32-1.815.383-3.59.092-5.253 0 0 .118-.462.324-1.28l.026-.11c.091-.358.2-.78.319-1.258.39-1.543.927-3.655 1.539-6.06 1.41-5.533 4.645-18.016 6.037-23.21L30.52 48.663s-1.202 3.202-2.676 11.798a63.878 63.878 0 0 0-.677 3.718 69.141 69.141 0 0 0-.578 4.996 74.327 74.327 0 0 0-.098 10.193c.088 1.517.225 3.087.42 4.704.142 1.185.062 2.781-.164 4.605-1.03 8.34-4.602 19.266-4.602 19.266z" fill="#333739"/>
    <path d="m25.151 114.226-9.95.6c.084-1.854 4.09-2.396 4.09-2.396 4.285 1.122 5.414-.795 5.414-.795.72 1.017.447 2.591.447 2.591z" fill="#333739"/>
    <path fill-rule="evenodd" clip-rule="evenodd" d="m26.59 69.176 8.62 13.63.317-1.258c.39-1.543.928-3.655 1.54-6.06 1.41-5.533 4.645-18.016 6.036-23.212L30.52 48.664s-1.202 3.202-2.675 11.798a63.76 63.76 0 0 0-.678 3.718 69.602 69.602 0 0 0-.578 4.996z" fill="#333739"/>
    <path d="m43.573 111.309 2.856-.281v-5.047h-3.142l.286 5.328z" fill="#FFDDC5"/>
    <path fill-rule="evenodd" clip-rule="evenodd" d="M46.935 109.853s.793 1.611.232 3.045l-5.412.326s-.191-1.25 1.68-2.825c1.419-1.194 3.5-.546 3.5-.546" fill="#333739"/>
    <path fill-rule="evenodd" clip-rule="evenodd" d="M35.629 26.28c1.07.634 2.395 1.131 4.034 1.398 6.146 1.004 8.152-4.146 8.807-7.637-.855-.412-1.64-.467-2.091-.492a20.11 20.11 0 0 0-1.287-.026c-.713-.469-1.858-2.494-2.286-5.72l-.281.093-4.695 1.566s.312 1.472.509 2.869c.152 1.093.23 2.142.034 2.411-.367.102-.588.167-.588.167l-.002.005c-.058.107-1.302 2.419-2.154 5.365" fill="#FFDDC5"/>
    <path opacity=".1" fill-rule="evenodd" clip-rule="evenodd" d="M37.83 15.463s.313 1.47.509 2.869c2.688-.428 3.785-3.024 4.187-4.435l-4.696 1.566z" fill="#333739"/>
    <path fill-rule="evenodd" clip-rule="evenodd" d="M37.914 17.695s6.13-1.942 4.835-5.658c-1.294-3.715-1.375-6.468-5.344-5.385-3.969 1.082-4.232 2.753-4.107 4.095.123 1.343 2.988 7.357 4.616 6.948M36.306 20.683s10.304-3.116 15.085.28l-.318 31.148-20.764-3.6s.451-1.997 4.046-7.453c3.594-5.454 1.405-13.005 1.95-20.375" fill="#FFDDC5"/>
    <path fill-rule="evenodd" clip-rule="evenodd" d="m35.86 49.503.05.288c.016.08.034.18.055.294.137.759.398 2.213.736 4.106.885 4.963 2.284 12.935 3.294 19.234.79 4.924 1.343 8.826 1.225 9.464-.355 1.92 1.613 24.529 1.613 24.529 1.77.674 4.33-.252 4.33-.252s3.244-20.662 2.416-23.46c-.828-2.798.083-5.28.083-5.28 2.538-15.766 1.581-24.367.602-28.454-.284-1.19-.57-1.996-.774-2.486a5.067 5.067 0 0 0-.284-.606c-7.983-1.528-13.347 2.623-13.347 2.623" fill="#333739"/>
    <path fill-rule="evenodd" clip-rule="evenodd" d="M53.358 29.723c-.27 3.76-2.003 8.448-2.57 10.949 0 0 1.745 8.458.741 10.87-.113.276-.264.473-.457.568-4.152 2.076-20.877 1.313-21.909-3.887-.375-1.889 5.472-9.162 5.805-9.998.138-.346.068-.557.075-1.262-.886 3.365-7.938 2.139-7.938 2.139.634-1.229 2.399-11.121 4.136-14.944 1.307-2.874 5.24-3.517 5.24-3.517s1.808 2.457 5.768 1.854c3.96-.603 4.539-3.033 4.539-3.033s3.563.247 4.705 1.04c.198.138 2.218 4.292 1.864 9.22" fill="#F66"/>
    <path fill-rule="evenodd" clip-rule="evenodd" d="M50.789 40.672s1.744 8.459.74 10.871c-3.204-1.339-5.914-5.319-5.639-9.952.204-3.425.776-4.237 2.513-6.295 1.276-1.511 4.43-1.783 4.225-1.088-.609 2.07-1.54 5.143-1.84 6.464" fill="#F66"/>
    <path fill-rule="evenodd" clip-rule="evenodd" d="M59.63 36.661c-.487.443-1.412 2.782-1.877 3.115-2.09 1.493-12.65 1.652-12.65 1.652l-.228-2.076s9.816-2.2 10.798-2.804c.185-.113.73-2.275 1.062-2.65l2.895 2.763z" fill="#FFDDC5"/>
    <mask id="lmx0puypqb" style="mask-type:alpha" maskUnits="userSpaceOnUse" x="46" y="19" width="15" height="24">
        <path fill-rule="evenodd" clip-rule="evenodd" d="M46.605 19.463H60.4V42.89H46.605V19.463z" fill="#fff"/>
    </mask>
    <g mask="url(#lmx0puypqb)">
        <path fill-rule="evenodd" clip-rule="evenodd" d="M46.788 19.463s5.169.286 6.717 2.352c1.958 2.614 6.858 13.198 6.894 15.937 0 0-2.759 5.317-13.38 5.134 0 0-1.34-3.733.804-5.121 0 0 5.37-1.273 5.961-1.849l-4.922-7.601-2.074-8.852z" fill="#F66"/>
    </g>
    <path fill-rule="evenodd" clip-rule="evenodd" d="M27.308 36.306c-.198-.623-1.584-.142-2.035.25-.11.095-.225.253-.335.438a5.294 5.294 0 0 1-.053-.285c-.046-.295-.433-.806-.496-.403-.063.405-.102 2.087-.102 2.087.068 1.349.99 1.852 1.53 1.379.542-.474 1.69-2.843 1.491-3.466" fill="#FFDDC5"/>
    <path fill-rule="evenodd" clip-rule="evenodd" d="M40.672 3.92c.02-2.358 1.508-3.292 3.51-3.824 1.997-.54 4.238 1.356 4.413 1.545 2.065 2.225 2.505 5.466 1.156 8.17-.148.3-.293.6-.434.889-.782 1.608 2.491 1.057 2.491 1.057-5.218 3.092-6.758-2.816-6.883-3.344-2.079.21-4.271-2.3-4.253-4.492" fill="#333739"/>
    <path fill-rule="evenodd" clip-rule="evenodd" d="M39.65 9.073a.98.98 0 0 0 1.361-.07l2.54-2.744a.93.93 0 0 0-.073-1.332.98.98 0 0 0-1.362.07L39.578 7.74a.927.927 0 0 0 .072 1.332" fill="#F66"/>
    <path fill-rule="evenodd" clip-rule="evenodd" d="M33.031 12.37c-.65-1.315-.915-2.615-.498-3.762.042-.186.13-.37.277-.576.44-.735 1.22-1.399 2.429-1.936a.185.185 0 0 1 .078-.016c.197-.072.398-.14.596-.19.102-.034.213-.057.33-.075.385-.079.762-.114 1.125-.127 3.23-.184 5.302 1.323 5.54 4.687.125 1.73-.437 2.586-1.205 2.963l-.444-.866c-.009-.17.132-.167.132-.167.94-.187 1.107-.755.893-1.704-.107-.458-.345-.726-.66-.784-.006-.004-.014-.001-.024-.004l-.035-.007c-.01-.002-.017.002-.027-.001-.014-.002-.025-.004-.043-.004-.003.002-.013 0-.021.003-.013 0-.032 0-.039.004-.004.001-.014-.002-.02.002-.02.001-.03.006-.047.007-.004.002-.004.002-.015 0a.976.976 0 0 0-.246.081l-.008.004-.06.029-.01.005-.06.03c-.004 0-.004 0-.01.005-.019.009-.042.028-.064.038l-.004.002c-.09.06-.186.139-.278.223-.061.054.005.06-.055.13l-.201.082c-.063.031-.137.059-.213.088-1.775.627-4.983.73-6.68-.325-.256 1.1.454 2.661 1.24 3.895-.71-.415-1.302-.98-1.673-1.733" fill="#333739"/>
    <path fill-rule="evenodd" clip-rule="evenodd" d="m35.633 42.11-.516.672-1.377-.294.473-.723 1.42.345zM33.05 41.52v-.336l.533.166.092.673-.624-.502z" fill="#FFDDC5"/>
    <path fill-rule="evenodd" clip-rule="evenodd" d="M45.184 39.81c4.558-4.913 4.172-12.498-.863-16.943-5.034-4.444-12.81-4.065-17.367.847-4.557 4.913-4.171 12.498.864 16.942 5.034 4.445 12.81 4.066 17.366-.846" fill="#FFAB00"/>
    <path opacity=".5" fill-rule="evenodd" clip-rule="evenodd" d="M43.72 38.515c3.823-4.122 3.497-10.487-.728-14.217-4.223-3.728-10.747-3.41-14.571.711-3.824 4.123-3.5 10.487.724 14.217 4.224 3.73 10.749 3.411 14.574-.71" fill="#fff"/>
    <path fill-rule="evenodd" clip-rule="evenodd" d="m38.154 38.642-.653-1.555a8.567 8.567 0 0 1-2.156.455 1.066 1.066 0 0 1-.735-.226 1.015 1.015 0 0 1-.379-.654l-.01-.064a1.007 1.007 0 0 1 .226-.788c.09-.11.204-.199.333-.263a1.08 1.08 0 0 1 .412-.111 6.22 6.22 0 0 0 1.948-.42c.957-.383 1.46-1.005 1.185-1.66-.26-.621-.962-.798-2.376-.712-2.043.129-3.611-.2-4.278-1.788-.604-1.44-.038-2.985 1.613-4.047l-.653-1.554 1.644-.657.605 1.44a7.892 7.892 0 0 1 1.621-.397c.274-.034.55.04.768.203a1.018 1.018 0 0 1 .374 1.078 1.036 1.036 0 0 1-.505.628 1.062 1.062 0 0 1-.399.122 5.677 5.677 0 0 0-1.56.386c-1.09.436-1.249 1.035-1.059 1.492.228.54.958.65 2.604.603 2.285-.112 3.47.467 4.087 1.94.612 1.456.077 3.123-1.715 4.222l.7 1.67-1.642.657z" fill="#fff"/>
    <path fill-rule="evenodd" clip-rule="evenodd" d="M45.923 39.228s-1.495-1.047-2.44-.733c-.947.315-2.287 1.59-2.796 1.904-.507.313-1.871 1.407-1.109 1.973.762.566 2.982-.094 3.846-.615.862-.52 2.256-.445 2.256-.445l.243-2.084z" fill="#FFDDC5"/>
    <path fill-rule="evenodd" clip-rule="evenodd" d="M43.752 38.442s-1.743-.097-2.215-.06c-.471.038-.337.132-.053.475.282.342 1.192.426 1.242.548.049.124 1.026-.963 1.026-.963zM27.308 36.306c-.198-.623-1.584-.142-2.035.25-.11.095-.225.253-.335.438a5.294 5.294 0 0 1-.053-.285c-.046-.295-.433-.806-.496-.403-.063.405-.102 2.087-.102 2.087.068 1.349.99 1.852 1.53 1.379.542-.474 1.69-2.843 1.491-3.466" fill="#FFDDC5"/>
    <path fill-rule="evenodd" clip-rule="evenodd" d="M84.766 97.97c.59 1.263 2.15 1.906 3.572 1.776 1.422-.129 2.706-.894 3.78-1.807 1.074-.912 1.994-1.987 3.057-2.911 1.097-.955 2.37-1.758 3.798-2.11 1.427-.354 3.021-.218 4.25.572 1.227.79 2 2.288 1.704 3.69-.079.372-.313.793-.704.805-.483.013-.701-.557-.969-.946-.494-.718-1.516-.97-2.375-.75-.859.218-1.565.825-2.095 1.518-.53.692-.913 1.478-1.36 2.224a15.67 15.67 0 0 1-5.415 5.379c-1.824 1.083-3.998 1.812-6.094 1.403a5.972 5.972 0 0 1-3.594-2.234 5.658 5.658 0 0 1-1.098-4.006l3.543-2.603z" fill="#EF3D42"/>
    <mask id="ngmzdr77oc" style="mask-type:alpha" maskUnits="userSpaceOnUse" x="81" y="92" width="24" height="15">
        <path fill-rule="evenodd" clip-rule="evenodd" d="M103.222 93.49c1.229.79 2.001 2.287 1.705 3.689-.079.373-.312.794-.704.805-.482.014-.701-.556-.969-.945-.494-.718-1.515-.97-2.375-.751-.859.218-1.565.825-2.095 1.519-.53.692-.913 1.477-1.36 2.223a15.638 15.638 0 0 1-5.415 5.379c-1.824 1.084-3.998 1.813-6.094 1.404a5.98 5.98 0 0 1-3.595-2.234 5.662 5.662 0 0 1-1.097-4.006l3.543-2.604c.59 1.263 2.15 1.906 3.572 1.777 1.422-.13 2.705-.894 3.78-1.807 1.075-.913 1.993-1.987 3.057-2.912 1.097-.954 2.371-1.756 3.798-2.11a6.232 6.232 0 0 1 1.498-.184c.975 0 1.943.237 2.751.757z" fill="#fff"/>
    </mask>
    <g mask="url(#ngmzdr77oc)">
        <path fill-rule="evenodd" clip-rule="evenodd" d="M87.687 99.99c1.383.669 3.096.163 4.334-.735 1.238-.897 2.161-2.136 3.278-3.173a12.79 12.79 0 0 1 6.892-3.252c-2.24-1.117-5.126-.882-7.143.584-1.334.968-2.253 2.377-3.47 3.48a9.787 9.787 0 0 1-4.975 2.383l.29.348.794.365z" fill="#F26F5C"/>
    </g>
    <mask id="yrh9vokhhd" style="mask-type:alpha" maskUnits="userSpaceOnUse" x="81" y="92" width="24" height="15">
        <path fill-rule="evenodd" clip-rule="evenodd" d="M103.222 93.49c1.229.79 2.001 2.287 1.705 3.689-.079.373-.312.794-.704.805-.482.014-.701-.556-.969-.945-.494-.718-1.515-.97-2.375-.751-.859.218-1.565.825-2.095 1.519-.53.692-.913 1.477-1.36 2.223a15.638 15.638 0 0 1-5.415 5.379c-1.824 1.084-3.998 1.813-6.094 1.404a5.98 5.98 0 0 1-3.595-2.234 5.662 5.662 0 0 1-1.097-4.006l3.543-2.604c.59 1.263 2.15 1.906 3.572 1.777 1.422-.13 2.705-.894 3.78-1.807 1.075-.913 1.993-1.987 3.057-2.912 1.097-.954 2.371-1.756 3.798-2.11a6.232 6.232 0 0 1 1.498-.184c.975 0 1.943.237 2.751.757" fill="#fff"/>
    </mask>
    <g mask="url(#yrh9vokhhd)">
        <path fill-rule="evenodd" clip-rule="evenodd" d="M90.804 102.789c1.773-.477 3.232-1.717 4.39-3.105.797-.956 1.485-2 2.371-2.878.886-.877 2.023-1.597 3.286-1.678 1.263-.081 2.629.631 2.969 1.816.337-1.12-.211-2.357-1.093-3.15-.881-.794-2.042-1.223-3.192-1.561a5.7 5.7 0 0 1 3.783.686 5.44 5.44 0 0 1 2.4 2.922c.286.85.303 1.893-.354 2.518-.522.496-1.321.585-2.05.56-.73-.028-1.476-.141-2.18.048-.762.205-1.385.748-1.861 1.363-.475.615-.828 1.308-1.245 1.962-2.102 3.292-5.954 5.465-9.94 5.606-1.403.05-2.911-.18-3.94-1.109-.929-.838-1.316-2.201-.96-3.384a3.385 3.385 0 0 1 1.512-1.904c.713-.414.96-.186 1.5.298 1.234 1.101 3.002 1.421 4.604.99" fill="#CD202C"/>
    </g>
    <path clip-rule="evenodd" d="M84.766 97.97c.59 1.263 2.15 1.906 3.572 1.776 1.422-.129 2.706-.894 3.78-1.807 1.074-.912 1.994-1.987 3.057-2.911 1.097-.955 2.37-1.758 3.798-2.11 1.427-.354 3.021-.218 4.25.572 1.227.79 2 2.288 1.704 3.69-.079.372-.313.793-.704.805-.483.013-.701-.557-.969-.946-.494-.718-1.516-.97-2.375-.75-.859.218-1.565.825-2.095 1.518-.53.692-.913 1.478-1.36 2.224a15.67 15.67 0 0 1-5.415 5.379c-1.824 1.083-3.998 1.812-6.094 1.403a5.972 5.972 0 0 1-3.594-2.234 5.658 5.658 0 0 1-1.098-4.006l3.543-2.603z" stroke="#000" stroke-width=".267"/>
    <path fill-rule="evenodd" clip-rule="evenodd" d="M80.815 105.209a9.602 9.602 0 0 0 3.917 3.627 9.96 9.96 0 0 0 5.31 1.012c2.314-.203 4.589-1.215 6.88-.839-.631 1.142-.33 2.63.766 3.369 1.095.738 2.67.652 3.749-.108 1.079-.761 1.648-2.108 1.557-3.401-.09-1.291-.794-2.507-1.801-3.356-1.007-.849-2.296-1.348-3.613-1.541-2.901-.426-5.974.553-8.748-.375a6.491 6.491 0 0 1-3.533-2.864 6.186 6.186 0 0 1-.679-4.42l-3.805 8.896z" fill="#EF3D42"/>
    <mask id="df49lkur6e" style="mask-type:alpha" maskUnits="userSpaceOnUse" x="80" y="96" width="24" height="17">
        <path fill-rule="evenodd" clip-rule="evenodd" d="M85.3 100.733c.767 1.329 2.05 2.367 3.531 2.864 1.599.534 3.294.436 5 .338 1.256-.073 2.518-.144 3.748.036 1.32.193 2.607.692 3.614 1.542 1.006.849 1.711 2.064 1.801 3.356.091 1.292-.479 2.641-1.558 3.401-1.078.76-2.653.845-3.749.107-1.095-.738-1.396-2.227-.765-3.368-2.29-.376-4.567.636-6.88.839a9.978 9.978 0 0 1-5.31-1.012 9.597 9.597 0 0 1-3.917-3.627l3.805-8.896a6.183 6.183 0 0 0 .68 4.42" fill="#fff"/>
    </mask>
    <g mask="url(#df49lkur6e)">
        <path fill-rule="evenodd" clip-rule="evenodd" d="M88.57 106.403c.998.755 2.345.921 3.61.857 1.264-.065 2.515-.33 3.781-.319 1.266.011 2.609.346 3.449 1.265.331.362.574.892.348 1.323-.162.306-.523.472-.875.499-.352.028-.702-.061-1.043-.15-.088-.219.169-.43.407-.473.24-.043.502-.009.709-.131.352-.208.29-.783-.05-1.012-.337-.229-.811-.169-1.173.024-.361.194-.643.497-.947.769-1.693 1.507-4.147 1.996-6.431 1.773-2.285-.223-4.448-1.081-6.546-1.985-1.32-.569-2.696-1.213-3.507-2.373-.6-.858-.825-1.928-.773-2.965.05-1.036.361-2.044.76-3.007.3-.723.654-1.434 1.172-2.029.519-.593 1.217-1.066 2.007-1.201 1.45-.25 2.896.698 3.648 1.93.649 1.059 1.285 2.682.732 3.87-.561 1.207-.449 2.449.721 3.335" fill="#CD202C"/>
    </g>
    <mask id="bj64gm4qif" style="mask-type:alpha" maskUnits="userSpaceOnUse" x="80" y="96" width="24" height="17">
        <path fill-rule="evenodd" clip-rule="evenodd" d="M85.3 100.733c.767 1.329 2.05 2.367 3.531 2.864 1.599.534 3.294.436 5 .338 1.256-.073 2.518-.144 3.748.036 1.32.193 2.607.692 3.614 1.542 1.006.849 1.711 2.064 1.801 3.356.091 1.292-.479 2.641-1.558 3.401-1.078.76-2.653.845-3.749.107-1.095-.738-1.396-2.227-.765-3.368-2.29-.376-4.567.636-6.88.839a9.978 9.978 0 0 1-5.31-1.012 9.597 9.597 0 0 1-3.917-3.627l3.805-8.896a6.183 6.183 0 0 0 .68 4.42" fill="#fff"/>
    </mask>
    <g mask="url(#bj64gm4qif)">
        <path fill-rule="evenodd" clip-rule="evenodd" d="M102.015 108.193c.168 1.378-.386 2.933-1.661 3.558-1.37.672-3.045.082-4.31-.762.386 1.598 1.54 3.04 3.11 3.649 1.568.609 3.517.291 4.685-.895 1.388-1.406 1.445-3.698.607-5.468a8.217 8.217 0 0 0-1.341-1.966c-.311-.345-1.275-1.576-1.761-1.608-.803-.053-.217.974-.059 1.284.354.696.634 1.434.73 2.208" fill="#CD202C"/>
    </g>
    <path clip-rule="evenodd" d="M80.815 105.209a9.602 9.602 0 0 0 3.917 3.627 9.978 9.978 0 0 0 5.31 1.012c2.314-.203 4.589-1.215 6.88-.839-.631 1.141-.33 2.629.766 3.368 1.095.738 2.67.653 3.749-.107 1.079-.761 1.648-2.109 1.557-3.401-.09-1.292-.794-2.507-1.801-3.357-1.007-.849-2.296-1.348-3.613-1.541-2.901-.426-5.974.553-8.748-.374a6.5 6.5 0 0 1-3.533-2.864 6.188 6.188 0 0 1-.679-4.42l-3.805 8.896z" stroke="#000" stroke-width=".267"/>
    <path d="M96.923 109.009a1.553 1.553 0 0 1 1.334-.737 1.546 1.546 0 0 1 1.31.779c.081.151.137.32.12.489a.485.485 0 0 1-.284.4c-.152.06-.326.024-.485-.02-.158-.042-.324-.093-.485-.057-.16.037-.304.198-.25.35" stroke="#000" stroke-width=".267" stroke-linecap="round" stroke-linejoin="round"/>
    <path fill-rule="evenodd" clip-rule="evenodd" d="M67.689 95.551c-.607-1.2-1.885-2.055-3.256-2.176-1.37-.123-2.788.492-3.61 1.565-.534.699-.813 1.548-1.088 2.377-.274.83-.562 1.677-1.11 2.366-.55.689-1.417 1.203-2.31 1.107.989 1.24 2.399 2.183 3.938 2.656 1.538.472 3.297.358 4.669-.468 1.202-.722 2.039-1.937 2.457-3.249.419-1.31.933-2.945.31-4.178" fill="#EF3D42"/>
    <path clip-rule="evenodd" d="M67.689 95.551c-.607-1.2-1.885-2.055-3.256-2.176-1.37-.123-2.788.492-3.61 1.565-.534.699-.813 1.548-1.088 2.377-.274.83-.562 1.677-1.11 2.366-.55.689-1.417 1.203-2.31 1.107.989 1.24 2.399 2.183 3.938 2.656 1.538.472 3.297.358 4.669-.468 1.202-.722 2.039-1.937 2.457-3.249.419-1.31.933-2.945.31-4.178z" stroke="#000" stroke-width=".267"/>
    <path fill-rule="evenodd" clip-rule="evenodd" d="M62.03 96.765c-.453.873-.572 1.873-.955 2.776-.384.904-1.182 1.772-2.188 1.755 1.108 1.335 2.933 2.216 4.654 1.839 1.933-.422 2.987-2.133 2.9-3.97-.063-1.274-.462-3.32-1.924-3.765-1.045-.317-2.043.512-2.486 1.365" fill="#CD202C"/>
    <path fill-rule="evenodd" clip-rule="evenodd" d="M65.383 96.21c.606 1.624-.17 3.621-1.73 4.45-1.558.83-3.708.39-4.791-.98-1.08-1.367-1.035-3.252-.93-4.971.235-3.894.518-7.845-.32-11.66-.836-3.814-2.97-7.55-6.49-9.429-.524-.278-1.306-.455-1.615.042-.303.483.175 1.055.576 1.467 2.292 2.358 2.956 5.823 2.841 9.066-.115 3.242-.898 6.434-1.055 9.675-.157 3.24.41 6.706 2.608 9.148.954 1.058 2.028 1.909 3.334 2.513 1.308.603 2.784.905 4.217.717 1.435-.188 2.818-.894 3.677-2.025.738-.974 1.057-2.207 1.055-3.416-.004-1.21-.311-2.4-.73-3.54l-.647-1.057z" fill="#EF3D42"/>
    <mask id="y8jgmz0vhg" style="mask-type:alpha" maskUnits="userSpaceOnUse" x="49" y="73" width="18" height="34">
        <path fill-rule="evenodd" clip-rule="evenodd" d="M51.123 73.621c3.518 1.878 5.654 5.614 6.49 9.428.838 3.815.554 7.767.32 11.66-.105 1.72-.15 3.605.93 4.972 1.082 1.369 3.233 1.809 4.791.98 1.559-.83 2.336-2.828 1.73-4.45l.646 1.056c.419 1.139.727 2.332.73 3.54.004 1.209-.316 2.442-1.055 3.416-.858 1.132-2.241 1.838-3.676 2.026-1.434.187-2.91-.115-4.217-.718-1.307-.604-2.38-1.454-3.334-2.513-2.198-2.442-2.765-5.907-2.609-9.148.158-3.241.94-6.432 1.056-9.675.115-3.242-.55-6.707-2.842-9.066-.4-.411-.878-.984-.576-1.468.142-.226.382-.313.653-.313.318 0 .679.122.963.273z" fill="#fff"/>
    </mask>
    <g mask="url(#y8jgmz0vhg)">
        <path fill-rule="evenodd" clip-rule="evenodd" d="M49.316 73.53c2.235 1.25 3.698 3.553 4.357 5.975.657 2.423.591 4.977.347 7.471-.246 2.495-.664 4.979-.694 7.485-.03 2.506.355 5.077 1.611 7.266-2.339-.595-4.245-2.57-4.706-4.876-.361-1.813.11-3.67.354-5.501a22.348 22.348 0 0 0-2.166-12.86c-.487-.975-1.055-1.941-1.207-3.015-.153-1.072.232-2.308 1.224-2.804l.88.859z" fill="#F26F5C"/>
    </g>
    <mask id="iuumbqf3gh" style="mask-type:alpha" maskUnits="userSpaceOnUse" x="49" y="73" width="18" height="34">
        <path fill-rule="evenodd" clip-rule="evenodd" d="M51.123 73.621c3.518 1.878 5.654 5.614 6.49 9.428.838 3.815.554 7.767.32 11.66-.105 1.72-.15 3.605.93 4.972 1.082 1.369 3.233 1.809 4.791.98 1.559-.83 2.336-2.828 1.73-4.45l.646 1.056c.419 1.139.727 2.332.73 3.54.004 1.209-.316 2.442-1.055 3.416-.858 1.132-2.241 1.838-3.676 2.026-1.434.187-2.91-.115-4.217-.718-1.307-.604-2.38-1.454-3.334-2.513-2.198-2.442-2.765-5.907-2.609-9.148.158-3.241.94-6.432 1.056-9.675.115-3.242-.55-6.707-2.842-9.066-.4-.411-.878-.984-.576-1.468.142-.226.382-.313.653-.313.318 0 .679.122.963.273" fill="#fff"/>
    </mask>
    <g mask="url(#iuumbqf3gh)">
        <path fill-rule="evenodd" clip-rule="evenodd" d="M55.11 78.86c.926 2.39 1.134 4.987 1.115 7.542-.02 2.554-.256 5.107-.18 7.66.039 1.27.158 2.554.598 3.75.438 1.197 1.226 2.309 2.357 2.948 1.13.638 2.626.73 3.73.05-.999-.292-1.794-1.069-2.287-1.962-.495-.894-.72-1.902-.885-2.904-.61-3.734-.426-7.544-.759-11.31-.332-3.767-1.26-7.644-3.74-10.558-.573-.674-1.258-1.31-2.091-1.667-.54-.232-1.933-.627-2.267.081-.282.599.507 1.292.903 1.616.729.599 1.394 1.213 1.962 1.965a11.55 11.55 0 0 1 1.543 2.789" fill="#CD202C"/>
    </g>
    <mask id="ll7iuq6zmi" style="mask-type:alpha" maskUnits="userSpaceOnUse" x="49" y="73" width="18" height="34">
        <path fill-rule="evenodd" clip-rule="evenodd" d="M51.123 73.621c3.518 1.878 5.654 5.614 6.49 9.428.838 3.815.554 7.767.32 11.66-.105 1.72-.15 3.605.93 4.972 1.082 1.369 3.233 1.809 4.791.98 1.559-.83 2.336-2.828 1.73-4.45l.646 1.056c.419 1.139.727 2.332.73 3.54.004 1.209-.316 2.442-1.055 3.416-.858 1.132-2.241 1.838-3.676 2.026-1.434.187-2.91-.115-4.217-.718-1.307-.604-2.38-1.454-3.334-2.513-2.198-2.442-2.765-5.907-2.609-9.148.158-3.241.94-6.432 1.056-9.675.115-3.242-.55-6.707-2.842-9.066-.4-.411-.878-.984-.576-1.468.142-.226.382-.313.653-.313.318 0 .679.122.963.273" fill="#fff"/>
    </mask>
    <g mask="url(#ll7iuq6zmi)">
        <path fill-rule="evenodd" clip-rule="evenodd" d="M61.778 103.13c-1.523.538-3.256.22-4.7-.499-1.442-.719-2.65-1.804-3.839-2.876.816 2.606 2.85 4.827 5.419 5.918 1.191.505 2.508.777 3.801.641 1.293-.139 2.558-.709 3.396-1.676.838-.966 1.2-2.341.811-3.547-.183-.566-.53-1.092-1.028-1.434-.245-.168-.559-.292-.84-.194-.43.15-.246.581-.303.898-.074.411-.367.857-.609 1.191a4.486 4.486 0 0 1-2.108 1.578" fill="#CD202C"/>
    </g>
    <path clip-rule="evenodd" d="M65.383 96.21c.606 1.624-.17 3.622-1.73 4.45-1.558.83-3.708.39-4.791-.98-1.08-1.367-1.035-3.251-.93-4.971.235-3.893.518-7.844-.32-11.66-.836-3.814-2.97-7.55-6.49-9.428-.524-.28-1.306-.456-1.615.04-.303.484.175 1.056.576 1.468 2.292 2.359 2.956 5.824 2.841 9.066-.115 3.242-.898 6.434-1.055 9.675-.157 3.24.41 6.706 2.608 9.148.954 1.059 2.028 1.909 3.334 2.513 1.308.603 2.784.905 4.217.717 1.435-.188 2.818-.893 3.677-2.024.738-.975 1.057-2.207 1.055-3.417-.004-1.209-.311-2.4-.73-3.54l-.647-1.057z" stroke="#000" stroke-width=".267"/>
    <path fill-rule="evenodd" clip-rule="evenodd" d="M50.702 107.054c-.597.675-1.67.824-2.526.505-.856-.319-1.507-1.028-1.94-1.813-.592-1.075-.829-2.354-.544-3.543.285-1.189 1.116-2.267 2.26-2.77 1.354-.595 2.968-.345 4.305.286 1.337.631 4.734 3.939 7.434 4.682 3.287.905 8.772-.468 4.492-8.302-7.192-13.159-3.054-23.45 1.54-27.968 4.595-4.52 11.814-6.328 18.086-4.532 5.014 1.436 9.288 5.05 11.595 9.608 2.306 4.558 2.655 9.983 1.11 14.835-1.37 4.31-4.949 7.48-8.865 9.906-1.09.675-2.098 1.296-2.942 2.067-.128.117-.444.34-.543.477-.383 1.494.247 3.244 1.23 4.48 1.091 1.372 2.63 2.328 4.14 3.251 1.51.923 3.054 1.867 4.167 3.221 1.113 1.355 1.732 3.225 1.122 4.854-.615 1.646-2.37 2.668-4.145 2.976-6.868 1.194-12.005-5.552-16.848-5.552-3.704 0-3.514 1.804-2.316 2.666.463.333 1.117.604 1.091 1.163-.023.502-.721.653-1.231.576-1.633-.245-3.074-1.388-3.71-2.861-1.002.905-2.384 1.427-3.762 1.558-1.823.174-3.651-.25-5.394-.801-1.742-.552-3.446-1.235-5.239-1.604-.554-.115-1.125-.199-1.684-.11-.558.089-1.108.375-1.387.853-.28.478-.217 1.156.224 1.5.213.166.485.242.723.373.238.13.46.357.44.621-.031.42-.593.57-1.026.541-1.28-.088-2.496-.812-3.159-1.88a3.874 3.874 0 0 1-.233-3.592c.732-1.611 2.515-2.563 4.296-2.895 1.223-.227 2.471-.217 3.72-.189a13.901 13.901 0 0 1-2.346-2.254c-.647-.792-1.283-1.577-2.016-2.287.393.562.352 1.42-.119 1.954" fill="#EF3D42"/>
    <mask id="y8s7z9r9qj" style="mask-type:alpha" maskUnits="userSpaceOnUse" x="45" y="62" width="53" height="58">
        <path fill-rule="evenodd" clip-rule="evenodd" d="M83.809 63.6c5.015 1.436 9.288 5.05 11.594 9.607 2.307 4.557 2.656 9.983 1.111 14.835-1.37 4.31-4.948 7.48-8.865 9.905-1.09.676-2.098 1.297-2.943 2.068-.127.117-.443.34-.543.477-.382 1.494.248 3.244 1.23 4.481 1.092 1.37 2.63 2.327 4.141 3.25 1.51.923 3.053 1.867 4.167 3.221 1.113 1.355 1.73 3.225 1.122 4.854-.615 1.645-2.37 2.668-4.145 2.976-6.868 1.194-12.005-5.552-16.848-5.552-3.705 0-3.513 1.804-2.316 2.666.463.333 1.117.604 1.092 1.163-.024.501-.722.653-1.233.576-1.632-.245-3.072-1.388-3.709-2.861-1.001.904-2.384 1.427-3.761 1.558-1.824.174-3.653-.25-5.395-.801-1.742-.552-3.447-1.234-5.24-1.604-.552-.115-1.125-.199-1.683-.111-.559.089-1.108.376-1.388.854-.278.478-.216 1.155.225 1.5.214.166.486.242.723.373.238.13.46.356.44.621-.032.42-.593.57-1.025.541-1.28-.088-2.497-.812-3.16-1.88a3.869 3.869 0 0 1-.233-3.591c.733-1.612 2.515-2.564 4.296-2.896 1.223-.227 2.471-.217 3.72-.189a13.868 13.868 0 0 1-2.346-2.255c-.647-.791-1.284-1.577-2.015-2.285.392.561.351 1.42-.12 1.953-.598.676-1.67.824-2.526.505-.855-.32-1.506-1.028-1.94-1.813-.593-1.076-.829-2.354-.544-3.543.284-1.19 1.115-2.267 2.26-2.77 1.354-.595 2.969-.345 4.305.286 1.336.631 4.734 3.939 7.435 4.683 3.286.904 8.771-.47 4.49-8.303-7.191-13.158-3.053-23.45 1.542-27.968 3.411-3.356 8.272-5.218 13.116-5.218 1.678 0 3.354.224 4.969.686" fill="#fff"/>
    </mask>
    <g mask="url(#y8s7z9r9qj)">
        <path fill-rule="evenodd" clip-rule="evenodd" d="M68.12 112.531c.374-1.494 1.48-2.798 2.918-3.439 2.015-.898 4.361-.484 6.533-.053l5.52 1.097c-2.168-.329-4.183-1.266-6.28-1.893-2.099-.628-4.451-.928-6.433-.01-1.651.764-2.86 2.372-3.108 4.133-.186 1.317.178 3.383 1.335 4.239.241-.401-.413-1.364-.512-1.822a4.975 4.975 0 0 1 .028-2.252" fill="#F26F5C"/>
    </g>
    <mask id="6hw6qqtsmk" style="mask-type:alpha" maskUnits="userSpaceOnUse" x="45" y="62" width="53" height="58">
        <path fill-rule="evenodd" clip-rule="evenodd" d="M83.809 63.6c5.015 1.436 9.288 5.05 11.594 9.607 2.307 4.557 2.656 9.983 1.111 14.835-1.37 4.31-4.948 7.48-8.865 9.905-1.09.676-2.098 1.297-2.943 2.068-.127.117-.443.34-.543.477-.382 1.494.248 3.244 1.23 4.481 1.092 1.37 2.63 2.327 4.141 3.25 1.51.923 3.053 1.867 4.167 3.221 1.113 1.355 1.73 3.225 1.122 4.854-.615 1.645-2.37 2.668-4.145 2.976-6.868 1.194-12.005-5.552-16.848-5.552-3.705 0-3.513 1.804-2.316 2.666.463.333 1.117.604 1.092 1.163-.024.501-.722.653-1.233.576-1.632-.245-3.072-1.388-3.709-2.861-1.001.904-2.384 1.427-3.761 1.558-1.824.174-3.653-.25-5.395-.801-1.742-.552-3.447-1.234-5.24-1.604-.552-.115-1.125-.199-1.683-.111-.559.089-1.108.376-1.388.854-.278.478-.216 1.155.225 1.5.214.166.486.242.723.373.238.13.46.356.44.621-.032.42-.593.57-1.025.541-1.28-.088-2.497-.812-3.16-1.88a3.869 3.869 0 0 1-.233-3.591c.733-1.612 2.515-2.564 4.296-2.896 1.223-.227 2.471-.217 3.72-.189a13.868 13.868 0 0 1-2.346-2.255c-.647-.791-1.284-1.577-2.015-2.285.392.561.351 1.42-.12 1.953-.598.676-1.67.824-2.526.505-.855-.32-1.506-1.028-1.94-1.813-.593-1.076-.829-2.354-.544-3.543.284-1.19 1.115-2.267 2.26-2.77 1.354-.595 2.969-.345 4.305.286 1.336.631 4.734 3.939 7.435 4.683 3.286.904 8.771-.47 4.49-8.303-7.191-13.158-3.053-23.45 1.542-27.968 3.411-3.356 8.272-5.218 13.116-5.218 1.678 0 3.354.224 4.969.686" fill="#fff"/>
    </mask>
    <g mask="url(#6hw6qqtsmk)">
        <path fill-rule="evenodd" clip-rule="evenodd" d="m64.862 86.86.023-.035c.39-.437.557-1.052.44-1.619-.29.47-.665.891-1.102 1.238.237.15.402.266.64.416" fill="#F26F5C"/>
    </g>
    <mask id="xex0z552ol" style="mask-type:alpha" maskUnits="userSpaceOnUse" x="45" y="62" width="53" height="58">
        <path fill-rule="evenodd" clip-rule="evenodd" d="M83.809 63.6c5.015 1.436 9.288 5.05 11.594 9.607 2.307 4.557 2.656 9.983 1.111 14.835-1.37 4.31-4.948 7.48-8.865 9.905-1.09.676-2.098 1.297-2.943 2.068-.127.117-.443.34-.543.477-.382 1.494.248 3.244 1.23 4.481 1.092 1.37 2.63 2.327 4.141 3.25 1.51.923 3.053 1.867 4.167 3.221 1.113 1.355 1.73 3.225 1.122 4.854-.615 1.645-2.37 2.668-4.145 2.976-6.868 1.194-12.005-5.552-16.848-5.552-3.705 0-3.513 1.804-2.316 2.666.463.333 1.117.604 1.092 1.163-.024.501-.722.653-1.233.576-1.632-.245-3.072-1.388-3.709-2.861-1.001.904-2.384 1.427-3.761 1.558-1.824.174-3.653-.25-5.395-.801-1.742-.552-3.447-1.234-5.24-1.604-.552-.115-1.125-.199-1.683-.111-.559.089-1.108.376-1.388.854-.278.478-.216 1.155.225 1.5.214.166.486.242.723.373.238.13.46.356.44.621-.032.42-.593.57-1.025.541-1.28-.088-2.497-.812-3.16-1.88a3.869 3.869 0 0 1-.233-3.591c.733-1.612 2.515-2.564 4.296-2.896 1.223-.227 2.471-.217 3.72-.189a13.868 13.868 0 0 1-2.346-2.255c-.647-.791-1.284-1.577-2.015-2.285.392.561.351 1.42-.12 1.953-.598.676-1.67.824-2.526.505-.855-.32-1.506-1.028-1.94-1.813-.593-1.076-.829-2.354-.544-3.543.284-1.19 1.115-2.267 2.26-2.77 1.354-.595 2.969-.345 4.305.286 1.336.631 4.734 3.939 7.435 4.683 3.286.904 8.771-.47 4.49-8.303-7.191-13.158-3.053-23.45 1.542-27.968 3.411-3.356 8.272-5.218 13.116-5.218 1.678 0 3.354.224 4.969.686" fill="#fff"/>
    </mask>
    <g mask="url(#xex0z552ol)">
        <path fill-rule="evenodd" clip-rule="evenodd" d="M62.021 87.31a23.237 23.237 0 0 0 1.125 3.173c1.021 2.33 2.568 4.5 3.198 6.978.393 1.545.373 3.248-.4 4.651a4.425 4.425 0 0 1-1.52 1.602c-.278.176-1.741.942-1.988.522-.197-.34.907-1.452 1.087-1.739.344-.541.774-1.231.719-1.895-.086-1.043-.468-2.038-.86-3.012-1.171-2.917-2.465-5.795-3.379-8.798-.913-3.003-1.441-6.165-1.037-9.27.34-2.618 1.433-6.364 3.915-7.848.193.418-.481 1.6-.63 2.07a23.63 23.63 0 0 0-.603 2.337 24.247 24.247 0 0 0 .373 11.228" fill="#F26F5C"/>
    </g>
    <mask id="saiyf1257m" style="mask-type:alpha" maskUnits="userSpaceOnUse" x="45" y="62" width="53" height="58">
        <path fill-rule="evenodd" clip-rule="evenodd" d="M83.809 63.6c5.015 1.436 9.288 5.05 11.594 9.607 2.307 4.557 2.656 9.983 1.111 14.835-1.37 4.31-4.948 7.48-8.865 9.905-1.09.676-2.098 1.297-2.943 2.068-.127.117-.443.34-.543.477-.382 1.494.248 3.244 1.23 4.481 1.092 1.37 2.63 2.327 4.141 3.25 1.51.923 3.053 1.867 4.167 3.221 1.113 1.355 1.73 3.225 1.122 4.854-.615 1.645-2.37 2.668-4.145 2.976-6.868 1.194-12.005-5.552-16.848-5.552-3.705 0-3.513 1.804-2.316 2.666.463.333 1.117.604 1.092 1.163-.024.501-.722.653-1.233.576-1.632-.245-3.072-1.388-3.709-2.861-1.001.904-2.384 1.427-3.761 1.558-1.824.174-3.653-.25-5.395-.801-1.742-.552-3.447-1.234-5.24-1.604-.552-.115-1.125-.199-1.683-.111-.559.089-1.108.376-1.388.854-.278.478-.216 1.155.225 1.5.214.166.486.242.723.373.238.13.46.356.44.621-.032.42-.593.57-1.025.541-1.28-.088-2.497-.812-3.16-1.88a3.869 3.869 0 0 1-.233-3.591c.733-1.612 2.515-2.564 4.296-2.896 1.223-.227 2.471-.217 3.72-.189a13.868 13.868 0 0 1-2.346-2.255c-.647-.791-1.284-1.577-2.015-2.285.392.561.351 1.42-.12 1.953-.598.676-1.67.824-2.526.505-.855-.32-1.506-1.028-1.94-1.813-.593-1.076-.829-2.354-.544-3.543.284-1.19 1.115-2.267 2.26-2.77 1.354-.595 2.969-.345 4.305.286 1.336.631 4.734 3.939 7.435 4.683 3.286.904 8.771-.47 4.49-8.303-7.191-13.158-3.053-23.45 1.542-27.968 3.411-3.356 8.272-5.218 13.116-5.218 1.678 0 3.354.224 4.969.686z" fill="#fff"/>
    </mask>
    <g mask="url(#saiyf1257m)">
        <path fill-rule="evenodd" clip-rule="evenodd" d="M62.523 71.585c3.382-1.783 7.447-2.017 11.238-1.382 3.792.636 7.382 2.08 10.936 3.512 1.947.785 3.967 1.62 5.357 3.159 1.61 1.782 2.142 4.307 1.874 6.661-.268 2.357-1.259 4.577-2.398 6.673a40.84 40.84 0 0 1-2.99 4.67 57.831 57.831 0 0 1-1.698 2.191c-.546.674-1.05 1.397-1.633 2.034a13.737 13.737 0 0 1-3.321 2.649c-.126.071-.255.143-.346.254-.09.11-.134.27-.065.395.074.132.243.181.396.206.514.084 1.047.047 1.55.176.992.258 1.14 1.268 1.636 2.006a18.784 18.784 0 0 0 3.02 3.456c.769.686 1.562 1.395 1.992 2.319.43.925.4 2.132-.357 2.831-.8.738-2.07.666-3.142.411-2.355-.56-5.118-1.524-7.447-2.178-5.838-1.642-9.42 1.173-6.88 4.561.942 1.256 2.476 1.161 2.033 1.82 4.797 2.082 11.696 5.105 16.886 5.897 3.033.462 6.56.447 8.647-1.738 1.214-1.27 1.69-3.061 1.766-4.792.075-1.731-.206-3.456-.296-5.187-.362-6.957 2.347-13.73 2.705-20.687.572-11.136-5.413-22.372-15.103-28.35-3.275-2.02-6.985-3.48-10.855-3.75-3.87-.273-7.907.725-10.885 3.14-2.978 2.417-4.74 6.328-4.095 10.044l1.475-1.001z" fill="#CD202C"/>
    </g>
    <mask id="f7bui48akn" style="mask-type:alpha" maskUnits="userSpaceOnUse" x="45" y="62" width="53" height="58">
        <path fill-rule="evenodd" clip-rule="evenodd" d="M83.809 63.6c5.015 1.436 9.288 5.05 11.594 9.607 2.307 4.557 2.656 9.983 1.111 14.835-1.37 4.31-4.948 7.48-8.865 9.905-1.09.676-2.098 1.297-2.943 2.068-.127.117-.443.34-.543.477-.382 1.494.248 3.244 1.23 4.481 1.092 1.37 2.63 2.327 4.141 3.25 1.51.923 3.053 1.867 4.167 3.221 1.113 1.355 1.73 3.225 1.122 4.854-.615 1.645-2.37 2.668-4.145 2.976-6.868 1.194-12.005-5.552-16.848-5.552-3.705 0-3.513 1.804-2.316 2.666.463.333 1.117.604 1.092 1.163-.024.501-.722.653-1.233.576-1.632-.245-3.072-1.388-3.709-2.861-1.001.904-2.384 1.427-3.761 1.558-1.824.174-3.653-.25-5.395-.801-1.742-.552-3.447-1.234-5.24-1.604-.552-.115-1.125-.199-1.683-.111-.559.089-1.108.376-1.388.854-.278.478-.216 1.155.225 1.5.214.166.486.242.723.373.238.13.46.356.44.621-.032.42-.593.57-1.025.541-1.28-.088-2.497-.812-3.16-1.88a3.869 3.869 0 0 1-.233-3.591c.733-1.612 2.515-2.564 4.296-2.896 1.223-.227 2.471-.217 3.72-.189a13.868 13.868 0 0 1-2.346-2.255c-.647-.791-1.284-1.577-2.015-2.285.392.561.351 1.42-.12 1.953-.598.676-1.67.824-2.526.505-.855-.32-1.506-1.028-1.94-1.813-.593-1.076-.829-2.354-.544-3.543.284-1.19 1.115-2.267 2.26-2.77 1.354-.595 2.969-.345 4.305.286 1.336.631 4.734 3.939 7.435 4.683 3.286.904 8.771-.47 4.49-8.303-7.191-13.158-3.053-23.45 1.542-27.968 3.411-3.356 8.272-5.218 13.116-5.218 1.678 0 3.354.224 4.969.686" fill="#fff"/>
    </mask>
    <g mask="url(#f7bui48akn)">
        <path fill-rule="evenodd" clip-rule="evenodd" d="M47.479 114.746c-.048-1.001.254-2.054.99-2.757.7-.666 1.695-.945 2.663-1.099 2.339-.371 4.736-.149 7.09-.412 2.353-.264 4.823-1.151 6.08-3.101-1.965 1.651-4.693 2.14-7.29 2.237-2.597.096-5.226-.134-7.777.351-1.386.263-2.86.844-3.484 2.076-.501.99-.322 2.206.21 3.18.217.395 1.499 2.343 2.035 2.234.362-.074-.157-.978-.23-1.211a5.916 5.916 0 0 1-.287-1.498" fill="#F26F5C"/>
    </g>
    <mask id="u7nmy62beo" style="mask-type:alpha" maskUnits="userSpaceOnUse" x="45" y="62" width="53" height="58">
        <path fill-rule="evenodd" clip-rule="evenodd" d="M83.809 63.6c5.015 1.436 9.288 5.05 11.594 9.607 2.307 4.557 2.656 9.983 1.111 14.835-1.37 4.31-4.948 7.48-8.865 9.905-1.09.676-2.098 1.297-2.943 2.068-.127.117-.443.34-.543.477-.382 1.494.248 3.244 1.23 4.481 1.092 1.37 2.63 2.327 4.141 3.25 1.51.923 3.053 1.867 4.167 3.221 1.113 1.355 1.73 3.225 1.122 4.854-.615 1.645-2.37 2.668-4.145 2.976-6.868 1.194-12.005-5.552-16.848-5.552-3.705 0-3.513 1.804-2.316 2.666.463.333 1.117.604 1.092 1.163-.024.501-.722.653-1.233.576-1.632-.245-3.072-1.388-3.709-2.861-1.001.904-2.384 1.427-3.761 1.558-1.824.174-3.653-.25-5.395-.801-1.742-.552-3.447-1.234-5.24-1.604-.552-.115-1.125-.199-1.683-.111-.559.089-1.108.376-1.388.854-.278.478-.216 1.155.225 1.5.214.166.486.242.723.373.238.13.46.356.44.621-.032.42-.593.57-1.025.541-1.28-.088-2.497-.812-3.16-1.88a3.869 3.869 0 0 1-.233-3.591c.733-1.612 2.515-2.564 4.296-2.896 1.223-.227 2.471-.217 3.72-.189a13.868 13.868 0 0 1-2.346-2.255c-.647-.791-1.284-1.577-2.015-2.285.392.561.351 1.42-.12 1.953-.598.676-1.67.824-2.526.505-.855-.32-1.506-1.028-1.94-1.813-.593-1.076-.829-2.354-.544-3.543.284-1.19 1.115-2.267 2.26-2.77 1.354-.595 2.969-.345 4.305.286 1.336.631 4.734 3.939 7.435 4.683 3.286.904 8.771-.47 4.49-8.303-7.191-13.158-3.053-23.45 1.542-27.968 3.411-3.356 8.272-5.218 13.116-5.218 1.678 0 3.354.224 4.969.686" fill="#fff"/>
    </mask>
    <g mask="url(#u7nmy62beo)">
        <path fill-rule="evenodd" clip-rule="evenodd" d="M51.988 118.148c-.75-.167-1.503-.399-2.125-.839-.622-.44-1.102-1.12-1.134-1.867-.036-.845.513-1.646 1.248-2.1.735-.454 1.628-.609 2.5-.631 1.744-.044 3.457.4 5.143.841 1.684.441 3.398.885 5.142.842 1.745-.043 3.556-.644 4.652-1.963.126 1.115.076 2.229.202 3.343.058.519.116 1.051-.017 1.555-.327 1.236-1.651 1.926-2.863 2.416-1.666.675-3.384 1.255-5.166 1.534-1.782.278-3.637.244-5.356-.29-.58-.181-1.153-.423-1.61-.816-.456-.393-.622-1.433-.616-2.025" fill="#CD202C"/>
    </g>
    <mask id="1yr3d41kpp" style="mask-type:alpha" maskUnits="userSpaceOnUse" x="45" y="62" width="53" height="58">
        <path fill-rule="evenodd" clip-rule="evenodd" d="M83.809 63.6c5.015 1.436 9.288 5.05 11.594 9.607 2.307 4.557 2.656 9.983 1.111 14.835-1.37 4.31-4.948 7.48-8.865 9.905-1.09.676-2.098 1.297-2.943 2.068-.127.117-.443.34-.543.477-.382 1.494.248 3.244 1.23 4.481 1.092 1.37 2.63 2.327 4.141 3.25 1.51.923 3.053 1.867 4.167 3.221 1.113 1.355 1.73 3.225 1.122 4.854-.615 1.645-2.37 2.668-4.145 2.976-6.868 1.194-12.005-5.552-16.848-5.552-3.705 0-3.513 1.804-2.316 2.666.463.333 1.117.604 1.092 1.163-.024.501-.722.653-1.233.576-1.632-.245-3.072-1.388-3.709-2.861-1.001.904-2.384 1.427-3.761 1.558-1.824.174-3.653-.25-5.395-.801-1.742-.552-3.447-1.234-5.24-1.604-.552-.115-1.125-.199-1.683-.111-.559.089-1.108.376-1.388.854-.278.478-.216 1.155.225 1.5.214.166.486.242.723.373.238.13.46.356.44.621-.032.42-.593.57-1.025.541-1.28-.088-2.497-.812-3.16-1.88a3.869 3.869 0 0 1-.233-3.591c.733-1.612 2.515-2.564 4.296-2.896 1.223-.227 2.471-.217 3.72-.189a13.868 13.868 0 0 1-2.346-2.255c-.647-.791-1.284-1.577-2.015-2.285.392.561.351 1.42-.12 1.953-.598.676-1.67.824-2.526.505-.855-.32-1.506-1.028-1.94-1.813-.593-1.076-.829-2.354-.544-3.543.284-1.19 1.115-2.267 2.26-2.77 1.354-.595 2.969-.345 4.305.286 1.336.631 4.734 3.939 7.435 4.683 3.286.904 8.771-.47 4.49-8.303-7.191-13.158-3.053-23.45 1.542-27.968 3.411-3.356 8.272-5.218 13.116-5.218 1.678 0 3.354.224 4.969.686" fill="#fff"/>
    </mask>
    <g mask="url(#1yr3d41kpp)">
        <path fill-rule="evenodd" clip-rule="evenodd" d="M46.898 106.124c-.597-.945-.918-2.083-.742-3.18.176-1.097.892-2.131 1.939-2.577 1.262-.537 2.752-.161 3.95.5 1.197.66 2.221 1.586 3.411 2.259a9.557 9.557 0 0 0 6.692.99c-1.476.171-2.962-.334-4.24-1.072-1.278-.74-2.395-1.709-3.577-2.586-1.183-.877-2.469-1.68-3.918-2.007-1.448-.326-3.096-.107-4.197.864-.88.775-1.322 1.96-1.297 3.114.026 1.155.486 2.275 1.172 3.218" fill="#F26F5C"/>
    </g>
    <mask id="8y2urrfl1q" style="mask-type:alpha" maskUnits="userSpaceOnUse" x="45" y="62" width="53" height="58">
        <path fill-rule="evenodd" clip-rule="evenodd" d="M83.809 63.6c5.015 1.436 9.288 5.05 11.594 9.607 2.307 4.557 2.656 9.983 1.111 14.835-1.37 4.31-4.948 7.48-8.865 9.905-1.09.676-2.098 1.297-2.943 2.068-.127.117-.443.34-.543.477-.382 1.494.248 3.244 1.23 4.481 1.092 1.37 2.63 2.327 4.141 3.25 1.51.923 3.053 1.867 4.167 3.221 1.113 1.355 1.73 3.225 1.122 4.854-.615 1.645-2.37 2.668-4.145 2.976-6.868 1.194-12.005-5.552-16.848-5.552-3.705 0-3.513 1.804-2.316 2.666.463.333 1.117.604 1.092 1.163-.024.501-.722.653-1.233.576-1.632-.245-3.072-1.388-3.709-2.861-1.001.904-2.384 1.427-3.761 1.558-1.824.174-3.653-.25-5.395-.801-1.742-.552-3.447-1.234-5.24-1.604-.552-.115-1.125-.199-1.683-.111-.559.089-1.108.376-1.388.854-.278.478-.216 1.155.225 1.5.214.166.486.242.723.373.238.13.46.356.44.621-.032.42-.593.57-1.025.541-1.28-.088-2.497-.812-3.16-1.88a3.869 3.869 0 0 1-.233-3.591c.733-1.612 2.515-2.564 4.296-2.896 1.223-.227 2.471-.217 3.72-.189a13.868 13.868 0 0 1-2.346-2.255c-.647-.791-1.284-1.577-2.015-2.285.392.561.351 1.42-.12 1.953-.598.676-1.67.824-2.526.505-.855-.32-1.506-1.028-1.94-1.813-.593-1.076-.829-2.354-.544-3.543.284-1.19 1.115-2.267 2.26-2.77 1.354-.595 2.969-.345 4.305.286 1.336.631 4.734 3.939 7.435 4.683 3.286.904 8.771-.47 4.49-8.303-7.191-13.158-3.053-23.45 1.542-27.968 3.411-3.356 8.272-5.218 13.116-5.218 1.678 0 3.354.224 4.969.686" fill="#fff"/>
    </mask>
    <g mask="url(#8y2urrfl1q)">
        <path fill-rule="evenodd" clip-rule="evenodd" d="M57.575 106.184c-2.208-1.12-4.2-2.649-6.52-3.531-.719-.273-1.492-.484-2.255-.372-.762.112-1.506.618-1.675 1.349-.169.732.447 1.592 1.215 1.528-.443-.126-.6-.741-.33-1.105.27-.364.828-.451 1.25-.27.424.181.716.578.87 1.001.233.648.146 1.443-.365 1.916-.431.399-1.083.504-1.671.411-.588-.092-1.13-.358-1.662-.619.165.855.88 1.533 1.693 1.9.812.368 1.719.477 2.608.582 2.338.274 4.759.772 7.12.558 2.237-.202 4.424-.96 6.268-2.21-.306.208-1.508.247-1.893.241-.496-.009-1.029-.137-1.519-.24-1.094-.228-2.144-.637-3.134-1.139" fill="#CD202C"/>
    </g>
    <path clip-rule="evenodd" d="M50.702 107.054c-.597.675-1.67.824-2.526.505-.856-.319-1.507-1.028-1.94-1.813-.592-1.075-.829-2.354-.544-3.543.285-1.189 1.116-2.267 2.26-2.77 1.354-.595 2.968-.345 4.305.286 1.337.631 4.734 3.939 7.434 4.682 3.287.906 8.772-.468 4.492-8.302-7.192-13.159-3.054-23.45 1.54-27.968 4.595-4.52 11.814-6.328 18.086-4.532 5.014 1.436 9.288 5.05 11.595 9.608 2.306 4.558 2.655 9.983 1.11 14.835-1.37 4.31-4.949 7.48-8.865 9.906-1.09.675-2.098 1.296-2.942 2.067-.128.117-.444.34-.543.477-.383 1.494.247 3.244 1.23 4.48 1.091 1.372 2.63 2.328 4.14 3.251 1.51.923 3.054 1.867 4.167 3.221 1.113 1.355 1.732 3.225 1.122 4.854-.615 1.646-2.37 2.668-4.145 2.976-6.868 1.194-12.005-5.552-16.848-5.552-3.704 0-3.514 1.804-2.316 2.666.463.333 1.117.604 1.091 1.163-.023.502-.721.653-1.231.576-1.633-.245-3.074-1.388-3.71-2.861-1.002.905-2.384 1.427-3.762 1.558-1.823.174-3.651-.25-5.394-.801-1.742-.552-3.446-1.235-5.239-1.604-.554-.115-1.125-.199-1.684-.11-.558.089-1.108.375-1.387.853-.28.478-.217 1.156.224 1.5.213.166.485.242.723.373.238.13.46.357.44.621-.031.42-.593.57-1.026.541-1.28-.088-2.496-.812-3.159-1.88a3.874 3.874 0 0 1-.233-3.592c.732-1.611 2.515-2.563 4.296-2.895 1.223-.227 2.471-.217 3.72-.189a13.901 13.901 0 0 1-2.346-2.254c-.647-.792-1.283-1.577-2.016-2.287.393.562.352 1.42-.119 1.954z" stroke="#000" stroke-width=".267"/>
    <path fill-rule="evenodd" clip-rule="evenodd" d="M96.854 86.418c-.218-4.263-1.507-7.263-4.774-10.16-3.268-2.896-11.12-7.114-20.07-8.662-2.67-.462-7.071.183-8.261 2.826 2.349-4.46 5.455-8.453 10.177-10.15 4.722-1.7 10.196-1.262 14.632 1.04 4.435 2.303 7.786 6.402 9.202 11.046 1.415 4.644.238 11.068-.906 14.06" fill="#fff"/>
    <path clip-rule="evenodd" d="M80.086 88.877c-.106 1.595-.242 3.217-.85 4.703-.608 1.485-1.764 2.838-3.332 3.323-1.02.316-2.14.241-3.156-.085s-1.935-.891-2.767-1.546c-2.604-2.048-4.413-5.03-4.995-8.235 2.093 1.626 5.7 2.801 8.356 3.155 2.655.353 4.889 0 6.744-1.315z" stroke="#000" stroke-width=".267" stroke-linecap="round" stroke-linejoin="round"/>
    <path fill-rule="evenodd" clip-rule="evenodd" d="M83.304 75.22c2.51-.13 5.055 1.024 6.563 2.978-.021.526-.267 1.073-.63 1.464-.965-2.35-3.353-4.102-5.933-4.442" fill="#000"/>
    <path clip-rule="evenodd" d="M83.304 75.22c2.51-.13 5.055 1.024 6.563 2.978-.021.526-.267 1.073-.63 1.464-.965-2.35-3.353-4.102-5.933-4.442z" stroke="#000" stroke-width=".267" stroke-linecap="round" stroke-linejoin="round"/>
    <path fill-rule="evenodd" clip-rule="evenodd" d="M67.065 72.138a5.105 5.105 0 0 0-3.973.36c.087.52.064 1.074.151 1.594 1.002-1.082 2.54-1.842 4.034-1.954-.088.02-.123-.022-.212 0" fill="#000"/>
    <path clip-rule="evenodd" d="M67.065 72.138a5.105 5.105 0 0 0-3.973.36c.087.52.064 1.074.151 1.594 1.002-1.082 2.54-1.842 4.034-1.954-.088.02-.123-.022-.212 0z" stroke="#000" stroke-width=".267" stroke-linecap="round" stroke-linejoin="round"/>
    <path fill-rule="evenodd" clip-rule="evenodd" d="M79.52 77.808c.757-1.338 2.13-2.285 3.626-2.563 2.02-.375 4.219.513 5.439 2.193 1.219 1.681 1.4 4.075.449 5.92-.952 1.846-2.991 3.055-5.045 2.99-2.054-.066-4.02-1.401-4.866-3.304-.845-1.903-.528-4.28.785-5.881" fill="#fff"/>
    <path d="M79.52 77.808c.757-1.338 2.13-2.285 3.626-2.563 2.02-.375 4.219.513 5.439 2.193 1.219 1.681 1.4 4.075.449 5.92-.952 1.846-2.991 3.055-5.045 2.99-2.054-.066-4.02-1.401-4.866-3.304-.845-1.903-.528-4.28.785-5.881" stroke="#000" stroke-width=".267" stroke-linecap="round" stroke-linejoin="round"/>
    <path fill-rule="evenodd" clip-rule="evenodd" d="M61.814 76.637c-.554 2.923.781 5.613 2.98 6.005 2.2.393 4.432-1.66 4.985-4.582.553-2.924-.78-5.613-2.98-6.006-2.2-.392-4.431 1.659-4.985 4.583" fill="#fff"/>
    <path clip-rule="evenodd" d="M61.814 76.637c-.554 2.923.781 5.613 2.98 6.005 2.2.393 4.432-1.66 4.985-4.582.553-2.924-.78-5.613-2.98-6.006-2.2-.392-4.431 1.659-4.985 4.583z" stroke="#000" stroke-width=".267" stroke-linecap="round" stroke-linejoin="round"/>
    <path fill-rule="evenodd" clip-rule="evenodd" d="M80.275 81.36c0 2.447 1.752 4.43 3.914 4.43 2.161 0 3.915-1.984 3.915-4.43 0-2.446-1.754-4.428-3.915-4.428-2.162 0-3.914 1.982-3.914 4.428" fill="#000"/>
    <path clip-rule="evenodd" d="M80.275 81.36c0 2.447 1.752 4.43 3.914 4.43 2.161 0 3.915-1.984 3.915-4.43 0-2.446-1.754-4.428-3.915-4.428-2.162 0-3.914 1.982-3.914 4.428z" stroke="#000" stroke-width=".267" stroke-linecap="round" stroke-linejoin="round"/>
    <path d="M86.246 83.537c-1.104 2.69-5.416 1.221-4.965-2.569" stroke="#9B5225" stroke-width=".712" stroke-linecap="round" stroke-linejoin="round"/>
    <path fill-rule="evenodd" clip-rule="evenodd" d="M63.341 77.141c-.637 2.166.197 4.305 1.862 4.777 1.665.472 3.53-.9 4.167-3.067.637-2.166-.197-4.305-1.861-4.777-1.665-.472-3.53.9-4.168 3.067" fill="#000"/>
    <path clip-rule="evenodd" d="M63.341 77.141c-.637 2.166.197 4.305 1.862 4.777 1.665.472 3.53-.9 4.167-3.067.637-2.166-.197-4.305-1.861-4.777-1.665-.472-3.53.9-4.168 3.067z" stroke="#000" stroke-width=".267" stroke-linecap="round" stroke-linejoin="round"/>
    <path d="M67.768 79.976c-.231.308-.485.606-.797.838-.312.231-.687.395-1.08.41-.532.021-1.052-.243-1.396-.637-.345-.395-.523-.909-.57-1.424-.047-.515.032-1.035.154-1.538" stroke="#9B5225" stroke-width=".712" stroke-linecap="round" stroke-linejoin="round"/>
    <path fill-rule="evenodd" clip-rule="evenodd" d="M82.499 79.655c0 .534.446.966.994.966.55 0 .995-.432.995-.966s-.445-.965-.995-.965c-.548 0-.994.431-.994.965M64.858 75.977c-.205.496-.047 1.023.351 1.178.398.155.887-.12 1.092-.616.204-.495.047-1.022-.351-1.177-.398-.156-.888.12-1.092.615M85.294 83.934c0 .28.233.507.522.507.287 0 .52-.227.52-.507a.513.513 0 0 0-.52-.506.514.514 0 0 0-.522.506M66.682 79.996c-.096.263-.018.53.174.596.191.066.425-.093.52-.357.097-.264.02-.53-.172-.597-.192-.066-.425.095-.522.358" fill="#fff"/>
    <path d="M84.894 99.83c-.582.478-1.482 1.37-2.051 2.173" stroke="#000" stroke-width=".267" stroke-linecap="round" stroke-linejoin="round"/>
    <mask id="mpndwars1r" style="mask-type:alpha" maskUnits="userSpaceOnUse" x="63" y="59" width="36" height="28">
        <path fill-rule="evenodd" clip-rule="evenodd" d="M88.558 61.312c4.435 2.302 7.786 6.402 9.202 11.046 1.415 4.644.238 11.068-.906 14.06-.219-4.263-1.507-7.263-4.774-10.16-3.268-2.896-11.12-7.114-20.07-8.662-2.53-.437-6.612.118-8.047 2.425 2.323-4.297 5.383-8.103 9.963-9.75a17.87 17.87 0 0 1 6.036-1.03c2.982-.001 5.97.709 8.596 2.071m-24.81 9.11c.064-.14.135-.273.215-.401-.072.132-.144.267-.214.401" fill="#fff"/>
    </mask>
    <g mask="url(#mpndwars1r)" fill-rule="evenodd" clip-rule="evenodd">
        <path d="M74.089 65.471c-1.963-.41-4.112-.743-6.239-1.009l4.098-4.685a54 54 0 0 1 5.784 1.006c-1.165 1.526-2.355 3.002-3.643 4.688" fill="#75151E"/>
        <path d="M79.66 65.116c-.353.1-.69.102-.972.009-.679-.223-.801-.915-.3-1.577.491-.648 1.397-.994 2.081-.784.284.087.487.257.586.491l.005.012.886-.318-.005-.014c-.148-.404-.496-.705-.973-.848-1.11-.332-2.604.221-3.368 1.227-.79 1.04-.58 2.185.516 2.552.476.158 1.07.144 1.67-.044l.021-.006a51.72 51.72 0 0 0-.13-.705l-.017.005m.57 1.341c.253.092.506.186.76.281.942-1.25 1.838-2.467 2.684-3.646a61.13 61.13 0 0 0-.755-.26 183.73 183.73 0 0 1-2.69 3.625m4.759.112c.021-.054.362-2.868.347-2.873a55.562 55.562 0 0 0-.733-.28 195.21 195.21 0 0 1-2.676 3.67c.254.1.507.201.76.304.562-.76 1.108-1.507 1.637-2.243-.001.124-.34 2.833-.35 2.826a467.18 467.18 0 0 1 2.933-1.717c-.52.746-1.055 1.503-1.604 2.27.254.118.507.237.76.359.904-1.277 1.77-2.528 2.597-3.752a46 46 0 0 0-.723-.338 521.38 521.38 0 0 0-2.948 1.774m3.938 2.837a53.576 53.576 0 0 0-.737-.395c.207-.301.411-.602.614-.9.244.128.487.26.73.393.342.188.31.488.165.704-.146.22-.426.386-.772.198m.888-2.8c.226.12.45.242.675.366.283.157.35.405.183.66-.168.257-.439.315-.724.158a48.14 48.14 0 0 0-.68-.367c.184-.273.366-.545.546-.816m.684 1.938c.225 0 .66-.099.931-.517.416-.642.246-1.3-.45-1.69-.484-.268-.971-.526-1.461-.774-.82 1.23-1.678 2.484-2.572 3.763.528.265 1.053.54 1.576.824.717.388 1.445.214 1.902-.477.337-.511.201-.919.074-1.129" fill="#7C1710"/>
        <path d="M72.03 60.613c1.055.141 2.095.312 3.12.51.126.59.25 1.198.372 1.825-.96.445-1.94.904-2.941 1.38a53.295 53.295 0 0 0-3.27-.557c.985-.506 1.95-.998 2.893-1.475-.055-.577-.113-1.138-.174-1.683" fill="#E5292B"/>
        <path d="M75.521 62.947a91.741 91.741 0 0 0-.372-1.824 53.973 53.973 0 0 0-3.12-.51c.062.545.12 1.106.175 1.683" fill="#FEFEFE"/>
        <path d="M88.78 74.427c1.68-1.448 3.558-5.494 3.934-7.63.377-2.136-.946-3.56-2.43-4.464 4.221 1.855 8.891 5.927 9.896 10.278 1.004 4.35.327 8.927-1.096 13.169-.234.696-.492 1.397-.933 1.992-.442.597-1.095 1.084-1.85 1.187-1.167.159-2.244-.605-3.068-1.413-3.21-3.15-4.827-7.732-4.27-12.105.062-.486-.562-.687-.182-1.014" fill="#C5C4C3"/>
    </g>
    <path clip-rule="evenodd" d="M96.854 86.418c-.218-4.263-1.507-7.263-4.774-10.16-3.268-2.896-11.12-7.114-20.07-8.662-2.67-.462-7.071.183-8.261 2.826 2.349-4.46 5.455-8.453 10.177-10.15 4.722-1.7 10.196-1.262 14.632 1.04 4.435 2.303 7.786 6.402 9.202 11.046 1.415 4.644.238 11.068-.906 14.06z" stroke="#000" stroke-width=".267" stroke-linecap="round" stroke-linejoin="round"/>
    <path d="M92.833 64.39c2.373 2.767-.616 8.531-2.046 10.77" stroke="#000" stroke-width=".267" stroke-linecap="round" stroke-linejoin="round"/>
    <path fill-rule="evenodd" clip-rule="evenodd" d="M72.79 67.665c9.698 3.5 15.08 8.294 19.29 8.594-1.052-1.006-9.591-8.234-19.29-8.594" fill="#fff"/>
    <mask id="vp9bb5kpss" style="mask-type:alpha" maskUnits="userSpaceOnUse" x="72" y="67" width="21" height="10">
        <path fill-rule="evenodd" clip-rule="evenodd" d="M92.08 76.259c-4.21-.301-9.591-5.094-19.29-8.594 9.698.36 18.238 7.588 19.29 8.594" fill="#fff"/>
    </mask>
    <g mask="url(#vp9bb5kpss)">
        <path fill-rule="evenodd" clip-rule="evenodd" d="M72.011 67.596c3.597 6.195 16.903 12.254 24.122 13.777-.232-.049-.87-1.573-1.024-1.823a29.128 29.128 0 0 0-1.241-1.872c-.698-.97-1.487-2.277-2.578-2.885-.825-.46-1.827-.834-2.692-1.247-1.523-.726-8.74-4.33-16.587-5.95" fill="#C5C4C3"/>
    </g>
    <path clip-rule="evenodd" d="M72.79 67.665c9.698 3.5 15.08 8.293 19.29 8.593-1.052-1.005-9.591-8.234-19.29-8.593z" stroke="#000" stroke-width=".267" stroke-linecap="round" stroke-linejoin="round"/>
    <path fill-rule="evenodd" clip-rule="evenodd" d="M73.57 67.963c-2.01-.938-8.86-.638-11.246 5.117-1.488-.226-2.898-1.901-3.247-3.326-.62-2.522 2.785-6.378 14.493-1.791" fill="#C2C4C4"/>
    <path clip-rule="evenodd" d="M73.57 67.963c-2.01-.938-8.86-.638-11.246 5.117-1.488-.226-2.898-1.901-3.247-3.326-.62-2.522 2.785-6.378 14.493-1.791z" stroke="#000" stroke-width=".267" stroke-linecap="round" stroke-linejoin="round"/>
    <path fill-rule="evenodd" clip-rule="evenodd" d="M71.625 69.7c.052.228-.256.365-.392.172-.616-.871-1.531-1.647-2.589-1.778-1.338-.164-4.125 1.017-6.077 4.45.207-1.392 1.042-3.522 2.073-4.48 1.204-1.12 2.7-1.526 4.288-1.038 1.273.392 2.416 1.446 2.697 2.673" fill="#000"/>
    <path clip-rule="evenodd" d="M71.625 69.7c.052.228-.256.365-.392.172-.616-.871-1.531-1.647-2.589-1.778-1.338-.164-4.125 1.017-6.077 4.45.207-1.392 1.042-3.522 2.073-4.48 1.204-1.12 2.7-1.526 4.288-1.038 1.273.392 2.416 1.446 2.697 2.673z" stroke="#000" stroke-width=".267" stroke-linecap="round" stroke-linejoin="round"/>
    <path d="M55.184 109.641c3.9.143 7.533-.524 10.011-3.263M67.665 115.266c-.46-1.116-.579-2.664-.114-3.977.466-1.313 1.473-2.437 2.748-3.065 1.958-.966 4.32-.726 6.43-.129 2.107.597 4.121 1.526 6.282 1.903.454.079.943.128 1.355-.069.413-.198.682-.735.433-1.111M50.887 105.203a3.677 3.677 0 0 0-1.51-1.365c-.314-.153-.698-.261-1.008-.101-.375.194-.46.713-.282 1.087.179.375.547.627.918.828M81.111 88.874c-.884.11-1.81-.14-2.508-.68M65.234 85.323c-.352.362-.698.79-1.052 1.153.33.239.473.321.802.56" stroke="#000" stroke-width=".267" stroke-linecap="round" stroke-linejoin="round"/>
    <path fill-rule="evenodd" clip-rule="evenodd" d="M80.086 88.877c-.106 1.594-.242 3.217-.85 4.702-.608 1.486-1.764 2.839-3.332 3.324-1.02.316-2.14.241-3.156-.085s-1.935-.892-2.767-1.546c-2.604-2.048-4.413-5.03-4.995-8.235 2.093 1.625 5.7 2.801 8.356 3.155 2.655.353 4.889 0 6.744-1.315" fill="#000"/>
    <mask id="bc42rhknjt" style="mask-type:alpha" maskUnits="userSpaceOnUse" x="64" y="87" width="17" height="11">
        <path fill-rule="evenodd" clip-rule="evenodd" d="M73.342 90.191c2.656.355 4.89 0 6.744-1.315-.106 1.596-.241 3.218-.85 4.704-.607 1.484-1.764 2.837-3.331 3.324-1.02.315-2.14.24-3.156-.086-1.016-.326-1.935-.892-2.767-1.546-2.605-2.048-4.413-5.03-4.995-8.235 2.093 1.626 5.7 2.802 8.355 3.154" fill="#fff"/>
    </mask>
    <g mask="url(#bc42rhknjt)">
        <path fill-rule="evenodd" clip-rule="evenodd" d="M69.454 91.097c-1.82-.69-2.424-1.902-2.537-3.346.016.208 2.449.725 2.73.797a39.566 39.566 0 0 0 7.183 1.13c.284.017 1.018-.082 1.212.165.45.57-3.136 3.32-8.588 1.254" fill="#fff"/>
    </g>
    <mask id="fd3d8thgsu" style="mask-type:alpha" maskUnits="userSpaceOnUse" x="64" y="87" width="17" height="11">
        <path fill-rule="evenodd" clip-rule="evenodd" d="M73.342 90.191c2.656.355 4.89 0 6.744-1.315-.106 1.596-.241 3.218-.85 4.704-.607 1.484-1.764 2.837-3.331 3.324-1.02.315-2.14.24-3.156-.086-1.016-.326-1.935-.892-2.767-1.546-2.605-2.048-4.413-5.03-4.995-8.235 2.093 1.626 5.7 2.802 8.355 3.154z" fill="#fff"/>
    </mask>
    <g mask="url(#fd3d8thgsu)">
        <path clip-rule="evenodd" d="M69.454 91.097c-1.82-.69-2.424-1.902-2.537-3.346.016.208 2.449.725 2.73.797a39.566 39.566 0 0 0 7.183 1.13c.284.017 1.018-.082 1.212.165.45.57-3.136 3.32-8.588 1.254z" stroke="#000" stroke-width=".267" stroke-linecap="round" stroke-linejoin="round"/>
    </g>
    <mask id="fn70wie86v" style="mask-type:alpha" maskUnits="userSpaceOnUse" x="64" y="87" width="17" height="11">
        <path fill-rule="evenodd" clip-rule="evenodd" d="M73.342 90.191c2.656.355 4.89 0 6.744-1.315-.106 1.596-.241 3.218-.85 4.704-.607 1.484-1.764 2.837-3.331 3.324-1.02.315-2.14.24-3.156-.086-1.016-.326-1.935-.892-2.767-1.546-2.605-2.048-4.413-5.03-4.995-8.235 2.093 1.626 5.7 2.802 8.355 3.154" fill="#fff"/>
    </mask>
    <g mask="url(#fn70wie86v)">
        <path fill-rule="evenodd" clip-rule="evenodd" d="M79.801 93.452a11.094 11.094 0 0 0-4.783-.59c-1.068.104-2.134.37-3.055.907-.92.537-1.686 1.363-2.01 2.357.858.65 1.707 1.327 2.708 1.74 1 .415 2.106.632 3.184.491a4.935 4.935 0 0 0 3.133-1.72c.77-.93.928-1.995.823-3.185" fill="#F38AAB"/>
    </g>
</svg>
