<svg width="778" height="205" viewBox="0 0 778 205" fill="none" xmlns="http://www.w3.org/2000/svg">
<path d="M93.5265 60.6771C93.6174 61.417 93.4447 62.0138 93.0085 62.4675C92.5722 62.9212 91.9066 63.203 91.0116 63.3128L90.275 63.4033L90.6005 66.0543L89.4422 66.1965L88.5722 59.111L90.6125 58.8605C91.4978 58.7518 92.1824 58.8514 92.6662 59.1593C93.1533 59.4669 93.4401 59.9728 93.5265 60.6771ZM90.1554 62.4292L90.7709 62.3536C91.3654 62.2806 91.7888 62.1237 92.0413 61.8828C92.2938 61.6419 92.393 61.3017 92.3391 60.8623C92.2891 60.4552 92.1274 60.1668 91.854 59.997C91.5807 59.8272 91.1807 59.7747 90.654 59.8393L89.8495 59.9381L90.1554 62.4292ZM100.249 62.1393C100.356 63.0149 100.215 63.7258 99.8267 64.2721C99.4379 64.8183 98.8428 65.1406 98.0415 65.239C97.5408 65.3005 97.0842 65.2418 96.672 65.0628C96.2597 64.8839 95.9242 64.5955 95.6655 64.1976C95.4067 63.7997 95.243 63.3213 95.1744 62.7624C95.0677 61.8932 95.2073 61.1874 95.5933 60.6448C95.9792 60.1021 96.5777 59.781 97.3887 59.6815C98.1641 59.5863 98.8087 59.7613 99.3226 60.2065C99.836 60.6486 100.145 61.2928 100.249 62.1393ZM96.3472 62.6184C96.4992 63.8558 97.0323 64.4184 97.9467 64.3061C98.8513 64.1951 99.2277 63.5208 99.0758 62.2833C98.9254 61.0588 98.3947 60.5025 97.4835 60.6144C97.0054 60.6731 96.6775 60.874 96.4999 61.2172C96.3255 61.5601 96.2746 62.0271 96.3472 62.6184ZM104.185 63.55C104.463 63.5159 104.735 63.4382 105.002 63.3168L105.108 64.1746C104.988 64.245 104.831 64.3103 104.635 64.3704C104.443 64.4334 104.24 64.478 104.026 64.5042C102.947 64.6367 102.338 64.1343 102.198 62.997L101.844 60.1085L101.112 60.1984L101.05 59.6943L101.784 59.1812L102.032 57.9995L102.735 57.9132L102.881 59.1054L104.408 58.918L104.514 59.7806L102.987 59.9681L103.34 62.8372C103.373 63.1118 103.466 63.307 103.618 63.4228C103.773 63.535 103.962 63.5774 104.185 63.55ZM108.945 63.9002C108.112 64.0026 107.429 63.8404 106.898 63.4137C106.37 62.9833 106.053 62.3417 105.948 61.4887C105.841 60.6131 105.974 59.8981 106.349 59.3438C106.724 58.7894 107.292 58.4654 108.055 58.3718C108.762 58.2849 109.348 58.4312 109.811 58.8105C110.274 59.1898 110.552 59.7559 110.644 60.5087L110.72 61.1242L107.148 61.5628C107.228 62.081 107.418 62.4644 107.717 62.7129C108.016 62.9582 108.406 63.0514 108.888 62.9922C109.204 62.9534 109.495 62.8882 109.759 62.7967C110.026 62.7016 110.308 62.5653 110.604 62.3879L110.718 63.3136C110.456 63.4802 110.187 63.6084 109.909 63.6982C109.632 63.7881 109.31 63.8554 108.945 63.9002ZM108.161 59.2345C107.799 59.2789 107.522 59.4293 107.331 59.6857C107.142 59.9417 107.054 60.2919 107.066 60.7365L109.499 60.4378C109.438 59.9959 109.291 59.6746 109.056 59.4738C108.821 59.2698 108.523 59.19 108.161 59.2345ZM117.424 62.7608L116.28 62.9012L115.875 59.6057C115.825 59.1921 115.703 58.8939 115.51 58.7109C115.32 58.5276 115.044 58.4582 114.682 58.5026C114.201 58.5617 113.866 58.7471 113.678 59.0588C113.49 59.3705 113.437 59.8608 113.519 60.5296L113.847 63.1999L112.708 63.3398L112.05 57.9797L112.942 57.8702L113.188 58.5533L113.246 58.5461C113.376 58.271 113.582 58.0458 113.862 57.8703C114.142 57.6949 114.463 57.585 114.825 57.5406C116.111 57.3827 116.834 57.958 116.995 59.2665L117.424 62.7608ZM121.301 61.4484C121.579 61.4143 121.852 61.3365 122.119 61.2152L122.224 62.073C122.105 62.1434 121.947 62.2087 121.751 62.2688C121.559 62.3318 121.356 62.3764 121.143 62.4025C120.064 62.535 119.454 62.0326 119.315 60.8954L118.96 58.0069L118.228 58.0967L118.166 57.5927L118.9 57.0795L119.149 55.8979L119.851 55.8116L119.998 57.0038L121.524 56.8163L121.63 57.679L120.104 57.8665L120.456 60.7355C120.49 61.0102 120.583 61.2054 120.735 61.3212C120.889 61.4334 121.078 61.4758 121.301 61.4484ZM124.848 61.8492L123.709 61.9891L123.051 56.6289L124.19 56.4891L124.848 61.8492ZM122.809 55.2173C122.784 55.0137 122.819 54.8503 122.916 54.7269C123.015 54.6032 123.168 54.5286 123.375 54.5033C123.575 54.4787 123.737 54.5145 123.861 54.6109C123.987 54.7069 124.063 54.8566 124.088 55.0602C124.112 55.254 124.074 55.4145 123.975 55.5414C123.879 55.6648 123.73 55.7387 123.53 55.7633C123.323 55.7887 123.156 55.7534 123.03 55.6575C122.906 55.5579 122.832 55.4111 122.809 55.2173ZM130.232 61.1882L129.912 60.4698L129.874 60.4746C129.655 60.8326 129.422 61.0875 129.175 61.2392C128.928 61.3876 128.599 61.487 128.189 61.5374C127.662 61.6021 127.233 61.5105 126.901 61.2627C126.572 61.0144 126.375 60.6302 126.311 60.1101C126.244 59.5576 126.398 59.1156 126.773 58.7841C127.149 58.4526 127.756 58.2224 128.592 58.0934L129.514 57.9507L129.479 57.6647C129.437 57.3223 129.325 57.0769 129.143 56.9288C128.964 56.777 128.706 56.7217 128.37 56.7629C128.095 56.7967 127.837 56.8694 127.595 56.9811C127.353 57.0928 127.122 57.2179 126.903 57.3563L126.435 56.5873C126.707 56.3998 127.011 56.246 127.347 56.126C127.683 56.0028 128.004 55.9223 128.311 55.8846C128.993 55.8009 129.525 55.8865 129.907 56.1413C130.293 56.3957 130.524 56.8411 130.603 57.4776L131.046 61.0882L130.232 61.1882ZM128.44 60.621C128.854 60.5702 129.171 60.4149 129.392 60.1549C129.615 59.8914 129.701 59.5512 129.65 59.1344L129.593 58.6691L128.908 58.7827C128.374 58.868 127.994 59.0064 127.769 59.1981C127.546 59.3862 127.455 59.645 127.495 59.9746C127.524 60.2136 127.618 60.3907 127.777 60.5057C127.935 60.6175 128.156 60.6559 128.44 60.621ZM134.172 60.7044L133.033 60.8443L132.107 53.3033L133.246 53.1634L134.172 60.7044ZM141.725 55.8759L144.332 55.5557L144.769 59.113C144.359 59.3043 143.961 59.4532 143.574 59.5598C143.19 59.666 142.77 59.747 142.315 59.8029C141.242 59.9346 140.376 59.7196 139.717 59.1577C139.057 58.5926 138.656 57.7317 138.514 56.5751C138.374 55.4345 138.593 54.5025 139.17 53.779C139.746 53.0523 140.61 52.6183 141.76 52.4771C142.5 52.3863 143.218 52.4423 143.915 52.6453L143.627 53.6598C143.019 53.4654 142.428 53.4036 141.853 53.4742C141.097 53.567 140.528 53.8779 140.147 54.4068C139.766 54.9357 139.626 55.6121 139.727 56.436C139.833 57.3019 140.111 57.9368 140.561 58.3407C141.014 58.741 141.612 58.8956 142.355 58.8043C142.729 58.7583 143.124 58.6623 143.539 58.5162L143.315 56.6891L141.847 56.8694L141.725 55.8759ZM150.139 58.7438L149.82 58.0255L149.781 58.0302C149.563 58.3883 149.33 58.6432 149.083 58.7948C148.836 58.9433 148.507 59.0427 148.096 59.0931C147.57 59.1577 147.14 59.0662 146.808 58.8183C146.479 58.5701 146.283 58.1859 146.219 57.6657C146.151 57.1132 146.305 56.6712 146.681 56.3398C147.057 56.0083 147.663 55.7781 148.5 55.6491L149.422 55.5063L149.387 55.2204C149.345 54.8779 149.233 54.6326 149.051 54.4844C148.871 54.3326 148.614 54.2773 148.278 54.3186C148.003 54.3523 147.745 54.425 147.502 54.5368C147.26 54.6485 147.03 54.7735 146.811 54.912L146.342 54.143C146.614 53.9554 146.919 53.8017 147.255 53.6817C147.591 53.5584 147.912 53.478 148.219 53.4403C148.901 53.3566 149.433 53.4421 149.815 53.6969C150.2 53.9513 150.432 54.3968 150.51 55.0333L150.953 58.6439L150.139 58.7438ZM148.348 58.1767C148.761 58.1259 149.078 57.9705 149.299 57.7106C149.523 57.447 149.609 57.1068 149.558 56.6901L149.5 56.2248L148.816 56.3384C148.282 56.4236 147.902 56.5621 147.676 56.7538C147.453 56.9419 147.362 57.2007 147.403 57.5302C147.432 57.7693 147.526 57.9464 147.684 58.0614C147.842 58.1732 148.064 58.2116 148.348 58.1767ZM154.079 58.2601L152.94 58.3999L152.282 53.0398L153.421 52.9L154.079 58.2601ZM152.04 51.6281C152.015 51.4246 152.05 51.2611 152.147 51.1378C152.246 51.0141 152.4 50.9395 152.606 50.9141C152.807 50.8895 152.969 50.9254 153.092 51.0218C153.218 51.1177 153.294 51.2675 153.319 51.471C153.343 51.6649 153.305 51.8253 153.206 51.9523C153.11 52.0756 152.961 52.1496 152.761 52.1742C152.554 52.1996 152.388 52.1643 152.261 52.0683C152.137 51.9687 152.064 51.822 152.04 51.6281ZM160.825 57.4318L159.681 57.5723L159.276 54.2767C159.226 53.8631 159.104 53.5649 158.911 53.382C158.721 53.1986 158.445 53.1292 158.083 53.1736C157.602 53.2327 157.267 53.4181 157.079 53.7298C156.891 54.0415 156.838 54.5318 156.92 55.2006L157.248 57.871L156.109 58.0108L155.451 52.6507L156.343 52.5412L156.589 53.2243L156.647 53.2171C156.777 52.9421 156.983 52.7168 157.263 52.5414C157.543 52.3659 157.864 52.256 158.226 52.2116C159.512 52.0537 160.235 52.629 160.396 53.9375L160.825 57.4318ZM166.22 55.2197C166.284 55.7431 166.143 56.1688 165.796 56.4967C165.449 56.8214 164.92 57.0273 164.209 57.1146C163.495 57.2023 162.909 57.1645 162.449 57.0012L162.328 56.0173C162.994 56.2308 163.598 56.3042 164.141 56.2375C164.842 56.1514 165.167 55.8968 165.115 55.4735C165.098 55.3378 165.046 55.2295 164.957 55.1485C164.868 55.0676 164.729 54.9896 164.54 54.9145C164.35 54.8393 164.089 54.7598 163.758 54.6759C163.111 54.5126 162.663 54.3249 162.414 54.1128C162.168 53.9003 162.022 53.6034 161.975 53.2221C161.919 52.7634 162.059 52.3853 162.397 52.0881C162.737 51.7872 163.225 51.5977 163.862 51.5196C164.492 51.4422 165.104 51.4966 165.697 51.6829L165.434 52.5859C164.827 52.4178 164.326 52.358 163.931 52.4064C163.331 52.4802 163.051 52.6883 163.093 53.0308C163.114 53.1988 163.209 53.3314 163.378 53.4287C163.551 53.5256 163.913 53.6435 164.464 53.7823C164.928 53.8992 165.269 54.0165 165.487 54.134C165.704 54.2516 165.873 54.3981 165.993 54.5736C166.113 54.7459 166.188 54.9613 166.22 55.2197Z" fill="#7B7D7E"/>
<path d="M692 5L681.393 0.435473L682.744 11.9033L692 5ZM89.1169 76.9931L683.179 7.04557L682.945 5.05929L88.8831 75.0069L89.1169 76.9931Z" fill="#C6C7C8"/>
<path d="M93.6328 154.539C93.5849 155.282 93.3045 155.837 92.7917 156.202C92.2789 156.567 91.5726 156.72 90.6728 156.662L89.9322 156.615L89.7605 159.28L88.5959 159.205L89.0548 152.081L91.1062 152.213C91.9963 152.27 92.6505 152.495 93.0688 152.888C93.4905 153.28 93.6784 153.83 93.6328 154.539ZM89.9952 155.635L90.6141 155.675C91.2118 155.713 91.657 155.638 91.9498 155.448C92.2426 155.258 92.4032 154.942 92.4316 154.5C92.458 154.091 92.3526 153.778 92.1154 153.56C91.8783 153.343 91.495 153.217 90.9655 153.183L90.1566 153.131L89.9952 155.635ZM99.9672 157.222C99.9105 158.102 99.6405 158.775 99.1571 159.239C98.6738 159.704 98.0293 159.91 97.2237 159.858C96.7201 159.826 96.2824 159.684 95.9105 159.431C95.5386 159.179 95.2624 158.833 95.0819 158.395C94.9014 157.956 94.8293 157.455 94.8655 156.893C94.9218 156.019 95.1898 155.352 95.6697 154.89C96.1496 154.428 96.7972 154.224 97.6126 154.276C98.3922 154.326 98.9932 154.618 99.4156 155.151C99.8381 155.68 100.022 156.371 99.9672 157.222ZM96.0447 156.969C95.9645 158.213 96.3841 158.865 97.3034 158.924C98.213 158.983 98.7079 158.39 98.788 157.146C98.8673 155.915 98.4489 155.27 97.5329 155.211C97.0521 155.18 96.6926 155.316 96.4545 155.621C96.2196 155.925 96.083 156.375 96.0447 156.969ZM103.574 159.338C103.853 159.356 104.135 159.33 104.42 159.26L104.365 160.123C104.234 160.17 104.067 160.205 103.864 160.228C103.663 160.254 103.455 160.26 103.241 160.246C102.156 160.176 101.65 159.57 101.724 158.426L101.911 155.522L101.175 155.475L101.208 154.968L102.024 154.6L102.488 153.484L103.194 153.53L103.117 154.729L104.652 154.828L104.596 155.695L103.061 155.596L102.875 158.481C102.858 158.757 102.913 158.966 103.04 159.108C103.172 159.247 103.349 159.323 103.574 159.338ZM108.186 160.565C107.348 160.511 106.708 160.225 106.265 159.707C105.826 159.186 105.633 158.497 105.689 157.639C105.745 156.759 106.009 156.081 106.48 155.606C106.951 155.131 107.57 154.918 108.337 154.967C109.048 155.013 109.596 155.265 109.981 155.724C110.366 156.182 110.534 156.79 110.485 157.547L110.445 158.166L106.854 157.935C106.836 158.459 106.952 158.87 107.2 159.17C107.448 159.467 107.814 159.631 108.298 159.662C108.617 159.682 108.914 159.672 109.191 159.631C109.471 159.587 109.773 159.506 110.097 159.386L110.037 160.317C109.749 160.432 109.461 160.508 109.171 160.545C108.882 160.582 108.554 160.588 108.186 160.565ZM108.281 155.834C107.917 155.811 107.617 155.907 107.381 156.124C107.149 156.34 106.997 156.668 106.927 157.107L109.373 157.265C109.395 156.82 109.309 156.476 109.116 156.236C108.923 155.992 108.645 155.858 108.281 155.834ZM116.729 161.017L115.579 160.943L115.793 157.63C115.82 157.214 115.755 156.898 115.599 156.683C115.447 156.467 115.189 156.348 114.825 156.324C114.341 156.293 113.978 156.413 113.735 156.685C113.493 156.956 113.35 157.428 113.306 158.101L113.133 160.785L111.988 160.712L112.335 155.322L113.232 155.38L113.347 156.097L113.406 156.101C113.585 155.855 113.828 155.671 114.136 155.551C114.444 155.431 114.78 155.382 115.143 155.406C116.436 155.489 117.04 156.188 116.956 157.504L116.729 161.017ZM120.783 160.446C121.062 160.464 121.344 160.439 121.629 160.369L121.574 161.231C121.444 161.278 121.277 161.313 121.073 161.336C120.872 161.362 120.665 161.368 120.45 161.355C119.365 161.285 118.86 160.678 118.933 159.535L119.12 156.631L118.385 156.583L118.417 156.076L119.234 155.708L119.697 154.593L120.403 154.639L120.326 155.837L121.861 155.936L121.805 156.803L120.27 156.705L120.085 159.589C120.067 159.865 120.122 160.074 120.25 160.216C120.381 160.355 120.559 160.432 120.783 160.446ZM124.194 161.498L123.049 161.424L123.396 156.035L124.541 156.109L124.194 161.498ZM123.419 154.603C123.433 154.398 123.498 154.244 123.616 154.141C123.736 154.038 123.901 153.993 124.109 154.006C124.31 154.019 124.462 154.085 124.566 154.202C124.672 154.32 124.719 154.481 124.706 154.686C124.693 154.881 124.626 155.031 124.505 155.138C124.388 155.241 124.228 155.286 124.027 155.273C123.819 155.26 123.662 155.194 123.555 155.076C123.452 154.956 123.407 154.798 123.419 154.603ZM129.607 161.847L129.426 161.081L129.387 161.079C129.106 161.39 128.83 161.598 128.559 161.701C128.289 161.801 127.947 161.838 127.534 161.811C127.005 161.777 126.6 161.607 126.32 161.302C126.042 160.997 125.921 160.583 125.954 160.06C125.99 159.505 126.223 159.099 126.654 158.843C127.085 158.587 127.723 158.473 128.57 158.502L129.502 158.532L129.521 158.245C129.543 157.9 129.478 157.639 129.327 157.459C129.179 157.277 128.936 157.175 128.598 157.153C128.322 157.135 128.054 157.159 127.796 157.224C127.537 157.288 127.287 157.369 127.046 157.464L126.729 156.622C127.031 156.488 127.358 156.393 127.711 156.337C128.064 156.279 128.394 156.259 128.703 156.279C129.388 156.323 129.895 156.506 130.224 156.827C130.555 157.149 130.7 157.629 130.659 158.269L130.425 161.899L129.607 161.847ZM127.952 160.957C128.367 160.984 128.708 160.89 128.973 160.676C129.241 160.458 129.389 160.14 129.416 159.721L129.446 159.253L128.752 159.237C128.212 159.222 127.813 159.288 127.555 159.434C127.302 159.578 127.164 159.815 127.143 160.147C127.127 160.387 127.187 160.578 127.321 160.721C127.455 160.86 127.666 160.939 127.952 160.957ZM133.568 162.102L132.423 162.028L132.911 154.446L134.056 154.52L133.568 162.102ZM138.722 162.434L139.181 155.31L140.346 155.385L139.951 161.51L142.968 161.704L142.903 162.703L138.722 162.434ZM149.363 160.404C149.306 161.284 149.036 161.957 148.553 162.421C148.069 162.886 147.425 163.092 146.619 163.04C146.116 163.008 145.678 162.866 145.306 162.613C144.934 162.361 144.658 162.015 144.478 161.576C144.297 161.138 144.225 160.637 144.261 160.075C144.317 159.201 144.586 158.533 145.065 158.072C145.545 157.61 146.193 157.406 147.008 157.458C147.788 157.508 148.389 157.8 148.811 158.333C149.234 158.862 149.418 159.553 149.363 160.404ZM145.44 160.151C145.36 161.395 145.78 162.047 146.699 162.106C147.609 162.165 148.104 161.572 148.184 160.328C148.263 159.097 147.845 158.451 146.929 158.392C146.448 158.361 146.088 158.498 145.85 158.803C145.615 159.107 145.479 159.557 145.44 160.151ZM154.628 161.917C154.594 162.443 154.376 162.835 153.974 163.093C153.573 163.348 153.015 163.452 152.301 163.406C151.583 163.36 151.013 163.214 150.592 162.968L150.655 161.979C151.27 162.312 151.85 162.497 152.396 162.532C153.101 162.577 153.467 162.387 153.495 161.962C153.503 161.825 153.472 161.709 153.4 161.613C153.327 161.517 153.205 161.415 153.033 161.306C152.86 161.197 152.619 161.07 152.309 160.926C151.704 160.646 151.298 160.378 151.093 160.124C150.891 159.869 150.802 159.55 150.827 159.167C150.857 158.706 151.065 158.36 151.451 158.131C151.841 157.898 152.357 157.803 152.996 157.844C153.63 157.885 154.221 158.052 154.77 158.345L154.344 159.183C153.778 158.905 153.297 158.754 152.9 158.728C152.296 158.689 151.983 158.842 151.961 159.186C151.95 159.355 152.019 159.503 152.167 159.63C152.319 159.757 152.653 159.94 153.169 160.179C153.603 160.38 153.916 160.558 154.108 160.714C154.3 160.87 154.439 161.045 154.524 161.24C154.61 161.432 154.644 161.657 154.628 161.917ZM159.89 162.256C159.856 162.782 159.638 163.174 159.237 163.432C158.835 163.687 158.277 163.791 157.563 163.745C156.845 163.699 156.275 163.553 155.854 163.307L155.918 162.318C156.532 162.651 157.112 162.836 157.658 162.871C158.363 162.916 158.729 162.726 158.757 162.301C158.765 162.164 158.734 162.048 158.662 161.952C158.59 161.856 158.467 161.753 158.295 161.645C158.123 161.536 157.881 161.409 157.571 161.265C156.966 160.985 156.561 160.717 156.355 160.463C156.153 160.208 156.064 159.889 156.089 159.506C156.119 159.045 156.327 158.699 156.714 158.47C157.104 158.237 157.619 158.142 158.259 158.183C158.892 158.224 159.483 158.391 160.032 158.684L159.606 159.522C159.04 159.244 158.559 159.093 158.162 159.067C157.558 159.028 157.245 159.181 157.223 159.525C157.212 159.694 157.281 159.842 157.429 159.969C157.581 160.096 157.915 160.279 158.431 160.518C158.865 160.719 159.178 160.897 159.37 161.053C159.563 161.209 159.701 161.384 159.787 161.579C159.872 161.771 159.907 161.996 159.89 162.256ZM163.78 164.146C162.942 164.092 162.301 163.806 161.858 163.288C161.419 162.767 161.227 162.078 161.282 161.22C161.339 160.34 161.603 159.662 162.074 159.187C162.545 158.712 163.163 158.499 163.93 158.548C164.641 158.594 165.19 158.846 165.574 159.305C165.959 159.763 166.127 160.371 166.078 161.128L166.038 161.747L162.447 161.516C162.43 162.04 162.545 162.452 162.793 162.751C163.042 163.048 163.408 163.212 163.892 163.243C164.21 163.263 164.508 163.253 164.784 163.212C165.064 163.168 165.367 163.087 165.691 162.967L165.631 163.898C165.343 164.013 165.054 164.089 164.765 164.126C164.475 164.163 164.147 164.169 163.78 164.146ZM163.874 159.416C163.51 159.392 163.211 159.489 162.975 159.705C162.742 159.922 162.591 160.249 162.52 160.689L164.966 160.846C164.988 160.401 164.903 160.058 164.709 159.817C164.516 159.573 164.238 159.439 163.874 159.416ZM171.301 162.991C171.267 163.517 171.049 163.91 170.648 164.167C170.246 164.422 169.688 164.526 168.974 164.48C168.256 164.434 167.686 164.288 167.265 164.043L167.329 163.053C167.943 163.387 168.524 163.571 169.069 163.606C169.774 163.651 170.14 163.461 170.168 163.036C170.177 162.899 170.145 162.783 170.073 162.687C170.001 162.591 169.878 162.489 169.706 162.38C169.534 162.271 169.292 162.144 168.982 162C168.377 161.72 167.972 161.452 167.766 161.198C167.564 160.943 167.475 160.624 167.5 160.241C167.53 159.78 167.738 159.434 168.125 159.205C168.515 158.972 169.03 158.877 169.67 158.918C170.303 158.959 170.894 159.126 171.443 159.419L171.017 160.257C170.451 159.979 169.97 159.828 169.574 159.802C168.969 159.763 168.656 159.916 168.634 160.26C168.623 160.429 168.692 160.577 168.84 160.704C168.992 160.831 169.326 161.014 169.842 161.253C170.276 161.454 170.589 161.632 170.781 161.788C170.974 161.944 171.112 162.12 171.198 162.314C171.283 162.506 171.318 162.731 171.301 162.991Z" fill="#7B7D7E"/>
<path d="M692 179L682.393 172.594L681.649 184.117L692 179ZM87.9356 140.998L682.954 179.418L683.083 177.422L88.0644 139.002L87.9356 140.998Z" fill="#C6C7C8"/>
<rect y="106.814" width="778" height="2" rx="1" fill="#DDDEDE"/>
<path d="M81.6689 196.02C81.6689 196.765 81.4248 197.336 80.9365 197.733C80.4482 198.131 79.7533 198.329 78.8516 198.329H78.1094V201H76.9424V193.861H78.998C79.89 193.861 80.5573 194.044 81 194.408C81.446 194.773 81.6689 195.31 81.6689 196.02ZM78.1094 197.348H78.7295C79.3285 197.348 79.7679 197.243 80.0479 197.035C80.3278 196.827 80.4678 196.501 80.4678 196.059C80.4678 195.648 80.3424 195.342 80.0918 195.141C79.8411 194.939 79.4505 194.838 78.9199 194.838H78.1094V197.348ZM88.1627 198.29C88.1627 199.172 87.9365 199.861 87.484 200.355C87.0315 200.85 86.4016 201.098 85.5943 201.098C85.0898 201.098 84.6438 200.984 84.2564 200.756C83.8691 200.528 83.5712 200.201 83.3629 199.774C83.1546 199.348 83.0504 198.853 83.0504 198.29C83.0504 197.414 83.275 196.731 83.7242 196.239C84.1734 195.748 84.8066 195.502 85.6236 195.502C86.4049 195.502 87.0234 195.754 87.4791 196.259C87.9348 196.76 88.1627 197.437 88.1627 198.29ZM84.232 198.29C84.232 199.537 84.6926 200.16 85.6139 200.16C86.5253 200.16 86.9811 199.537 86.9811 198.29C86.9811 197.056 86.5221 196.439 85.6041 196.439C85.1223 196.439 84.7724 196.599 84.5543 196.918C84.3395 197.237 84.232 197.694 84.232 198.29ZM92.6252 195.502C92.8563 195.502 93.0467 195.518 93.1965 195.551L93.0842 196.62C92.9214 196.581 92.7521 196.562 92.5764 196.562C92.1174 196.562 91.7447 196.711 91.4582 197.011C91.175 197.31 91.0334 197.699 91.0334 198.178V201H89.8859V195.6H90.7844L90.9357 196.552H90.9943C91.1734 196.229 91.4061 195.974 91.6926 195.785C91.9823 195.596 92.2932 195.502 92.6252 195.502ZM96.6141 200.17C96.894 200.17 97.174 200.126 97.4539 200.038V200.902C97.327 200.958 97.1626 201.003 96.9607 201.039C96.7622 201.078 96.5555 201.098 96.3406 201.098C95.2534 201.098 94.7098 200.525 94.7098 199.379V196.469H93.9725V195.961L94.7635 195.541L95.1541 194.398H95.8621V195.6H97.4002V196.469H95.8621V199.359C95.8621 199.636 95.9305 199.841 96.0672 199.975C96.2072 200.105 96.3895 200.17 96.6141 200.17ZM101.648 196.469H100.329V201H99.1771V196.469H98.2885V195.932L99.1771 195.58V195.229C99.1771 194.59 99.3269 194.118 99.6264 193.812C99.9258 193.503 100.383 193.349 100.998 193.349C101.402 193.349 101.799 193.415 102.19 193.549L101.887 194.418C101.604 194.327 101.334 194.281 101.077 194.281C100.816 194.281 100.626 194.363 100.505 194.525C100.388 194.685 100.329 194.926 100.329 195.248V195.6H101.648V196.469ZM107.761 198.29C107.761 199.172 107.535 199.861 107.082 200.355C106.63 200.85 106 201.098 105.192 201.098C104.688 201.098 104.242 200.984 103.854 200.756C103.467 200.528 103.169 200.201 102.961 199.774C102.753 199.348 102.648 198.853 102.648 198.29C102.648 197.414 102.873 196.731 103.322 196.239C103.771 195.748 104.405 195.502 105.222 195.502C106.003 195.502 106.621 195.754 107.077 196.259C107.533 196.76 107.761 197.437 107.761 198.29ZM103.83 198.29C103.83 199.537 104.291 200.16 105.212 200.16C106.123 200.16 106.579 199.537 106.579 198.29C106.579 197.056 106.12 196.439 105.202 196.439C104.72 196.439 104.37 196.599 104.152 196.918C103.938 197.237 103.83 197.694 103.83 198.29ZM110.631 201H109.484V193.402H110.631V201ZM113.824 201H112.677V195.6H113.824V201ZM112.609 194.169C112.609 193.964 112.664 193.806 112.775 193.695C112.889 193.585 113.05 193.529 113.258 193.529C113.46 193.529 113.616 193.585 113.727 193.695C113.841 193.806 113.898 193.964 113.898 194.169C113.898 194.364 113.841 194.519 113.727 194.633C113.616 194.743 113.46 194.799 113.258 194.799C113.05 194.799 112.889 194.743 112.775 194.633C112.664 194.519 112.609 194.364 112.609 194.169ZM120.66 198.29C120.66 199.172 120.434 199.861 119.981 200.355C119.529 200.85 118.899 201.098 118.092 201.098C117.587 201.098 117.141 200.984 116.754 200.756C116.366 200.528 116.068 200.201 115.86 199.774C115.652 199.348 115.548 198.853 115.548 198.29C115.548 197.414 115.772 196.731 116.221 196.239C116.671 195.748 117.304 195.502 118.121 195.502C118.902 195.502 119.521 195.754 119.976 196.259C120.432 196.76 120.66 197.437 120.66 198.29ZM116.729 198.29C116.729 199.537 117.19 200.16 118.111 200.16C119.023 200.16 119.478 199.537 119.478 198.29C119.478 197.056 119.019 196.439 118.101 196.439C117.62 196.439 117.27 196.599 117.052 196.918C116.837 197.237 116.729 197.694 116.729 198.29ZM129.932 201L129.219 199.018H126.489L125.791 201H124.561L127.231 193.832H128.501L131.172 201H129.932ZM128.911 198.012L128.242 196.068C128.193 195.938 128.125 195.733 128.037 195.453C127.952 195.173 127.894 194.968 127.861 194.838C127.773 195.238 127.645 195.676 127.476 196.151L126.831 198.012H128.911Z" fill="#7B7D7E"/>
<path d="M223.669 196.02C223.669 196.765 223.425 197.336 222.937 197.733C222.448 198.131 221.753 198.329 220.852 198.329H220.109V201H218.942V193.861H220.998C221.89 193.861 222.557 194.044 223 194.408C223.446 194.773 223.669 195.31 223.669 196.02ZM220.109 197.348H220.729C221.328 197.348 221.768 197.243 222.048 197.035C222.328 196.827 222.468 196.501 222.468 196.059C222.468 195.648 222.342 195.342 222.092 195.141C221.841 194.939 221.451 194.838 220.92 194.838H220.109V197.348ZM230.163 198.29C230.163 199.172 229.936 199.861 229.484 200.355C229.032 200.85 228.402 201.098 227.594 201.098C227.09 201.098 226.644 200.984 226.256 200.756C225.869 200.528 225.571 200.201 225.363 199.774C225.155 199.348 225.05 198.853 225.05 198.29C225.05 197.414 225.275 196.731 225.724 196.239C226.173 195.748 226.807 195.502 227.624 195.502C228.405 195.502 229.023 195.754 229.479 196.259C229.935 196.76 230.163 197.437 230.163 198.29ZM226.232 198.29C226.232 199.537 226.693 200.16 227.614 200.16C228.525 200.16 228.981 199.537 228.981 198.29C228.981 197.056 228.522 196.439 227.604 196.439C227.122 196.439 226.772 196.599 226.554 196.918C226.339 197.237 226.232 197.694 226.232 198.29ZM234.625 195.502C234.856 195.502 235.047 195.518 235.196 195.551L235.084 196.62C234.921 196.581 234.752 196.562 234.576 196.562C234.117 196.562 233.745 196.711 233.458 197.011C233.175 197.31 233.033 197.699 233.033 198.178V201H231.886V195.6H232.784L232.936 196.552H232.994C233.173 196.229 233.406 195.974 233.693 195.785C233.982 195.596 234.293 195.502 234.625 195.502ZM238.614 200.17C238.894 200.17 239.174 200.126 239.454 200.038V200.902C239.327 200.958 239.163 201.003 238.961 201.039C238.762 201.078 238.555 201.098 238.341 201.098C237.253 201.098 236.71 200.525 236.71 199.379V196.469H235.972V195.961L236.763 195.541L237.154 194.398H237.862V195.6H239.4V196.469H237.862V199.359C237.862 199.636 237.93 199.841 238.067 199.975C238.207 200.105 238.389 200.17 238.614 200.17ZM243.648 196.469H242.329V201H241.177V196.469H240.288V195.932L241.177 195.58V195.229C241.177 194.59 241.327 194.118 241.626 193.812C241.926 193.503 242.383 193.349 242.998 193.349C243.402 193.349 243.799 193.415 244.19 193.549L243.887 194.418C243.604 194.327 243.334 194.281 243.077 194.281C242.816 194.281 242.626 194.363 242.505 194.525C242.388 194.685 242.329 194.926 242.329 195.248V195.6H243.648V196.469ZM249.761 198.29C249.761 199.172 249.535 199.861 249.082 200.355C248.63 200.85 248 201.098 247.192 201.098C246.688 201.098 246.242 200.984 245.854 200.756C245.467 200.528 245.169 200.201 244.961 199.774C244.753 199.348 244.648 198.853 244.648 198.29C244.648 197.414 244.873 196.731 245.322 196.239C245.771 195.748 246.405 195.502 247.222 195.502C248.003 195.502 248.621 195.754 249.077 196.259C249.533 196.76 249.761 197.437 249.761 198.29ZM245.83 198.29C245.83 199.537 246.291 200.16 247.212 200.16C248.123 200.16 248.579 199.537 248.579 198.29C248.579 197.056 248.12 196.439 247.202 196.439C246.72 196.439 246.37 196.599 246.152 196.918C245.938 197.237 245.83 197.694 245.83 198.29ZM252.631 201H251.484V193.402H252.631V201ZM255.824 201H254.677V195.6H255.824V201ZM254.609 194.169C254.609 193.964 254.664 193.806 254.775 193.695C254.889 193.585 255.05 193.529 255.258 193.529C255.46 193.529 255.616 193.585 255.727 193.695C255.841 193.806 255.898 193.964 255.898 194.169C255.898 194.364 255.841 194.519 255.727 194.633C255.616 194.743 255.46 194.799 255.258 194.799C255.05 194.799 254.889 194.743 254.775 194.633C254.664 194.519 254.609 194.364 254.609 194.169ZM262.66 198.29C262.66 199.172 262.434 199.861 261.981 200.355C261.529 200.85 260.899 201.098 260.092 201.098C259.587 201.098 259.141 200.984 258.754 200.756C258.366 200.528 258.068 200.201 257.86 199.774C257.652 199.348 257.548 198.853 257.548 198.29C257.548 197.414 257.772 196.731 258.221 196.239C258.671 195.748 259.304 195.502 260.121 195.502C260.902 195.502 261.521 195.754 261.976 196.259C262.432 196.76 262.66 197.437 262.66 198.29ZM258.729 198.29C258.729 199.537 259.19 200.16 260.111 200.16C261.023 200.16 261.478 199.537 261.478 198.29C261.478 197.056 261.019 196.439 260.101 196.439C259.62 196.439 259.27 196.599 259.052 196.918C258.837 197.237 258.729 197.694 258.729 198.29ZM267.503 193.861H269.622C270.605 193.861 271.315 194.005 271.751 194.291C272.19 194.577 272.41 195.03 272.41 195.648C272.41 196.065 272.303 196.412 272.088 196.688C271.873 196.965 271.564 197.139 271.16 197.211V197.26C271.661 197.354 272.029 197.541 272.264 197.821C272.501 198.098 272.62 198.474 272.62 198.949C272.62 199.59 272.396 200.093 271.946 200.458C271.5 200.819 270.879 201 270.081 201H267.503V193.861ZM268.67 196.811H269.793C270.281 196.811 270.638 196.734 270.862 196.581C271.087 196.425 271.199 196.161 271.199 195.79C271.199 195.455 271.077 195.212 270.833 195.062C270.592 194.913 270.208 194.838 269.681 194.838H268.67V196.811ZM268.67 197.758V200.019H269.91C270.398 200.019 270.766 199.926 271.014 199.74C271.264 199.551 271.39 199.255 271.39 198.852C271.39 198.48 271.263 198.205 271.009 198.026C270.755 197.847 270.369 197.758 269.852 197.758H268.67Z" fill="#C6C7C8"/>
<path d="M365.669 196.02C365.669 196.765 365.425 197.336 364.937 197.733C364.448 198.131 363.753 198.329 362.852 198.329H362.109V201H360.942V193.861H362.998C363.89 193.861 364.557 194.044 365 194.408C365.446 194.773 365.669 195.31 365.669 196.02ZM362.109 197.348H362.729C363.328 197.348 363.768 197.243 364.048 197.035C364.328 196.827 364.468 196.501 364.468 196.059C364.468 195.648 364.342 195.342 364.092 195.141C363.841 194.939 363.451 194.838 362.92 194.838H362.109V197.348ZM372.163 198.29C372.163 199.172 371.936 199.861 371.484 200.355C371.032 200.85 370.402 201.098 369.594 201.098C369.09 201.098 368.644 200.984 368.256 200.756C367.869 200.528 367.571 200.201 367.363 199.774C367.155 199.348 367.05 198.853 367.05 198.29C367.05 197.414 367.275 196.731 367.724 196.239C368.173 195.748 368.807 195.502 369.624 195.502C370.405 195.502 371.023 195.754 371.479 196.259C371.935 196.76 372.163 197.437 372.163 198.29ZM368.232 198.29C368.232 199.537 368.693 200.16 369.614 200.16C370.525 200.16 370.981 199.537 370.981 198.29C370.981 197.056 370.522 196.439 369.604 196.439C369.122 196.439 368.772 196.599 368.554 196.918C368.339 197.237 368.232 197.694 368.232 198.29ZM376.625 195.502C376.856 195.502 377.047 195.518 377.196 195.551L377.084 196.62C376.921 196.581 376.752 196.562 376.576 196.562C376.117 196.562 375.745 196.711 375.458 197.011C375.175 197.31 375.033 197.699 375.033 198.178V201H373.886V195.6H374.784L374.936 196.552H374.994C375.173 196.229 375.406 195.974 375.693 195.785C375.982 195.596 376.293 195.502 376.625 195.502ZM380.614 200.17C380.894 200.17 381.174 200.126 381.454 200.038V200.902C381.327 200.958 381.163 201.003 380.961 201.039C380.762 201.078 380.555 201.098 380.341 201.098C379.253 201.098 378.71 200.525 378.71 199.379V196.469H377.972V195.961L378.763 195.541L379.154 194.398H379.862V195.6H381.4V196.469H379.862V199.359C379.862 199.636 379.93 199.841 380.067 199.975C380.207 200.105 380.389 200.17 380.614 200.17ZM385.648 196.469H384.329V201H383.177V196.469H382.288V195.932L383.177 195.58V195.229C383.177 194.59 383.327 194.118 383.626 193.812C383.926 193.503 384.383 193.349 384.998 193.349C385.402 193.349 385.799 193.415 386.19 193.549L385.887 194.418C385.604 194.327 385.334 194.281 385.077 194.281C384.816 194.281 384.626 194.363 384.505 194.525C384.388 194.685 384.329 194.926 384.329 195.248V195.6H385.648V196.469ZM391.761 198.29C391.761 199.172 391.535 199.861 391.082 200.355C390.63 200.85 390 201.098 389.192 201.098C388.688 201.098 388.242 200.984 387.854 200.756C387.467 200.528 387.169 200.201 386.961 199.774C386.753 199.348 386.648 198.853 386.648 198.29C386.648 197.414 386.873 196.731 387.322 196.239C387.771 195.748 388.405 195.502 389.222 195.502C390.003 195.502 390.621 195.754 391.077 196.259C391.533 196.76 391.761 197.437 391.761 198.29ZM387.83 198.29C387.83 199.537 388.291 200.16 389.212 200.16C390.123 200.16 390.579 199.537 390.579 198.29C390.579 197.056 390.12 196.439 389.202 196.439C388.72 196.439 388.37 196.599 388.152 196.918C387.938 197.237 387.83 197.694 387.83 198.29ZM394.631 201H393.484V193.402H394.631V201ZM397.824 201H396.677V195.6H397.824V201ZM396.609 194.169C396.609 193.964 396.664 193.806 396.775 193.695C396.889 193.585 397.05 193.529 397.258 193.529C397.46 193.529 397.616 193.585 397.727 193.695C397.841 193.806 397.898 193.964 397.898 194.169C397.898 194.364 397.841 194.519 397.727 194.633C397.616 194.743 397.46 194.799 397.258 194.799C397.05 194.799 396.889 194.743 396.775 194.633C396.664 194.519 396.609 194.364 396.609 194.169ZM404.66 198.29C404.66 199.172 404.434 199.861 403.981 200.355C403.529 200.85 402.899 201.098 402.092 201.098C401.587 201.098 401.141 200.984 400.754 200.756C400.366 200.528 400.068 200.201 399.86 199.774C399.652 199.348 399.548 198.853 399.548 198.29C399.548 197.414 399.772 196.731 400.221 196.239C400.671 195.748 401.304 195.502 402.121 195.502C402.902 195.502 403.521 195.754 403.976 196.259C404.432 196.76 404.66 197.437 404.66 198.29ZM400.729 198.29C400.729 199.537 401.19 200.16 402.111 200.16C403.023 200.16 403.478 199.537 403.478 198.29C403.478 197.056 403.019 196.439 402.101 196.439C401.62 196.439 401.27 196.599 401.052 196.918C400.837 197.237 400.729 197.694 400.729 198.29ZM412.54 194.76C411.869 194.76 411.342 194.997 410.958 195.473C410.574 195.948 410.382 196.604 410.382 197.44C410.382 198.316 410.566 198.979 410.934 199.428C411.305 199.877 411.84 200.102 412.54 200.102C412.843 200.102 413.136 200.072 413.419 200.014C413.702 199.952 413.997 199.874 414.303 199.779V200.78C413.743 200.992 413.108 201.098 412.398 201.098C411.354 201.098 410.551 200.782 409.991 200.15C409.431 199.516 409.151 198.609 409.151 197.431C409.151 196.688 409.286 196.039 409.557 195.482C409.83 194.926 410.224 194.499 410.738 194.203C411.253 193.907 411.856 193.759 412.55 193.759C413.279 193.759 413.953 193.912 414.571 194.218L414.151 195.189C413.91 195.076 413.655 194.976 413.385 194.892C413.118 194.804 412.836 194.76 412.54 194.76Z" fill="#C6C7C8"/>
<path d="M507.669 196.02C507.669 196.765 507.425 197.336 506.937 197.733C506.448 198.131 505.753 198.329 504.852 198.329H504.109V201H502.942V193.861H504.998C505.89 193.861 506.557 194.044 507 194.408C507.446 194.773 507.669 195.31 507.669 196.02ZM504.109 197.348H504.729C505.328 197.348 505.768 197.243 506.048 197.035C506.328 196.827 506.468 196.501 506.468 196.059C506.468 195.648 506.342 195.342 506.092 195.141C505.841 194.939 505.451 194.838 504.92 194.838H504.109V197.348ZM514.163 198.29C514.163 199.172 513.936 199.861 513.484 200.355C513.032 200.85 512.402 201.098 511.594 201.098C511.09 201.098 510.644 200.984 510.256 200.756C509.869 200.528 509.571 200.201 509.363 199.774C509.155 199.348 509.05 198.853 509.05 198.29C509.05 197.414 509.275 196.731 509.724 196.239C510.173 195.748 510.807 195.502 511.624 195.502C512.405 195.502 513.023 195.754 513.479 196.259C513.935 196.76 514.163 197.437 514.163 198.29ZM510.232 198.29C510.232 199.537 510.693 200.16 511.614 200.16C512.525 200.16 512.981 199.537 512.981 198.29C512.981 197.056 512.522 196.439 511.604 196.439C511.122 196.439 510.772 196.599 510.554 196.918C510.339 197.237 510.232 197.694 510.232 198.29ZM518.625 195.502C518.856 195.502 519.047 195.518 519.196 195.551L519.084 196.62C518.921 196.581 518.752 196.562 518.576 196.562C518.117 196.562 517.745 196.711 517.458 197.011C517.175 197.31 517.033 197.699 517.033 198.178V201H515.886V195.6H516.784L516.936 196.552H516.994C517.173 196.229 517.406 195.974 517.693 195.785C517.982 195.596 518.293 195.502 518.625 195.502ZM522.614 200.17C522.894 200.17 523.174 200.126 523.454 200.038V200.902C523.327 200.958 523.163 201.003 522.961 201.039C522.762 201.078 522.555 201.098 522.341 201.098C521.253 201.098 520.71 200.525 520.71 199.379V196.469H519.972V195.961L520.763 195.541L521.154 194.398H521.862V195.6H523.4V196.469H521.862V199.359C521.862 199.636 521.93 199.841 522.067 199.975C522.207 200.105 522.389 200.17 522.614 200.17ZM527.648 196.469H526.329V201H525.177V196.469H524.288V195.932L525.177 195.58V195.229C525.177 194.59 525.327 194.118 525.626 193.812C525.926 193.503 526.383 193.349 526.998 193.349C527.402 193.349 527.799 193.415 528.19 193.549L527.887 194.418C527.604 194.327 527.334 194.281 527.077 194.281C526.816 194.281 526.626 194.363 526.505 194.525C526.388 194.685 526.329 194.926 526.329 195.248V195.6H527.648V196.469ZM533.761 198.29C533.761 199.172 533.535 199.861 533.082 200.355C532.63 200.85 532 201.098 531.192 201.098C530.688 201.098 530.242 200.984 529.854 200.756C529.467 200.528 529.169 200.201 528.961 199.774C528.753 199.348 528.648 198.853 528.648 198.29C528.648 197.414 528.873 196.731 529.322 196.239C529.771 195.748 530.405 195.502 531.222 195.502C532.003 195.502 532.621 195.754 533.077 196.259C533.533 196.76 533.761 197.437 533.761 198.29ZM529.83 198.29C529.83 199.537 530.291 200.16 531.212 200.16C532.123 200.16 532.579 199.537 532.579 198.29C532.579 197.056 532.12 196.439 531.202 196.439C530.72 196.439 530.37 196.599 530.152 196.918C529.938 197.237 529.83 197.694 529.83 198.29ZM536.631 201H535.484V193.402H536.631V201ZM539.824 201H538.677V195.6H539.824V201ZM538.609 194.169C538.609 193.964 538.664 193.806 538.775 193.695C538.889 193.585 539.05 193.529 539.258 193.529C539.46 193.529 539.616 193.585 539.727 193.695C539.841 193.806 539.898 193.964 539.898 194.169C539.898 194.364 539.841 194.519 539.727 194.633C539.616 194.743 539.46 194.799 539.258 194.799C539.05 194.799 538.889 194.743 538.775 194.633C538.664 194.519 538.609 194.364 538.609 194.169ZM546.66 198.29C546.66 199.172 546.434 199.861 545.981 200.355C545.529 200.85 544.899 201.098 544.092 201.098C543.587 201.098 543.141 200.984 542.754 200.756C542.366 200.528 542.068 200.201 541.86 199.774C541.652 199.348 541.548 198.853 541.548 198.29C541.548 197.414 541.772 196.731 542.221 196.239C542.671 195.748 543.304 195.502 544.121 195.502C544.902 195.502 545.521 195.754 545.976 196.259C546.432 196.76 546.66 197.437 546.66 198.29ZM542.729 198.29C542.729 199.537 543.19 200.16 544.111 200.16C545.023 200.16 545.478 199.537 545.478 198.29C545.478 197.056 545.019 196.439 544.101 196.439C543.62 196.439 543.27 196.599 543.052 196.918C542.837 197.237 542.729 197.694 542.729 198.29ZM557.309 197.362C557.309 198.541 556.981 199.442 556.327 200.067C555.673 200.689 554.73 201 553.5 201H551.503V193.861H553.71C554.846 193.861 555.73 194.167 556.361 194.779C556.993 195.391 557.309 196.252 557.309 197.362ZM556.078 197.401C556.078 195.692 555.279 194.838 553.681 194.838H552.67V200.019H553.5C555.219 200.019 556.078 199.146 556.078 197.401Z" fill="#C6C7C8"/>
<path d="M653.669 196.02C653.669 196.765 653.425 197.336 652.937 197.733C652.448 198.131 651.753 198.329 650.852 198.329H650.109V201H648.942V193.861H650.998C651.89 193.861 652.557 194.044 653 194.408C653.446 194.773 653.669 195.31 653.669 196.02ZM650.109 197.348H650.729C651.328 197.348 651.768 197.243 652.048 197.035C652.328 196.827 652.468 196.501 652.468 196.059C652.468 195.648 652.342 195.342 652.092 195.141C651.841 194.939 651.451 194.838 650.92 194.838H650.109V197.348ZM660.163 198.29C660.163 199.172 659.936 199.861 659.484 200.355C659.032 200.85 658.402 201.098 657.594 201.098C657.09 201.098 656.644 200.984 656.256 200.756C655.869 200.528 655.571 200.201 655.363 199.774C655.155 199.348 655.05 198.853 655.05 198.29C655.05 197.414 655.275 196.731 655.724 196.239C656.173 195.748 656.807 195.502 657.624 195.502C658.405 195.502 659.023 195.754 659.479 196.259C659.935 196.76 660.163 197.437 660.163 198.29ZM656.232 198.29C656.232 199.537 656.693 200.16 657.614 200.16C658.525 200.16 658.981 199.537 658.981 198.29C658.981 197.056 658.522 196.439 657.604 196.439C657.122 196.439 656.772 196.599 656.554 196.918C656.339 197.237 656.232 197.694 656.232 198.29ZM664.625 195.502C664.856 195.502 665.047 195.518 665.196 195.551L665.084 196.62C664.921 196.581 664.752 196.562 664.576 196.562C664.117 196.562 663.745 196.711 663.458 197.011C663.175 197.31 663.033 197.699 663.033 198.178V201H661.886V195.6H662.784L662.936 196.552H662.994C663.173 196.229 663.406 195.974 663.693 195.785C663.982 195.596 664.293 195.502 664.625 195.502ZM668.614 200.17C668.894 200.17 669.174 200.126 669.454 200.038V200.902C669.327 200.958 669.163 201.003 668.961 201.039C668.762 201.078 668.555 201.098 668.341 201.098C667.253 201.098 666.71 200.525 666.71 199.379V196.469H665.972V195.961L666.763 195.541L667.154 194.398H667.862V195.6H669.4V196.469H667.862V199.359C667.862 199.636 667.93 199.841 668.067 199.975C668.207 200.105 668.389 200.17 668.614 200.17ZM673.648 196.469H672.329V201H671.177V196.469H670.288V195.932L671.177 195.58V195.229C671.177 194.59 671.327 194.118 671.626 193.812C671.926 193.503 672.383 193.349 672.998 193.349C673.402 193.349 673.799 193.415 674.19 193.549L673.887 194.418C673.604 194.327 673.334 194.281 673.077 194.281C672.816 194.281 672.626 194.363 672.505 194.525C672.388 194.685 672.329 194.926 672.329 195.248V195.6H673.648V196.469ZM679.761 198.29C679.761 199.172 679.535 199.861 679.082 200.355C678.63 200.85 678 201.098 677.192 201.098C676.688 201.098 676.242 200.984 675.854 200.756C675.467 200.528 675.169 200.201 674.961 199.774C674.753 199.348 674.648 198.853 674.648 198.29C674.648 197.414 674.873 196.731 675.322 196.239C675.771 195.748 676.405 195.502 677.222 195.502C678.003 195.502 678.621 195.754 679.077 196.259C679.533 196.76 679.761 197.437 679.761 198.29ZM675.83 198.29C675.83 199.537 676.291 200.16 677.212 200.16C678.123 200.16 678.579 199.537 678.579 198.29C678.579 197.056 678.12 196.439 677.202 196.439C676.72 196.439 676.37 196.599 676.152 196.918C675.938 197.237 675.83 197.694 675.83 198.29ZM682.631 201H681.484V193.402H682.631V201ZM685.824 201H684.677V195.6H685.824V201ZM684.609 194.169C684.609 193.964 684.664 193.806 684.775 193.695C684.889 193.585 685.05 193.529 685.258 193.529C685.46 193.529 685.616 193.585 685.727 193.695C685.841 193.806 685.898 193.964 685.898 194.169C685.898 194.364 685.841 194.519 685.727 194.633C685.616 194.743 685.46 194.799 685.258 194.799C685.05 194.799 684.889 194.743 684.775 194.633C684.664 194.519 684.609 194.364 684.609 194.169ZM692.66 198.29C692.66 199.172 692.434 199.861 691.981 200.355C691.529 200.85 690.899 201.098 690.092 201.098C689.587 201.098 689.141 200.984 688.754 200.756C688.366 200.528 688.068 200.201 687.86 199.774C687.652 199.348 687.548 198.853 687.548 198.29C687.548 197.414 687.772 196.731 688.221 196.239C688.671 195.748 689.304 195.502 690.121 195.502C690.902 195.502 691.521 195.754 691.976 196.259C692.432 196.76 692.66 197.437 692.66 198.29ZM688.729 198.29C688.729 199.537 689.19 200.16 690.111 200.16C691.023 200.16 691.478 199.537 691.478 198.29C691.478 197.056 691.019 196.439 690.101 196.439C689.62 196.439 689.27 196.599 689.052 196.918C688.837 197.237 688.729 197.694 688.729 198.29ZM701.541 201H697.503V193.861H701.541V194.848H698.67V196.791H701.36V197.768H698.67V200.009H701.541V201Z" fill="#C6C7C8"/>
<path d="M92.8086 91.8145H91.6611V87.2051C91.6611 86.6549 91.6742 86.2188 91.7002 85.8965C91.6253 85.9746 91.5326 86.0609 91.4219 86.1553C91.3145 86.2497 90.9499 86.5492 90.3281 87.0537L89.752 86.3262L91.8516 84.6758H92.8086V91.8145ZM96.3629 91.8145L99.1852 85.6963H95.4742V84.6855H100.411V85.4863L97.6031 91.8145H96.3629ZM101.875 91.2041C101.875 90.9665 101.937 90.7842 102.061 90.6572C102.184 90.5303 102.363 90.4668 102.598 90.4668C102.835 90.4668 103.016 90.5335 103.14 90.667C103.264 90.7972 103.325 90.9762 103.325 91.2041C103.325 91.4352 103.262 91.6191 103.135 91.7559C103.011 91.8893 102.832 91.9561 102.598 91.9561C102.363 91.9561 102.184 91.8893 102.061 91.7559C101.937 91.6224 101.875 91.4385 101.875 91.2041ZM105.63 91.8145L108.452 85.6963H104.741V84.6855H109.678V85.4863L106.87 91.8145H105.63ZM111.855 86.8145C111.855 87.2995 111.902 87.6608 111.996 87.8984C112.091 88.1361 112.246 88.2549 112.46 88.2549C112.89 88.2549 113.105 87.7747 113.105 86.8145C113.105 85.8542 112.89 85.374 112.46 85.374C112.246 85.374 112.091 85.4928 111.996 85.7305C111.902 85.9681 111.855 86.3294 111.855 86.8145ZM114.052 86.8047C114.052 87.5534 113.917 88.1165 113.647 88.4941C113.38 88.8685 112.984 89.0557 112.46 89.0557C111.966 89.0557 111.581 88.862 111.308 88.4746C111.038 88.084 110.903 87.5273 110.903 86.8047C110.903 85.3171 111.422 84.5732 112.46 84.5732C112.971 84.5732 113.364 84.7669 113.637 85.1543C113.914 85.5384 114.052 86.0885 114.052 86.8047ZM116.503 89.666C116.503 90.151 116.551 90.514 116.645 90.7549C116.743 90.9958 116.899 91.1162 117.114 91.1162C117.54 91.1162 117.753 90.6328 117.753 89.666C117.753 88.7122 117.54 88.2354 117.114 88.2354C116.899 88.2354 116.743 88.3525 116.645 88.5869C116.551 88.8213 116.503 89.181 116.503 89.666ZM118.701 89.666C118.701 90.4147 118.565 90.9762 118.295 91.3506C118.025 91.7249 117.631 91.9121 117.114 91.9121C116.619 91.9121 116.235 91.7201 115.961 91.3359C115.688 90.9486 115.551 90.3919 115.551 89.666C115.551 88.1784 116.072 87.4346 117.114 87.4346C117.615 87.4346 118.004 87.6266 118.281 88.0107C118.561 88.3949 118.701 88.9466 118.701 89.666ZM117.25 84.6758L113.29 91.8145H112.343L116.303 84.6758H117.25Z" fill="#575A5C"/>
<path d="M90.3516 121.622V120.646H92.8613V121.622H90.3516ZM94.8727 123.814L97.6949 117.696H93.984V116.686H98.9205V117.486L96.1129 123.814H94.8727ZM100.385 123.204C100.385 122.966 100.447 122.784 100.571 122.657C100.694 122.53 100.873 122.467 101.108 122.467C101.345 122.467 101.526 122.534 101.65 122.667C101.773 122.797 101.835 122.976 101.835 123.204C101.835 123.435 101.772 123.619 101.645 123.756C101.521 123.889 101.342 123.956 101.108 123.956C100.873 123.956 100.694 123.889 100.571 123.756C100.447 123.622 100.385 123.438 100.385 123.204ZM108.168 120.245C108.168 121.485 107.968 122.407 107.567 123.009C107.17 123.611 106.561 123.912 105.741 123.912C104.947 123.912 104.345 123.601 103.934 122.979C103.524 122.358 103.319 121.446 103.319 120.245C103.319 118.985 103.518 118.058 103.915 117.462C104.315 116.863 104.924 116.563 105.741 116.563C106.539 116.563 107.142 116.876 107.553 117.501C107.963 118.126 108.168 119.041 108.168 120.245ZM104.481 120.245C104.481 121.218 104.581 121.913 104.779 122.33C104.981 122.747 105.302 122.955 105.741 122.955C106.18 122.955 106.501 122.743 106.703 122.32C106.908 121.897 107.011 121.205 107.011 120.245C107.011 119.288 106.908 118.596 106.703 118.17C106.501 117.74 106.18 117.525 105.741 117.525C105.302 117.525 104.981 117.735 104.779 118.155C104.581 118.575 104.481 119.272 104.481 120.245ZM110.365 118.814C110.365 119.299 110.412 119.661 110.506 119.898C110.601 120.136 110.755 120.255 110.97 120.255C111.4 120.255 111.615 119.775 111.615 118.814C111.615 117.854 111.4 117.374 110.97 117.374C110.755 117.374 110.601 117.493 110.506 117.73C110.412 117.968 110.365 118.329 110.365 118.814ZM112.562 118.805C112.562 119.553 112.427 120.117 112.157 120.494C111.89 120.868 111.494 121.056 110.97 121.056C110.475 121.056 110.091 120.862 109.818 120.475C109.548 120.084 109.413 119.527 109.413 118.805C109.413 117.317 109.932 116.573 110.97 116.573C111.481 116.573 111.873 116.767 112.147 117.154C112.424 117.538 112.562 118.089 112.562 118.805ZM115.013 121.666C115.013 122.151 115.06 122.514 115.155 122.755C115.252 122.996 115.409 123.116 115.623 123.116C116.05 123.116 116.263 122.633 116.263 121.666C116.263 120.712 116.05 120.235 115.623 120.235C115.409 120.235 115.252 120.353 115.155 120.587C115.06 120.821 115.013 121.181 115.013 121.666ZM117.21 121.666C117.21 122.415 117.075 122.976 116.805 123.351C116.535 123.725 116.141 123.912 115.623 123.912C115.129 123.912 114.745 123.72 114.471 123.336C114.198 122.949 114.061 122.392 114.061 121.666C114.061 120.178 114.582 119.435 115.623 119.435C116.125 119.435 116.514 119.627 116.79 120.011C117.07 120.395 117.21 120.947 117.21 121.666ZM115.76 116.676L111.8 123.814H110.853L114.813 116.676H115.76Z" fill="#575A5C"/>
<path d="M88 97.8145C88 96.7099 88.8954 95.8145 90 95.8145H118C119.105 95.8145 120 96.7099 120 97.8145V105.814H88V97.8145Z" fill="#72CAA5"/>
<path d="M88 109.814H120C120 110.588 119.373 111.214 118.6 111.214H89.4C88.6268 111.214 88 110.588 88 109.814Z" fill="#FF896E"/>
<path d="M233.809 79.8149H232.661V75.2056C232.661 74.6554 232.674 74.2192 232.7 73.897C232.625 73.9751 232.533 74.0614 232.422 74.1558C232.314 74.2502 231.95 74.5496 231.328 75.0542L230.752 74.3267L232.852 72.6763H233.809V79.8149ZM241.381 75.7231C241.381 77.1294 241.098 78.1792 240.532 78.8726C239.965 79.5659 239.113 79.9126 237.973 79.9126C237.54 79.9126 237.229 79.8866 237.041 79.8345V78.8726C237.33 78.9539 237.622 78.9946 237.915 78.9946C238.689 78.9946 239.267 78.7863 239.648 78.3696C240.029 77.953 240.237 77.2987 240.273 76.4067H240.214C240.022 76.6997 239.79 76.9113 239.516 77.0415C239.246 77.1717 238.929 77.2368 238.564 77.2368C237.933 77.2368 237.436 77.0399 237.075 76.646C236.713 76.2521 236.533 75.7118 236.533 75.0249C236.533 74.2795 236.741 73.687 237.158 73.2476C237.578 72.8049 238.149 72.5835 238.872 72.5835C239.379 72.5835 239.822 72.7072 240.2 72.9546C240.577 73.202 240.869 73.5617 241.074 74.0337C241.279 74.5024 241.381 75.0656 241.381 75.7231ZM238.891 73.5356C238.494 73.5356 238.19 73.6659 237.978 73.9263C237.767 74.1834 237.661 74.5464 237.661 75.0151C237.661 75.422 237.758 75.7427 237.954 75.9771C238.152 76.2082 238.452 76.3237 238.852 76.3237C239.24 76.3237 239.565 76.2082 239.829 75.9771C240.092 75.7459 240.224 75.4757 240.224 75.1665C240.224 74.8768 240.167 74.6066 240.053 74.356C239.943 74.1021 239.786 73.9019 239.585 73.7554C239.383 73.6089 239.152 73.5356 238.891 73.5356ZM242.875 79.2046C242.875 78.967 242.937 78.7847 243.061 78.6577C243.184 78.5308 243.363 78.4673 243.598 78.4673C243.835 78.4673 244.016 78.534 244.14 78.6675C244.264 78.7977 244.325 78.9767 244.325 79.2046C244.325 79.4357 244.262 79.6196 244.135 79.7563C244.011 79.8898 243.832 79.9565 243.598 79.9565C243.363 79.9565 243.184 79.8898 243.061 79.7563C242.937 79.6229 242.875 79.439 242.875 79.2046ZM250.648 75.7231C250.648 77.1294 250.365 78.1792 249.799 78.8726C249.232 79.5659 248.379 79.9126 247.24 79.9126C246.807 79.9126 246.496 79.8866 246.307 79.8345V78.8726C246.597 78.9539 246.888 78.9946 247.181 78.9946C247.956 78.9946 248.534 78.7863 248.915 78.3696C249.296 77.953 249.504 77.2987 249.54 76.4067H249.481C249.289 76.6997 249.056 76.9113 248.783 77.0415C248.513 77.1717 248.195 77.2368 247.831 77.2368C247.199 77.2368 246.703 77.0399 246.342 76.646C245.98 76.2521 245.8 75.7118 245.8 75.0249C245.8 74.2795 246.008 73.687 246.425 73.2476C246.845 72.8049 247.416 72.5835 248.138 72.5835C248.646 72.5835 249.089 72.7072 249.467 72.9546C249.844 73.202 250.136 73.5617 250.341 74.0337C250.546 74.5024 250.648 75.0656 250.648 75.7231ZM248.158 73.5356C247.761 73.5356 247.457 73.6659 247.245 73.9263C247.033 74.1834 246.928 74.5464 246.928 75.0151C246.928 75.422 247.025 75.7427 247.221 75.9771C247.419 76.2082 247.719 76.3237 248.119 76.3237C248.506 76.3237 248.832 76.2082 249.096 75.9771C249.359 75.7459 249.491 75.4757 249.491 75.1665C249.491 74.8768 249.434 74.6066 249.32 74.356C249.209 74.1021 249.053 73.9019 248.851 73.7554C248.65 73.6089 248.418 73.5356 248.158 73.5356ZM252.855 74.8149C252.855 75.3 252.902 75.6613 252.996 75.8989C253.091 76.1366 253.246 76.2554 253.46 76.2554C253.89 76.2554 254.105 75.7752 254.105 74.8149C254.105 73.8547 253.89 73.3745 253.46 73.3745C253.246 73.3745 253.091 73.4933 252.996 73.731C252.902 73.9686 252.855 74.3299 252.855 74.8149ZM255.052 74.8052C255.052 75.5539 254.917 76.117 254.647 76.4946C254.38 76.869 253.984 77.0562 253.46 77.0562C252.966 77.0562 252.581 76.8625 252.308 76.4751C252.038 76.0845 251.903 75.5278 251.903 74.8052C251.903 73.3175 252.422 72.5737 253.46 72.5737C253.971 72.5737 254.364 72.7674 254.637 73.1548C254.914 73.5389 255.052 74.089 255.052 74.8052ZM257.503 77.6665C257.503 78.1515 257.551 78.5145 257.645 78.7554C257.743 78.9963 257.899 79.1167 258.114 79.1167C258.54 79.1167 258.753 78.6333 258.753 77.6665C258.753 76.7127 258.54 76.2358 258.114 76.2358C257.899 76.2358 257.743 76.353 257.645 76.5874C257.551 76.8218 257.503 77.1815 257.503 77.6665ZM259.701 77.6665C259.701 78.4152 259.565 78.9767 259.295 79.3511C259.025 79.7254 258.631 79.9126 258.114 79.9126C257.619 79.9126 257.235 79.7205 256.961 79.3364C256.688 78.9491 256.551 78.3924 256.551 77.6665C256.551 76.1789 257.072 75.4351 258.114 75.4351C258.615 75.4351 259.004 75.6271 259.281 76.0112C259.561 76.3953 259.701 76.9471 259.701 77.6665ZM258.25 72.6763L254.29 79.8149H253.343L257.303 72.6763H258.25Z" fill="#C6C7C8"/>
<path d="M231.352 127.623V126.646H233.861V127.623H231.352ZM239.891 125.723C239.891 127.129 239.608 128.179 239.042 128.873C238.475 129.566 237.622 129.913 236.483 129.913C236.05 129.913 235.739 129.887 235.55 129.834V128.873C235.84 128.954 236.131 128.995 236.424 128.995C237.199 128.995 237.777 128.786 238.158 128.37C238.539 127.953 238.747 127.299 238.783 126.407H238.724C238.532 126.7 238.299 126.911 238.026 127.042C237.756 127.172 237.438 127.237 237.074 127.237C236.442 127.237 235.946 127.04 235.585 126.646C235.223 126.252 235.043 125.712 235.043 125.025C235.043 124.279 235.251 123.687 235.668 123.248C236.088 122.805 236.659 122.583 237.381 122.583C237.889 122.583 238.332 122.707 238.71 122.955C239.087 123.202 239.379 123.562 239.584 124.034C239.789 124.502 239.891 125.066 239.891 125.723ZM237.401 123.536C237.004 123.536 236.699 123.666 236.488 123.926C236.276 124.183 236.171 124.546 236.171 125.015C236.171 125.422 236.268 125.743 236.463 125.977C236.662 126.208 236.962 126.324 237.362 126.324C237.749 126.324 238.075 126.208 238.338 125.977C238.602 125.746 238.734 125.476 238.734 125.167C238.734 124.877 238.677 124.607 238.563 124.356C238.452 124.102 238.296 123.902 238.094 123.755C237.893 123.609 237.661 123.536 237.401 123.536ZM241.385 129.205C241.385 128.967 241.447 128.785 241.571 128.658C241.694 128.531 241.873 128.467 242.108 128.467C242.345 128.467 242.526 128.534 242.65 128.667C242.773 128.798 242.835 128.977 242.835 129.205C242.835 129.436 242.772 129.62 242.645 129.756C242.521 129.89 242.342 129.957 242.108 129.957C241.873 129.957 241.694 129.89 241.571 129.756C241.447 129.623 241.385 129.439 241.385 129.205ZM249.168 126.246C249.168 127.486 248.968 128.407 248.567 129.009C248.17 129.611 247.561 129.913 246.741 129.913C245.947 129.913 245.345 129.602 244.934 128.98C244.524 128.358 244.319 127.447 244.319 126.246C244.319 124.986 244.518 124.058 244.915 123.462C245.315 122.863 245.924 122.564 246.741 122.564C247.539 122.564 248.142 122.876 248.553 123.501C248.963 124.126 249.168 125.041 249.168 126.246ZM245.481 126.246C245.481 127.219 245.581 127.914 245.779 128.331C245.981 128.747 246.302 128.956 246.741 128.956C247.18 128.956 247.501 128.744 247.703 128.321C247.908 127.898 248.011 127.206 248.011 126.246C248.011 125.289 247.908 124.597 247.703 124.17C247.501 123.741 247.18 123.526 246.741 123.526C246.302 123.526 245.981 123.736 245.779 124.156C245.581 124.576 245.481 125.272 245.481 126.246ZM251.365 124.815C251.365 125.3 251.412 125.661 251.506 125.899C251.601 126.137 251.755 126.255 251.97 126.255C252.4 126.255 252.615 125.775 252.615 124.815C252.615 123.855 252.4 123.375 251.97 123.375C251.755 123.375 251.601 123.493 251.506 123.731C251.412 123.969 251.365 124.33 251.365 124.815ZM253.562 124.805C253.562 125.554 253.427 126.117 253.157 126.495C252.89 126.869 252.494 127.056 251.97 127.056C251.475 127.056 251.091 126.862 250.818 126.475C250.548 126.084 250.413 125.528 250.413 124.805C250.413 123.318 250.932 122.574 251.97 122.574C252.481 122.574 252.873 122.767 253.147 123.155C253.424 123.539 253.562 124.089 253.562 124.805ZM256.013 127.667C256.013 128.152 256.06 128.514 256.155 128.755C256.252 128.996 256.409 129.117 256.623 129.117C257.05 129.117 257.263 128.633 257.263 127.667C257.263 126.713 257.05 126.236 256.623 126.236C256.409 126.236 256.252 126.353 256.155 126.587C256.06 126.822 256.013 127.181 256.013 127.667ZM258.21 127.667C258.21 128.415 258.075 128.977 257.805 129.351C257.535 129.725 257.141 129.913 256.623 129.913C256.129 129.913 255.745 129.721 255.471 129.336C255.198 128.949 255.061 128.392 255.061 127.667C255.061 126.179 255.582 125.435 256.623 125.435C257.125 125.435 257.514 125.627 257.79 126.011C258.07 126.395 258.21 126.947 258.21 127.667ZM256.76 122.676L252.8 129.815H251.853L255.813 122.676H256.76Z" fill="#C6C7C8"/>
<path opacity="0.2" d="M229 85.9712C229 84.8666 229.895 83.9712 231 83.9712H259C260.105 83.9712 261 84.8666 261 85.9712V105.971H229V85.9712Z" fill="#72CAA5"/>
<path opacity="0.2" d="M229 109.815H261V115.815C261 116.92 260.105 117.815 259 117.815H231C229.895 117.815 229 116.92 229 115.815V109.815Z" fill="#FF896E"/>
<path d="M377.278 62.0454H372.439V61.1763L374.28 59.3257C374.824 58.769 375.184 58.3752 375.359 58.144C375.538 57.9097 375.669 57.6899 375.75 57.4849C375.831 57.2798 375.872 57.0601 375.872 56.8257C375.872 56.5034 375.774 56.2495 375.579 56.064C375.387 55.8784 375.12 55.7856 374.778 55.7856C374.505 55.7856 374.24 55.8361 373.982 55.937C373.729 56.0379 373.434 56.2202 373.099 56.4839L372.479 55.7271C372.876 55.3918 373.261 55.1541 373.636 55.0142C374.01 54.8742 374.409 54.8042 374.832 54.8042C375.496 54.8042 376.028 54.9784 376.429 55.3267C376.829 55.6717 377.029 56.1372 377.029 56.7231C377.029 57.0454 376.971 57.3514 376.854 57.6411C376.74 57.9308 376.562 58.2303 376.321 58.5396C376.084 58.8455 375.687 59.2606 375.13 59.7847L373.89 60.9858V61.0347H377.278V62.0454ZM383.381 57.9536C383.381 59.3599 383.098 60.4097 382.532 61.103C381.965 61.7964 381.113 62.1431 379.973 62.1431C379.54 62.1431 379.229 62.117 379.041 62.0649V61.103C379.33 61.1844 379.622 61.2251 379.915 61.2251C380.689 61.2251 381.267 61.0168 381.648 60.6001C382.029 60.1834 382.237 59.5291 382.273 58.6372H382.214C382.022 58.9302 381.79 59.1418 381.516 59.272C381.246 59.4022 380.929 59.4673 380.564 59.4673C379.933 59.4673 379.436 59.2703 379.075 58.8765C378.713 58.4826 378.533 57.9422 378.533 57.2554C378.533 56.5099 378.741 55.9175 379.158 55.478C379.578 55.0353 380.149 54.814 380.872 54.814C381.379 54.814 381.822 54.9377 382.2 55.1851C382.577 55.4325 382.869 55.7922 383.074 56.2642C383.279 56.7329 383.381 57.2961 383.381 57.9536ZM380.891 55.7661C380.494 55.7661 380.19 55.8963 379.978 56.1567C379.767 56.4139 379.661 56.7769 379.661 57.2456C379.661 57.6525 379.758 57.9731 379.954 58.2075C380.152 58.4386 380.452 58.5542 380.852 58.5542C381.24 58.5542 381.565 58.4386 381.829 58.2075C382.092 57.9764 382.224 57.7062 382.224 57.397C382.224 57.1073 382.167 56.8371 382.053 56.5864C381.943 56.3325 381.786 56.1323 381.585 55.9858C381.383 55.8394 381.152 55.7661 380.891 55.7661ZM384.875 61.4351C384.875 61.1974 384.937 61.0151 385.061 60.8882C385.184 60.7612 385.363 60.6978 385.598 60.6978C385.835 60.6978 386.016 60.7645 386.14 60.8979C386.264 61.0282 386.325 61.2072 386.325 61.4351C386.325 61.6662 386.262 61.8501 386.135 61.9868C386.011 62.1203 385.832 62.187 385.598 62.187C385.363 62.187 385.184 62.1203 385.061 61.9868C384.937 61.8534 384.875 61.6694 384.875 61.4351ZM391.188 62.0454H390.041V57.436C390.041 56.8859 390.054 56.4497 390.08 56.1274C390.005 56.2056 389.912 56.2918 389.802 56.3862C389.694 56.4806 389.33 56.7801 388.708 57.2847L388.132 56.5571L390.231 54.9067H391.188V62.0454ZM394.855 57.0454C394.855 57.5304 394.902 57.8918 394.996 58.1294C395.091 58.367 395.246 58.4858 395.46 58.4858C395.89 58.4858 396.105 58.0057 396.105 57.0454C396.105 56.0851 395.89 55.605 395.46 55.605C395.246 55.605 395.091 55.7238 394.996 55.9614C394.902 56.1991 394.855 56.5604 394.855 57.0454ZM397.052 57.0356C397.052 57.7843 396.917 58.3475 396.647 58.7251C396.38 59.0994 395.984 59.2866 395.46 59.2866C394.966 59.2866 394.581 59.0929 394.308 58.7056C394.038 58.3149 393.903 57.7583 393.903 57.0356C393.903 55.548 394.422 54.8042 395.46 54.8042C395.971 54.8042 396.364 54.9979 396.637 55.3853C396.914 55.7694 397.052 56.3195 397.052 57.0356ZM399.503 59.897C399.503 60.382 399.551 60.745 399.645 60.9858C399.743 61.2267 399.899 61.3472 400.114 61.3472C400.54 61.3472 400.753 60.8638 400.753 59.897C400.753 58.9432 400.54 58.4663 400.114 58.4663C399.899 58.4663 399.743 58.5835 399.645 58.8179C399.551 59.0522 399.503 59.4119 399.503 59.897ZM401.701 59.897C401.701 60.6457 401.565 61.2072 401.295 61.5815C401.025 61.9559 400.631 62.1431 400.114 62.1431C399.619 62.1431 399.235 61.951 398.961 61.5669C398.688 61.1795 398.551 60.6229 398.551 59.897C398.551 58.4093 399.072 57.6655 400.114 57.6655C400.615 57.6655 401.004 57.8576 401.281 58.2417C401.561 58.6258 401.701 59.1776 401.701 59.897ZM400.25 54.9067L396.29 62.0454H395.343L399.303 54.9067H400.25Z" fill="#C6C7C8"/>
<path d="M370.352 139.623V138.646H372.861V139.623H370.352ZM377.431 141.815H376.284V137.206C376.284 136.655 376.297 136.219 376.323 135.897C376.248 135.975 376.155 136.061 376.045 136.156C375.937 136.25 375.573 136.55 374.951 137.054L374.375 136.327L376.474 134.676H377.431V141.815ZM380.986 141.815L383.808 135.697H380.097V134.686H385.033V135.487L382.226 141.815H380.986ZM386.498 141.205C386.498 140.967 386.56 140.785 386.683 140.658C386.807 140.531 386.986 140.467 387.221 140.467C387.458 140.467 387.639 140.534 387.762 140.667C387.886 140.798 387.948 140.977 387.948 141.205C387.948 141.436 387.885 141.62 387.758 141.756C387.634 141.89 387.455 141.957 387.221 141.957C386.986 141.957 386.807 141.89 386.683 141.756C386.56 141.623 386.498 141.439 386.498 141.205ZM391.864 137.357C392.583 137.357 393.153 137.547 393.573 137.928C393.993 138.309 394.203 138.828 394.203 139.486C394.203 140.248 393.963 140.843 393.485 141.273C393.01 141.699 392.332 141.913 391.454 141.913C390.656 141.913 390.029 141.784 389.574 141.527V140.487C389.837 140.637 390.14 140.752 390.482 140.833C390.824 140.915 391.141 140.956 391.434 140.956C391.952 140.956 392.345 140.84 392.616 140.609C392.886 140.378 393.021 140.039 393.021 139.593C393.021 138.74 392.477 138.314 391.39 138.314C391.237 138.314 391.048 138.33 390.824 138.363C390.599 138.392 390.402 138.426 390.233 138.465L389.72 138.163L389.994 134.676H393.704V135.697H391.004L390.843 137.464C390.957 137.445 391.095 137.422 391.258 137.396C391.424 137.37 391.626 137.357 391.864 137.357ZM396.478 136.815C396.478 137.3 396.525 137.661 396.619 137.899C396.714 138.137 396.868 138.255 397.083 138.255C397.513 138.255 397.728 137.775 397.728 136.815C397.728 135.855 397.513 135.375 397.083 135.375C396.868 135.375 396.714 135.493 396.619 135.731C396.525 135.969 396.478 136.33 396.478 136.815ZM398.675 136.805C398.675 137.554 398.54 138.117 398.27 138.495C398.003 138.869 397.607 139.056 397.083 139.056C396.588 139.056 396.204 138.862 395.931 138.475C395.66 138.084 395.525 137.528 395.525 136.805C395.525 135.318 396.045 134.574 397.083 134.574C397.594 134.574 397.986 134.767 398.26 135.155C398.536 135.539 398.675 136.089 398.675 136.805ZM401.126 139.667C401.126 140.152 401.173 140.514 401.268 140.755C401.365 140.996 401.521 141.117 401.736 141.117C402.163 141.117 402.376 140.633 402.376 139.667C402.376 138.713 402.163 138.236 401.736 138.236C401.521 138.236 401.365 138.353 401.268 138.587C401.173 138.822 401.126 139.181 401.126 139.667ZM403.323 139.667C403.323 140.415 403.188 140.977 402.918 141.351C402.648 141.725 402.254 141.913 401.736 141.913C401.242 141.913 400.857 141.721 400.584 141.336C400.311 140.949 400.174 140.392 400.174 139.667C400.174 138.179 400.695 137.435 401.736 137.435C402.238 137.435 402.627 137.627 402.903 138.011C403.183 138.395 403.323 138.947 403.323 139.667ZM401.873 134.676L397.913 141.815H396.966L400.926 134.676H401.873Z" fill="#C6C7C8"/>
<path opacity="0.2" d="M371 67.8149C371 66.7104 371.895 65.8149 373 65.8149H401C402.105 65.8149 403 66.7104 403 67.8149V105.815H371V67.8149Z" fill="#72CAA5"/>
<path opacity="0.2" d="M371 109.815H403V127.815C403 128.92 402.105 129.815 401 129.815H373C371.895 129.815 371 128.92 371 127.815V109.815Z" fill="#FF896E"/>
<path d="M520.01 39.8286C520.01 40.2811 519.878 40.6587 519.614 40.9614C519.351 41.2609 518.979 41.4627 518.501 41.5669V41.606C519.074 41.6776 519.504 41.8566 519.79 42.1431C520.076 42.4263 520.22 42.8039 520.22 43.2759C520.22 43.9627 519.977 44.4933 519.492 44.8677C519.007 45.2388 518.317 45.4243 517.422 45.4243C516.631 45.4243 515.964 45.2957 515.42 45.0386V44.0181C515.723 44.1678 516.043 44.2834 516.382 44.3647C516.72 44.4461 517.046 44.4868 517.358 44.4868C517.912 44.4868 518.325 44.3843 518.599 44.1792C518.872 43.9741 519.009 43.6567 519.009 43.2271C519.009 42.8462 518.857 42.5662 518.555 42.3872C518.252 42.2082 517.777 42.1187 517.129 42.1187H516.509V41.186H517.139C518.278 41.186 518.848 40.7922 518.848 40.0044C518.848 39.6984 518.748 39.4624 518.55 39.2964C518.351 39.1304 518.058 39.0474 517.671 39.0474C517.401 39.0474 517.14 39.0864 516.89 39.1646C516.639 39.2394 516.343 39.3875 516.001 39.6089L515.439 38.8081C516.094 38.3263 516.854 38.0854 517.72 38.0854C518.439 38.0854 519.001 38.2401 519.404 38.5493C519.808 38.8586 520.01 39.285 520.01 39.8286ZM526.391 45.3267H521.552V44.4575L523.393 42.6069C523.937 42.0503 524.296 41.6564 524.472 41.4253C524.651 41.1909 524.782 40.9712 524.863 40.7661C524.944 40.561 524.985 40.3413 524.985 40.1069C524.985 39.7847 524.887 39.5308 524.692 39.3452C524.5 39.1597 524.233 39.0669 523.891 39.0669C523.618 39.0669 523.352 39.1174 523.095 39.2183C522.841 39.3192 522.547 39.5015 522.212 39.7651L521.591 39.0083C521.989 38.673 522.374 38.4354 522.749 38.2954C523.123 38.1554 523.522 38.0854 523.945 38.0854C524.609 38.0854 525.141 38.2596 525.542 38.6079C525.942 38.953 526.142 39.4185 526.142 40.0044C526.142 40.3267 526.084 40.6326 525.966 40.9224C525.852 41.2121 525.675 41.5116 525.434 41.8208C525.197 42.1268 524.799 42.5418 524.243 43.0659L523.003 44.2671V44.3159H526.391V45.3267ZM527.875 44.7163C527.875 44.4787 527.937 44.2964 528.061 44.1694C528.184 44.0425 528.363 43.979 528.598 43.979C528.835 43.979 529.016 44.0457 529.14 44.1792C529.264 44.3094 529.325 44.4884 529.325 44.7163C529.325 44.9474 529.262 45.1313 529.135 45.2681C529.011 45.4015 528.832 45.4683 528.598 45.4683C528.363 45.4683 528.184 45.4015 528.061 45.2681C527.937 45.1346 527.875 44.9507 527.875 44.7163ZM535.658 41.7573C535.658 42.9976 535.458 43.9188 535.057 44.521C534.66 45.1232 534.052 45.4243 533.231 45.4243C532.437 45.4243 531.835 45.1134 531.425 44.4917C531.014 43.87 530.809 42.9585 530.809 41.7573C530.809 40.4976 531.008 39.5698 531.405 38.9741C531.805 38.3752 532.414 38.0757 533.231 38.0757C534.029 38.0757 534.633 38.3882 535.043 39.0132C535.453 39.6382 535.658 40.5529 535.658 41.7573ZM531.971 41.7573C531.971 42.7306 532.071 43.4256 532.269 43.8423C532.471 44.259 532.792 44.4673 533.231 44.4673C533.671 44.4673 533.991 44.2557 534.193 43.8325C534.398 43.4093 534.501 42.7176 534.501 41.7573C534.501 40.8003 534.398 40.1086 534.193 39.6821C533.991 39.2524 533.671 39.0376 533.231 39.0376C532.792 39.0376 532.471 39.2476 532.269 39.6675C532.071 40.0874 531.971 40.784 531.971 41.7573ZM537.855 40.3267C537.855 40.8117 537.902 41.173 537.996 41.4106C538.091 41.6483 538.246 41.7671 538.46 41.7671C538.89 41.7671 539.105 41.2869 539.105 40.3267C539.105 39.3664 538.89 38.8862 538.46 38.8862C538.246 38.8862 538.091 39.005 537.996 39.2427C537.902 39.4803 537.855 39.8416 537.855 40.3267ZM540.052 40.3169C540.052 41.0656 539.917 41.6287 539.647 42.0063C539.38 42.3807 538.984 42.5679 538.46 42.5679C537.966 42.5679 537.581 42.3742 537.308 41.9868C537.038 41.5962 536.903 41.0396 536.903 40.3169C536.903 38.8293 537.422 38.0854 538.46 38.0854C538.971 38.0854 539.364 38.2791 539.637 38.6665C539.914 39.0506 540.052 39.6007 540.052 40.3169ZM542.503 43.1782C542.503 43.6632 542.551 44.0262 542.645 44.2671C542.743 44.508 542.899 44.6284 543.114 44.6284C543.54 44.6284 543.753 44.145 543.753 43.1782C543.753 42.2244 543.54 41.7476 543.114 41.7476C542.899 41.7476 542.743 41.8647 542.645 42.0991C542.551 42.3335 542.503 42.6932 542.503 43.1782ZM544.701 43.1782C544.701 43.9269 544.565 44.4884 544.295 44.8628C544.025 45.2371 543.631 45.4243 543.114 45.4243C542.619 45.4243 542.235 45.2323 541.961 44.8481C541.688 44.4608 541.551 43.9041 541.551 43.1782C541.551 41.6906 542.072 40.9468 543.114 40.9468C543.615 40.9468 544.004 41.1388 544.281 41.5229C544.561 41.9071 544.701 42.4588 544.701 43.1782ZM543.25 38.188L539.29 45.3267H538.343L542.303 38.188H543.25Z" fill="#C6C7C8"/>
<path d="M513.352 149.623V148.646H515.861V149.623H513.352ZM521.901 151.815H517.062V150.946L518.903 149.095C519.447 148.539 519.806 148.145 519.982 147.914C520.161 147.679 520.291 147.459 520.373 147.254C520.454 147.049 520.495 146.83 520.495 146.595C520.495 146.273 520.397 146.019 520.202 145.833C520.01 145.648 519.743 145.555 519.401 145.555C519.128 145.555 518.862 145.606 518.605 145.707C518.351 145.807 518.057 145.99 517.721 146.253L517.101 145.497C517.498 145.161 517.884 144.924 518.258 144.784C518.633 144.644 519.032 144.574 519.455 144.574C520.119 144.574 520.651 144.748 521.051 145.096C521.452 145.441 521.652 145.907 521.652 146.493C521.652 146.815 521.593 147.121 521.476 147.411C521.362 147.7 521.185 148 520.944 148.309C520.706 148.615 520.309 149.03 519.753 149.554L518.512 150.755V150.804H521.901V151.815ZM528.014 148.246C528.014 149.486 527.814 150.407 527.413 151.009C527.016 151.611 526.407 151.913 525.587 151.913C524.793 151.913 524.191 151.602 523.78 150.98C523.37 150.358 523.165 149.447 523.165 148.246C523.165 146.986 523.364 146.058 523.761 145.462C524.161 144.863 524.77 144.564 525.587 144.564C526.385 144.564 526.988 144.876 527.399 145.501C527.809 146.126 528.014 147.041 528.014 148.246ZM524.327 148.246C524.327 149.219 524.427 149.914 524.625 150.331C524.827 150.747 525.148 150.956 525.587 150.956C526.027 150.956 526.347 150.744 526.549 150.321C526.754 149.898 526.857 149.206 526.857 148.246C526.857 147.289 526.754 146.597 526.549 146.17C526.347 145.741 526.027 145.526 525.587 145.526C525.148 145.526 524.827 145.736 524.625 146.156C524.427 146.576 524.327 147.272 524.327 148.246ZM529.498 151.205C529.498 150.967 529.56 150.785 529.683 150.658C529.807 150.531 529.986 150.467 530.221 150.467C530.458 150.467 530.639 150.534 530.762 150.667C530.886 150.798 530.948 150.977 530.948 151.205C530.948 151.436 530.885 151.62 530.758 151.756C530.634 151.89 530.455 151.957 530.221 151.957C529.986 151.957 529.807 151.89 529.683 151.756C529.56 151.623 529.498 151.439 529.498 151.205ZM535.811 151.815H534.663V147.206C534.663 146.655 534.676 146.219 534.703 145.897C534.628 145.975 534.535 146.061 534.424 146.156C534.317 146.25 533.952 146.55 533.33 147.054L532.754 146.327L534.854 144.676H535.811V151.815ZM539.478 146.815C539.478 147.3 539.525 147.661 539.619 147.899C539.714 148.137 539.868 148.255 540.083 148.255C540.513 148.255 540.728 147.775 540.728 146.815C540.728 145.855 540.513 145.375 540.083 145.375C539.868 145.375 539.714 145.493 539.619 145.731C539.525 145.969 539.478 146.33 539.478 146.815ZM541.675 146.805C541.675 147.554 541.54 148.117 541.27 148.495C541.003 148.869 540.607 149.056 540.083 149.056C539.588 149.056 539.204 148.862 538.931 148.475C538.66 148.084 538.525 147.528 538.525 146.805C538.525 145.318 539.045 144.574 540.083 144.574C540.594 144.574 540.986 144.767 541.26 145.155C541.536 145.539 541.675 146.089 541.675 146.805ZM544.126 149.667C544.126 150.152 544.173 150.514 544.268 150.755C544.365 150.996 544.521 151.117 544.736 151.117C545.163 151.117 545.376 150.633 545.376 149.667C545.376 148.713 545.163 148.236 544.736 148.236C544.521 148.236 544.365 148.353 544.268 148.587C544.173 148.822 544.126 149.181 544.126 149.667ZM546.323 149.667C546.323 150.415 546.188 150.977 545.918 151.351C545.648 151.725 545.254 151.913 544.736 151.913C544.242 151.913 543.857 151.721 543.584 151.336C543.311 150.949 543.174 150.392 543.174 149.667C543.174 148.179 543.695 147.435 544.736 147.435C545.238 147.435 545.627 147.627 545.903 148.011C546.183 148.395 546.323 148.947 546.323 149.667ZM544.873 144.676L540.913 151.815H539.966L543.926 144.676H544.873Z" fill="#C6C7C8"/>
<path opacity="0.2" d="M514 51.8149C514 50.7104 514.895 49.8149 516 49.8149H543.999C545.104 49.8149 545.999 50.7104 545.999 51.8149V105.815H514V51.8149Z" fill="#72CAA5"/>
<path opacity="0.2" d="M514 109.815H545.999V137.815C545.999 138.92 545.104 139.815 543.999 139.815H516C514.895 139.815 514 138.92 514 137.815V109.815Z" fill="#FF896E"/>
<path d="M666.01 22.3169C666.01 22.7694 665.878 23.147 665.614 23.4497C665.351 23.7492 664.979 23.951 664.501 24.0552V24.0942C665.074 24.1659 665.504 24.3449 665.79 24.6313C666.076 24.9146 666.22 25.2922 666.22 25.7642C666.22 26.451 665.977 26.9816 665.492 27.356C665.007 27.7271 664.317 27.9126 663.422 27.9126C662.631 27.9126 661.964 27.784 661.42 27.5269V26.5063C661.723 26.6561 662.043 26.7716 662.382 26.853C662.72 26.9344 663.046 26.9751 663.358 26.9751C663.912 26.9751 664.325 26.8726 664.599 26.6675C664.872 26.4624 665.009 26.145 665.009 25.7153C665.009 25.3345 664.857 25.0545 664.555 24.8755C664.252 24.6965 663.777 24.6069 663.129 24.6069H662.509V23.6743H663.139C664.278 23.6743 664.848 23.2804 664.848 22.4927C664.848 22.1867 664.748 21.9507 664.55 21.7847C664.351 21.6187 664.058 21.5356 663.671 21.5356C663.401 21.5356 663.14 21.5747 662.89 21.6528C662.639 21.7277 662.343 21.8758 662.001 22.0972L661.439 21.2964C662.094 20.8146 662.854 20.5737 663.72 20.5737C664.439 20.5737 665.001 20.7284 665.404 21.0376C665.808 21.3468 666.01 21.7733 666.01 22.3169ZM669.974 23.3569C670.694 23.3569 671.263 23.5474 671.683 23.9282C672.103 24.3091 672.313 24.8283 672.313 25.4858C672.313 26.2476 672.074 26.8433 671.595 27.2729C671.12 27.6994 670.443 27.9126 669.564 27.9126C668.767 27.9126 668.14 27.784 667.684 27.5269V26.4868C667.948 26.6366 668.251 26.7521 668.592 26.8335C668.934 26.9149 669.252 26.9556 669.545 26.9556C670.062 26.9556 670.456 26.84 670.726 26.6089C670.996 26.3778 671.131 26.0392 671.131 25.5933C671.131 24.7404 670.588 24.314 669.501 24.314C669.348 24.314 669.159 24.3302 668.934 24.3628C668.71 24.3921 668.513 24.4263 668.343 24.4653L667.831 24.1626L668.104 20.6763H671.815V21.6968H669.115L668.954 23.4644C669.068 23.4448 669.206 23.422 669.369 23.396C669.535 23.37 669.737 23.3569 669.974 23.3569ZM673.875 27.2046C673.875 26.967 673.937 26.7847 674.061 26.6577C674.184 26.5308 674.363 26.4673 674.598 26.4673C674.835 26.4673 675.016 26.534 675.14 26.6675C675.264 26.7977 675.325 26.9767 675.325 27.2046C675.325 27.4357 675.262 27.6196 675.135 27.7563C675.011 27.8898 674.832 27.9565 674.598 27.9565C674.363 27.9565 674.184 27.8898 674.061 27.7563C673.937 27.6229 673.875 27.439 673.875 27.2046ZM680.188 27.8149H679.041V23.2056C679.041 22.6554 679.054 22.2192 679.08 21.897C679.005 21.9751 678.912 22.0614 678.802 22.1558C678.694 22.2502 678.33 22.5496 677.708 23.0542L677.132 22.3267L679.231 20.6763H680.188V27.8149ZM683.855 22.8149C683.855 23.3 683.902 23.6613 683.996 23.8989C684.091 24.1366 684.246 24.2554 684.46 24.2554C684.89 24.2554 685.105 23.7752 685.105 22.8149C685.105 21.8547 684.89 21.3745 684.46 21.3745C684.246 21.3745 684.091 21.4933 683.996 21.731C683.902 21.9686 683.855 22.3299 683.855 22.8149ZM686.052 22.8052C686.052 23.5539 685.917 24.117 685.647 24.4946C685.38 24.869 684.984 25.0562 684.46 25.0562C683.966 25.0562 683.581 24.8625 683.308 24.4751C683.038 24.0845 682.903 23.5278 682.903 22.8052C682.903 21.3175 683.422 20.5737 684.46 20.5737C684.971 20.5737 685.364 20.7674 685.637 21.1548C685.914 21.5389 686.052 22.089 686.052 22.8052ZM688.503 25.6665C688.503 26.1515 688.551 26.5145 688.645 26.7554C688.743 26.9963 688.899 27.1167 689.114 27.1167C689.54 27.1167 689.753 26.6333 689.753 25.6665C689.753 24.7127 689.54 24.2358 689.114 24.2358C688.899 24.2358 688.743 24.353 688.645 24.5874C688.551 24.8218 688.503 25.1815 688.503 25.6665ZM690.701 25.6665C690.701 26.4152 690.565 26.9767 690.295 27.3511C690.025 27.7254 689.631 27.9126 689.114 27.9126C688.619 27.9126 688.235 27.7205 687.961 27.3364C687.688 26.9491 687.551 26.3924 687.551 25.6665C687.551 24.1789 688.072 23.4351 689.114 23.4351C689.615 23.4351 690.004 23.6271 690.281 24.0112C690.561 24.3953 690.701 24.9471 690.701 25.6665ZM689.25 20.6763L685.29 27.8149H684.343L688.303 20.6763H689.25Z" fill="#C6C7C8"/>
<path d="M656.352 159.623V158.646H658.861V159.623H656.352ZM664.901 161.815H660.062V160.946L661.903 159.095C662.447 158.539 662.806 158.145 662.982 157.914C663.161 157.679 663.291 157.459 663.373 157.254C663.454 157.049 663.495 156.83 663.495 156.595C663.495 156.273 663.397 156.019 663.202 155.833C663.01 155.648 662.743 155.555 662.401 155.555C662.128 155.555 661.862 155.606 661.605 155.707C661.351 155.807 661.057 155.99 660.721 156.253L660.101 155.497C660.498 155.161 660.884 154.924 661.258 154.784C661.633 154.644 662.032 154.574 662.455 154.574C663.119 154.574 663.651 154.748 664.051 155.096C664.452 155.441 664.652 155.907 664.652 156.493C664.652 156.815 664.593 157.121 664.476 157.411C664.362 157.7 664.185 158 663.944 158.309C663.706 158.615 663.309 159.03 662.753 159.554L661.512 160.755V160.804H664.901V161.815ZM671.014 161.815H666.175V160.946L668.016 159.095C668.559 158.539 668.919 158.145 669.095 157.914C669.274 157.679 669.404 157.459 669.486 157.254C669.567 157.049 669.608 156.83 669.608 156.595C669.608 156.273 669.51 156.019 669.315 155.833C669.123 155.648 668.856 155.555 668.514 155.555C668.24 155.555 667.975 155.606 667.718 155.707C667.464 155.807 667.169 155.99 666.834 156.253L666.214 155.497C666.611 155.161 666.997 154.924 667.371 154.784C667.746 154.644 668.144 154.574 668.568 154.574C669.232 154.574 669.764 154.748 670.164 155.096C670.565 155.441 670.765 155.907 670.765 156.493C670.765 156.815 670.706 157.121 670.589 157.411C670.475 157.7 670.298 158 670.057 158.309C669.819 158.615 669.422 159.03 668.865 159.554L667.625 160.755V160.804H671.014V161.815ZM672.498 161.205C672.498 160.967 672.56 160.785 672.683 160.658C672.807 160.531 672.986 160.467 673.221 160.467C673.458 160.467 673.639 160.534 673.762 160.667C673.886 160.798 673.948 160.977 673.948 161.205C673.948 161.436 673.885 161.62 673.758 161.756C673.634 161.89 673.455 161.957 673.221 161.957C672.986 161.957 672.807 161.89 672.683 161.756C672.56 161.623 672.498 161.439 672.498 161.205ZM676.252 161.815L679.075 155.697H675.364V154.686H680.3V155.487L677.493 161.815H676.252ZM686.394 158.246C686.394 159.486 686.193 160.407 685.793 161.009C685.396 161.611 684.787 161.913 683.967 161.913C683.173 161.913 682.57 161.602 682.16 160.98C681.75 160.358 681.545 159.447 681.545 158.246C681.545 156.986 681.743 156.058 682.141 155.462C682.541 154.863 683.15 154.564 683.967 154.564C684.764 154.564 685.368 154.876 685.778 155.501C686.188 156.126 686.394 157.041 686.394 158.246ZM682.707 158.246C682.707 159.219 682.806 159.914 683.005 160.331C683.207 160.747 683.527 160.956 683.967 160.956C684.406 160.956 684.727 160.744 684.929 160.321C685.134 159.898 685.236 159.206 685.236 158.246C685.236 157.289 685.134 156.597 684.929 156.17C684.727 155.741 684.406 155.526 683.967 155.526C683.527 155.526 683.207 155.736 683.005 156.156C682.806 156.576 682.707 157.272 682.707 158.246ZM688.59 156.815C688.59 157.3 688.638 157.661 688.732 157.899C688.826 158.137 688.981 158.255 689.196 158.255C689.626 158.255 689.84 157.775 689.84 156.815C689.84 155.855 689.626 155.375 689.196 155.375C688.981 155.375 688.826 155.493 688.732 155.731C688.638 155.969 688.59 156.33 688.59 156.815ZM690.788 156.805C690.788 157.554 690.653 158.117 690.382 158.495C690.115 158.869 689.72 159.056 689.196 159.056C688.701 159.056 688.317 158.862 688.044 158.475C687.773 158.084 687.638 157.528 687.638 156.805C687.638 155.318 688.157 154.574 689.196 154.574C689.707 154.574 690.099 154.767 690.373 155.155C690.649 155.539 690.788 156.089 690.788 156.805ZM693.239 159.667C693.239 160.152 693.286 160.514 693.38 160.755C693.478 160.996 693.634 161.117 693.849 161.117C694.276 161.117 694.489 160.633 694.489 159.667C694.489 158.713 694.276 158.236 693.849 158.236C693.634 158.236 693.478 158.353 693.38 158.587C693.286 158.822 693.239 159.181 693.239 159.667ZM695.436 159.667C695.436 160.415 695.301 160.977 695.031 161.351C694.761 161.725 694.367 161.913 693.849 161.913C693.354 161.913 692.97 161.721 692.697 161.336C692.423 160.949 692.287 160.392 692.287 159.667C692.287 158.179 692.808 157.435 693.849 157.435C694.351 157.435 694.74 157.627 695.016 158.011C695.296 158.395 695.436 158.947 695.436 159.667ZM693.986 154.676L690.026 161.815H689.079L693.039 154.676H693.986Z" fill="#C6C7C8"/>
<path opacity="0.2" d="M660 33.8149C660 32.7104 660.895 31.8149 662 31.8149H690C691.105 31.8149 692 32.7104 692 33.8149V105.815H660V33.8149Z" fill="#72CAA5"/>
<path opacity="0.2" d="M660 109.815H692V147.815C692 148.92 691.105 149.815 690 149.815H662C660.895 149.815 660 148.92 660 147.815V109.815Z" fill="#FF896E"/>
</svg>
